<svg width="32" height="22" viewBox="0 0 32 22" fill="none" xmlns="http://www.w3.org/2000/svg">
<path d="M24.3408 6.6254C23.8992 6.6254 23.4672 6.6622 23.0464 6.731C21.9968 3.299 18.744 0.799805 14.8944 0.799805C10.192 0.799805 6.3824 4.52461 6.3824 9.11821C6.3824 9.53101 6.4144 9.93421 6.4736 10.3278C6.24579 10.3005 6.01663 10.2861 5.7872 10.2846C2.5904 10.2846 0 12.819 0 15.9406C0 19.0654 2.5904 21.5998 5.7872 21.5998H24.3408C28.5696 21.5998 32 18.2462 32 14.1118C32 9.97421 28.5696 6.6254 24.3408 6.6254ZM18.1936 13.5214C17.4032 14.6462 14.0112 18.1438 13.8672 18.2894C13.7008 18.4958 13.2416 18.8398 12.8064 18.555C12.68 18.4734 12.5312 18.3118 12.5312 17.9886C12.5312 17.6798 12.672 17.363 12.688 17.3294L14.3408 13.6702C14.032 13.5454 13.4976 13.3326 13.0848 13.1518L12.976 13.1054C12.5568 12.9278 12.0352 12.7054 12.0352 12.1342C12.0352 11.859 12.1648 11.5374 12.4336 11.1598C13.2256 10.0318 16.616 6.53741 16.7616 6.38861C16.9264 6.18541 17.3856 5.84141 17.8224 6.12301C17.9472 6.20461 18.096 6.36941 18.096 6.68941C18.096 6.99821 17.9552 7.315 17.9392 7.3518L16.2848 11.0078C16.5968 11.1326 17.1296 11.3486 17.544 11.5262L17.6528 11.5726C18.072 11.7502 18.5936 11.9726 18.5936 12.547C18.5936 12.8222 18.4624 13.1406 18.1936 13.5214Z" fill="#4ECB71"/>
</svg>
