<svg width="256" height="150" viewBox="0 0 256 150" fill="none" xmlns="http://www.w3.org/2000/svg">
<path d="M180.704 0.0768793C160.961 0.209718 142.066 8.12023 128.117 22.0929C114.318 35.924 106.46 54.5926 106.213 74.1283C105.966 93.6639 113.35 112.525 126.794 126.701L152.341 101.154C145.683 93.7487 142.12 84.0714 142.386 74.1168C142.651 64.1621 146.725 54.6885 153.768 47.6483C160.811 40.6082 170.286 36.5379 180.241 36.2763C190.195 36.0147 199.871 39.5817 207.274 46.2422L232.842 20.6529C218.776 7.31131 200.09 -0.0558474 180.704 0.0768793ZM75.4129 0.183548C56.0247 0.0536971 37.3391 7.43541 23.2743 20.7809L48.7783 46.2849C56.1752 39.589 65.8643 35.995 75.8385 36.2471C85.8128 36.4993 95.3078 40.5784 102.357 47.6396L120.853 15.9275L119.786 15.0742C106.962 5.50541 91.4136 0.287817 75.4129 0.183548ZM235.52 23.3515L210.026 48.8449C216.731 56.2427 220.333 65.9355 220.088 75.9162C219.843 85.897 215.768 95.4012 208.709 102.461C201.649 109.52 192.145 113.595 182.164 113.84C172.184 114.085 162.491 110.483 155.093 103.778L129.429 129.453C143.636 142.836 162.498 150.158 182.014 149.865C201.53 149.573 220.164 141.689 233.964 127.887C247.764 114.084 255.644 95.4482 255.932 75.9324C256.221 56.4166 248.906 37.5561 235.52 23.3515ZM20.6076 23.4582C7.38131 37.3939 0.00592394 55.873 0.00195473 75.086C-0.00201448 94.2989 7.36574 112.781 20.5863 126.722L46.1543 101.154C39.6731 94.0125 36.0793 84.7159 36.0714 75.0718C36.0635 65.4276 39.6421 56.1252 46.1116 48.9729L20.6076 23.4582ZM102.357 102.637C95.3017 109.678 85.8059 113.731 75.841 113.956C65.876 114.18 56.2074 110.558 48.8423 103.842L23.2743 129.4C36.0592 141.49 52.6894 148.699 70.2537 149.763C87.8179 150.828 105.197 145.681 119.349 135.224L120.81 134.029L102.357 102.637Z" fill="#FFC700"/>
</svg>
