<svg width="251" height="146" viewBox="0 0 251 146" fill="none" xmlns="http://www.w3.org/2000/svg">
<path d="M250.74 141.678C241.62 143.998 235.98 141.778 230.92 134.178C219.56 117.158 207.02 100.918 194.92 84.3782C193.36 82.2382 191.74 80.1382 189.72 77.4782C175.4 96.7982 161.1 115.198 147.68 134.338C142.88 141.178 137.84 144.158 128.88 141.738L182.72 69.4782L132.6 4.21817C141.22 2.53817 147.18 3.39817 152.46 11.1182C164.12 28.1582 176.98 44.3782 189.8 61.5382C202.7 44.4382 215.4 28.1982 227.4 11.3182C232.22 4.47817 237.4 1.87817 246.06 4.39817C239.5 13.0982 233.08 21.6582 226.62 30.1582C217.9 41.6182 209.34 53.2182 200.3 64.4382C197.08 68.4382 197.6 71.0382 200.48 74.8182C217.2 96.7982 233.72 118.998 250.74 141.678ZM0.0600002 68.2782C1.5 61.0582 2.46 53.6982 4.46 46.6182C16.46 3.75817 65.66 -14.0618 99.46 12.4982C119.26 28.0782 124.18 50.0382 123.2 74.7982H11.6C9.92 119.218 41.9 146.038 82.66 132.358C96.96 127.558 105.38 116.358 109.6 102.358C111.74 95.3382 115.28 94.2382 121.88 96.2382C118.5 113.758 110.84 128.398 94.84 137.558C70.84 151.278 36.58 146.838 18.56 127.778C7.92 116.578 3.4 102.638 1.4 87.5782C1.1 85.1782 0.48 82.8182 0 80.4382C0.04 76.3848 0.0600002 72.3315 0.0600002 68.2782ZM11.8 65.2982H112.66C112 33.1782 92 10.3582 64.66 10.1582C34.66 9.91817 13.1 32.1982 11.8 65.2982Z" fill="#0521AF"/>
</svg>
