<svg width="256" height="256" viewBox="0 0 256 256" fill="none" xmlns="http://www.w3.org/2000/svg">
<path d="M235.118 0C235.118 0 214.854 0 194.271 25.5992C184.086 17.1435 153.116 17.0635 142.853 17.0635C132.552 17.0635 101.601 17.1435 91.4065 25.5992C70.8239 0 50.6078 0 50.6078 0C39.6027 22.9113 48.2158 38.4548 50.2895 42.6627C40.0078 51.1984 29.6779 59.7341 29.6779 102.397C29.6779 145.059 67.0816 166.459 112.028 170.659C106.25 174.827 101.736 187.722 101.736 196.258C90.1913 200.522 58.0634 204.618 40.0078 179.194C40.0078 179.194 29.7165 162.131 9.14355 162.131C9.14355 162.131 -11.4294 160.523 9.14355 170.667C9.14355 170.667 19.4349 179.202 29.7165 196.266C29.7165 196.266 45.4284 231.913 101.736 221.865C101.852 235.745 101.736 256 101.736 256H183.99V196.266C183.99 189.514 179.495 174.827 173.698 170.667C218.645 166.467 256 145.067 256 102.405C256 59.7421 245.709 51.2064 235.427 42.6707C237.52 38.4548 246.114 22.9113 235.118 0Z" fill="black"/>
</svg>
