<svg width="250" height="242" viewBox="0 0 250 242" fill="none" xmlns="http://www.w3.org/2000/svg">
<path d="M127.566 206.856C125.91 206.482 124.3 205.964 122.684 205.486L121.466 205.116C119.886 204.632 118.32 204.122 116.762 203.586L116.116 203.352C114.72 202.862 113.34 202.344 111.968 201.814L110.804 201.356C109.3 200.762 107.804 200.142 106.328 199.494L105.434 199.098C104.164 198.522 102.908 197.942 101.656 197.34L100.564 196.816C99.5824 196.338 98.6104 195.83 97.6424 195.33C96.9944 194.988 96.3344 194.666 95.6924 194.31C94.5084 193.676 93.3464 193.018 92.1904 192.346L91.0084 191.686C89.4704 190.782 87.9504 189.844 86.4484 188.892L85.2184 188.072C84.1264 187.37 83.0424 186.654 81.9724 185.914L80.9264 185.18C79.8944 184.45 78.8744 183.712 77.8584 182.962L76.5004 181.934C75.5724 181.224 74.6464 180.508 73.7324 179.77L72.4984 178.78C71.3364 177.822 70.1864 176.862 69.0504 175.874L68.6744 175.556C67.4464 174.478 66.2404 173.372 65.0504 172.262L64.0304 171.28C63.1484 170.44 62.2804 169.594 61.4264 168.726L60.4064 167.708C59.3204 166.596 58.2544 165.47 57.2084 164.328L57.0524 164.16C55.9464 162.952 54.8684 161.718 53.8104 160.472L52.9624 159.464C52.1724 158.514 51.3924 157.552 50.6284 156.58L49.7744 155.516C48.8564 154.324 47.9584 153.138 47.0804 151.928C22.7804 118.78 14.0484 73.0641 33.4724 35.5201L16.2504 57.3621C-5.8076 89.0641 -3.06159 130.314 13.7884 164.002C14.1884 164.81 14.6104 165.604 15.0224 166.398L15.8124 167.916L16.3024 168.79L17.1804 170.362C17.7044 171.284 18.2404 172.202 18.7904 173.12L19.7064 174.632C20.3144 175.614 20.9364 176.584 21.5744 177.552L22.3704 178.78C23.2464 180.09 24.1464 181.398 25.0744 182.682L25.1524 182.782L25.6084 183.398C26.4084 184.504 27.2364 185.596 28.0724 186.676L28.9984 187.856C29.7444 188.794 30.5024 189.726 31.2764 190.654L32.1464 191.694C33.1824 192.914 34.2404 194.128 35.3184 195.318L35.3824 195.384L35.5064 195.52C36.5584 196.67 37.6384 197.794 38.7304 198.918L39.7644 199.96C40.6104 200.812 41.4704 201.65 42.3384 202.484L43.3904 203.484C44.5504 204.578 45.7224 205.65 46.9184 206.698L46.9744 206.742L47.5884 207.266C48.6404 208.178 49.7124 209.084 50.7944 209.972L52.1224 211.03C53.0044 211.738 53.8964 212.434 54.7944 213.118L56.2224 214.204C57.2124 214.934 58.2124 215.652 59.2204 216.354L60.3124 217.128L60.6124 217.342C61.5684 218 62.5464 218.634 63.5244 219.268L64.7844 220.108C66.2824 221.056 67.8044 221.994 69.3404 222.9L70.6004 223.61C71.7304 224.262 72.8684 224.902 74.0224 225.528C74.6464 225.864 75.2864 226.182 75.9144 226.504C76.7284 226.93 77.5364 227.362 78.3644 227.776L78.9304 228.05L79.9324 228.534C81.2144 229.146 82.5064 229.748 83.8124 230.328L84.6324 230.696C86.1284 231.35 87.6364 231.978 89.1584 232.578L90.2604 233.012C91.6684 233.554 93.0964 234.09 94.5304 234.594L95.0664 234.78C96.6384 235.33 98.2284 235.84 99.8284 236.338L100.978 236.682C102.606 237.172 104.214 237.758 105.894 238.068C212.572 257.522 243.56 173.962 243.56 173.962C217.532 207.87 171.336 216.814 127.566 206.856ZM89.1384 120.394C91.5284 123.82 94.1784 127.896 97.3484 130.648C98.4984 131.914 99.7004 133.15 100.928 134.364L101.872 135.294C103.064 136.45 104.276 137.586 105.528 138.69L105.676 138.818L105.712 138.854C107.098 140.07 108.528 141.236 109.982 142.388L110.95 143.144C112.408 144.262 113.894 145.358 115.416 146.406L115.546 146.504C116.218 146.968 116.904 147.4 117.586 147.848L118.55 148.486C119.638 149.184 120.742 149.864 121.862 150.516L122.33 150.788C123.296 151.344 124.276 151.892 125.256 152.424L126.298 152.966C126.976 153.32 127.654 153.682 128.346 154.026L128.656 154.166C130.06 154.858 131.478 155.526 132.928 156.156L133.872 156.544C135.028 157.036 136.198 157.516 137.372 157.964L138.872 158.514C139.938 158.91 141.008 159.27 142.088 159.632L143.542 160.098C145.076 160.574 146.592 161.176 148.19 161.442C230.556 175.088 249.57 111.67 249.57 111.67C232.43 136.356 199.234 148.136 163.812 138.94C162.238 138.526 160.688 138.078 159.146 137.592L157.746 137.138C156.65 136.784 155.562 136.408 154.482 136.014L153.01 135.466C151.828 135.01 150.658 134.542 149.498 134.05L148.552 133.65C147.098 133.018 145.666 132.35 144.256 131.652C143.528 131.298 142.814 130.924 142.1 130.556L140.856 129.916C139.94 129.42 139.028 128.904 138.13 128.376L137.478 128.006C136.362 127.356 135.266 126.684 134.178 125.99L133.182 125.326C132.466 124.862 131.748 124.388 131.044 123.912C129.526 122.864 128.05 121.768 126.592 120.656L125.59 119.866C110.086 107.626 97.7964 90.8941 91.9524 71.9241C85.8284 52.2521 87.1504 30.1681 97.7584 12.2441L84.7244 30.6441C68.7704 53.6001 69.6384 84.3321 82.0824 108.61C84.1684 112.686 86.5144 116.636 89.1384 120.394ZM175.952 91.9961C176.63 92.2461 177.308 92.4701 177.996 92.7041L178.898 92.9901C179.866 93.2941 180.83 93.6481 181.832 93.8381C227.31 102.626 239.648 70.5001 242.93 65.7701C232.124 81.3281 213.966 85.0621 191.684 79.6541C189.924 79.2281 187.988 78.5921 186.292 77.9901C184.116 77.2141 181.972 76.3301 179.89 75.3321C175.932 73.4301 172.162 71.1241 168.666 68.4841C148.728 53.3541 136.342 24.4961 149.352 0.994141L142.312 10.6961C132.908 24.5361 131.984 41.7241 138.51 57.0081C145.392 73.2321 159.494 85.9581 175.952 91.9961Z" fill="#0868AC"/>
</svg>
