<svg width="214" height="242" viewBox="0 0 214 242" fill="none" xmlns="http://www.w3.org/2000/svg">
<path d="M205.542 53.668L117.348 2.45803C111.786 -0.709969 104.544 -0.709969 98.938 2.45803L9.802 53.668C4.062 56.97 0 63.176 0 69.814V172.098C0 178.736 4.168 184.944 9.908 188.264L33.458 201.64C44.714 207.184 48.692 207.184 53.814 207.184C70.48 207.184 80 197.106 80 179.528V78.548C80 77.122 79.258 75 77.858 75H66.612C65.188 75 62 77.122 62 78.546V179.526C62 187.318 54.952 195.072 41.78 188.486L17.446 174.46C16.598 174 16 173.074 16 172.098V69.814C16 68.85 17.11 67.882 17.964 67.388L106.812 16.266C107.642 15.796 108.862 15.796 109.69 16.266L197.454 67.376C198.294 67.882 197.998 68.82 197.998 69.814V172.098C197.998 173.074 198.364 174.024 197.534 174.494L109.362 225.646C108.606 226.1 107.668 226.1 106.84 225.646L84.226 212.148C83.544 211.752 82.734 211.61 82.08 211.976C75.788 215.542 74.628 216.016 68.726 218.062C67.274 218.568 65.132 219.446 69.546 221.92L99.142 239.428C101.976 241.068 105.196 241.92 108.436 241.92C111.72 241.92 114.936 241.068 117.77 239.428L205.54 188.264C211.28 184.92 214 178.736 214 172.098V69.814C214 63.176 211.28 56.986 205.542 53.668ZM135.82 155.89C112.368 155.89 107.202 149.42 105.48 137.758C105.28 136.502 104.214 135 102.936 135H91.474C90.056 135 88.916 136.72 88.916 138.132C88.916 153.064 97.034 171.156 135.822 171.156C163.9 171.156 179.998 160.246 179.998 140.938C179.998 121.794 167.064 116.77 139.834 113.166C112.31 109.528 109.514 107.69 109.514 101.242C109.514 95.926 111.882 88.836 132.262 88.836C150.472 88.836 157.184 92.744 159.946 105.018C160.182 106.172 161.236 107 162.426 107H173.934C174.642 107 175.318 106.714 175.814 106.208C176.294 105.664 176.548 104.982 176.484 104.25C174.702 83.114 160.66 73.264 132.26 73.264C106.998 73.264 91.928 83.932 91.928 101.814C91.928 121.21 106.922 126.57 131.172 128.968C160.182 131.812 162.438 136.052 162.438 141.758C162.438 151.668 154.482 155.89 135.82 155.89Z" fill="#83CD29"/>
</svg>
