<svg width="256" height="256" viewBox="0 0 256 256" fill="none" xmlns="http://www.w3.org/2000/svg">
<path d="M144.286 1.054C74.1849 -7.938 10.0462 41.598 1.05419 111.71C-7.93781 181.811 41.5875 245.939 111.7 254.942C181.812 263.934 245.972 214.398 254.942 144.286C263.945 74.1847 214.42 10.0567 144.286 1.054ZM170.644 80.894C168.267 80.9207 165.996 81.8781 164.318 83.5607L116.82 131.059L106.686 120.926C153.502 74.2487 161.95 73.8007 170.644 80.894ZM118.772 132.745L166.132 85.3847C166.751 84.7323 167.498 84.2132 168.325 83.8594C169.153 83.5055 170.043 83.3241 170.943 83.3265C171.843 83.3289 172.733 83.5149 173.559 83.8731C174.384 84.2314 175.128 84.7543 175.744 85.4099C176.361 86.0656 176.837 86.8401 177.143 87.6861C177.45 88.5322 177.581 89.4319 177.528 90.3302C177.475 91.2285 177.239 92.1066 176.835 92.9105C176.43 93.7145 175.866 94.4276 175.177 95.006L175.166 95.0167L125.044 139.017L118.772 132.745ZM122.292 140.147L110.558 142.686C110.513 142.695 110.466 142.698 110.42 142.697C110.3 142.697 110.183 142.665 110.081 142.603C109.98 142.541 109.897 142.451 109.844 142.345C109.772 142.221 109.744 142.078 109.763 141.937C109.783 141.796 109.848 141.665 109.95 141.566L116.83 134.686L122.292 140.147ZM92.3929 135.251L104.894 122.75L114.27 132.115L93.1609 136.659C93.094 136.672 93.0262 136.679 92.9582 136.681C92.8118 136.68 92.6685 136.639 92.5442 136.562C92.4199 136.485 92.3195 136.374 92.2542 136.243C92.1755 136.119 92.1347 135.974 92.1369 135.827C92.1369 135.603 92.2329 135.39 92.3929 135.251ZM53.5022 199.859C53.3004 199.846 53.1115 199.755 52.9745 199.606C52.8376 199.457 52.763 199.262 52.7662 199.059V198.974C52.7864 198.789 52.8692 198.615 53.0009 198.483H53.0222L63.1129 188.393L76.1475 201.427L53.5022 199.859ZM79.3795 186.473C78.8903 186.722 78.5003 187.13 78.2736 187.63C78.0468 188.13 77.9967 188.692 78.1315 189.225V189.203L80.2969 198.43C80.3668 198.714 80.3412 199.014 80.2241 199.282C80.1069 199.55 79.9047 199.773 79.6487 199.915C79.3927 200.057 79.097 200.11 78.8074 200.068C78.5178 200.025 78.2503 199.888 78.0462 199.678H78.0142L64.9155 186.569L105.044 146.483L124.457 142.291L133.78 151.614C120.393 163.369 102.089 175.091 79.3795 186.473ZM135.678 149.907H135.657L126.708 140.958L176.83 96.958C177.284 96.5506 177.702 96.1045 178.078 95.6247L178.1 95.6033C176.532 109.95 156.457 130.217 135.678 149.907ZM188.393 86.6753C185.847 86.6799 183.325 86.1809 180.973 85.207C178.62 84.2331 176.484 82.8036 174.686 81.0007L174.665 80.9793C171.17 77.427 169.174 72.6682 169.088 67.6859C169.002 62.7036 170.833 57.8786 174.202 54.2077C177.572 50.5368 182.223 48.3004 187.194 47.9607C192.166 47.6209 197.078 49.2037 200.916 52.382L200.884 52.3607L183.71 69.566C183.591 69.6828 183.497 69.8223 183.433 69.9762C183.369 70.1301 183.336 70.2953 183.337 70.462C183.337 70.814 183.476 71.134 183.71 71.358L197.012 84.6593C194.335 85.993 191.384 86.6834 188.393 86.6753ZM202.196 81.0007C201.332 81.854 200.393 82.6113 199.369 83.2833L199.305 83.326L186.42 70.4513L202.772 54.0993C209.822 61.7793 209.566 73.6407 202.196 81.0007Z" fill="#F36933"/>
</svg>
