<svg width="256" height="256" viewBox="0 0 256 256" fill="none" xmlns="http://www.w3.org/2000/svg">
<path d="M177.381 178.788C186.828 177.758 193.995 169.18 193.669 158.884C193.344 148.59 185.199 140.354 175.426 140.354H174.775C164.675 140.697 156.857 149.619 157.183 160.257C157.509 165.404 159.463 169.865 162.395 172.954C151.319 195.946 134.379 212.761 108.969 226.831C91.703 236.439 73.786 239.871 55.869 237.469C41.209 235.41 29.807 228.548 22.639 217.222C12.215 200.407 11.238 182.219 20.034 164.032C26.224 150.991 35.996 141.383 42.186 136.578C40.883 132.118 38.928 124.568 37.951 119.078C-9.28601 155.11 -4.39901 203.839 9.93499 226.831C20.685 243.99 42.512 254.627 66.619 254.627C73.134 254.627 79.649 253.941 86.165 252.226C127.864 243.646 159.464 217.565 177.381 178.788ZM234.717 136.236C209.958 105.694 173.472 88.8796 131.773 88.8796H126.561C123.629 82.7028 117.439 78.5842 110.598 78.5842H109.946C99.848 78.9276 92.03 87.8494 92.355 98.4883C92.681 108.783 100.825 117.019 110.598 117.019H111.249C118.416 116.675 124.606 111.871 127.212 105.351H133.076C157.835 105.351 181.29 112.9 202.466 127.657C218.754 138.981 230.482 153.738 236.997 171.581C242.535 185.994 242.209 200.064 236.345 212.075C227.224 230.262 211.913 240.214 191.715 240.214C178.684 240.214 166.305 236.096 159.789 233.007C156.206 236.439 149.69 241.929 145.129 245.362C159.138 252.225 173.472 256 187.154 256C218.428 256 241.558 237.812 250.354 219.625C259.801 199.721 259.149 165.404 234.717 136.236ZM69.225 184.621C69.551 194.916 77.695 203.151 87.468 203.151H88.12C98.219 202.809 106.037 193.886 105.711 183.248C105.386 172.953 97.241 164.718 87.468 164.718H86.817C86.165 164.718 85.187 164.718 84.537 165.06C71.18 141.725 65.642 116.332 67.597 88.8786C68.899 68.2887 75.415 50.4439 86.817 35.6875C96.264 22.9904 114.507 16.8136 126.887 16.4712C161.418 15.7845 176.077 61.0817 177.055 79.2699C181.29 80.299 188.457 82.7017 193.344 84.4176C189.434 28.826 156.857 0 125.584 0C96.264 0 69.225 22.3058 58.474 55.2493C43.489 99.174 53.262 141.383 71.505 174.67C69.877 177.071 68.899 180.846 69.225 184.621Z" fill="#764ABC"/>
</svg>
