<svg width="256" height="256" viewBox="0 0 256 256" fill="none" xmlns="http://www.w3.org/2000/svg">
<path d="M232.08 40.2404L185.952 18.0324C183.347 16.7764 180.416 16.3619 177.565 16.8464C174.714 17.3309 172.084 18.6904 170.04 20.7364L19.0402 158.4C17.2082 160.063 16.1115 162.385 15.9915 164.856C15.8714 167.327 16.7379 169.744 18.4002 171.576C18.6002 171.792 18.8002 172 19.0162 172.192L31.3442 183.392C32.9551 184.859 35.0287 185.714 37.2047 185.811C39.3808 185.907 41.5219 185.238 43.2562 183.92L225.136 46.0004C226.51 44.9579 228.148 44.3196 229.864 44.1573C231.581 43.995 233.309 44.3152 234.854 45.0818C236.399 45.8483 237.699 47.0309 238.608 48.4963C239.517 49.9617 240 51.6519 240 53.3764V52.8404C240 50.2076 239.257 47.6283 237.856 45.3993C236.454 43.1703 234.453 41.3821 232.08 40.2404Z" fill="#0065A9"/>
<path d="M232.08 215.76L185.952 237.976C183.346 239.229 180.416 239.641 177.566 239.157C174.716 238.672 172.086 237.315 170.04 235.272L19.0402 97.6002C17.2082 95.9378 16.1115 93.6157 15.9915 91.1447C15.8714 88.6738 16.7379 86.2563 18.4002 84.4242C18.6002 84.2082 18.8002 84.0002 19.0162 83.8082L31.3442 72.6082C32.9568 71.1359 35.0351 70.2765 37.2165 70.18C39.3979 70.0835 41.544 70.756 43.2802 72.0802L225.136 210C226.51 211.043 228.148 211.681 229.864 211.843C231.581 212.006 233.309 211.685 234.854 210.919C236.399 210.152 237.699 208.97 238.608 207.504C239.517 206.039 240 204.349 240 202.624V203.2C239.992 205.826 239.244 208.396 237.844 210.617C236.443 212.839 234.446 214.621 232.08 215.76Z" fill="#007ACC"/>
<path d="M185.952 237.976C183.346 239.228 180.416 239.641 177.565 239.156C174.715 238.672 172.086 237.314 170.04 235.272C171.189 236.405 172.647 237.175 174.231 237.484C175.815 237.793 177.455 237.627 178.946 237.008C180.437 236.388 181.711 235.343 182.61 234.002C183.509 232.662 183.993 231.086 184 229.472V26.5275C184.001 24.9058 183.521 23.3202 182.621 21.9716C181.72 20.6229 180.439 19.5719 178.941 18.9516C177.443 18.3314 175.794 18.1698 174.204 18.4874C172.613 18.8049 171.153 19.5874 170.008 20.7355C172.052 18.6902 174.681 17.3307 177.532 16.8448C180.382 16.359 183.314 16.7709 185.92 18.0235L232.04 40.1995C234.42 41.3355 236.43 43.1213 237.838 45.3507C239.247 47.5802 239.996 50.1624 240 52.7995V203.2C240 205.835 239.257 208.416 237.854 210.647C236.451 212.877 234.447 214.666 232.072 215.808L185.952 237.976Z" fill="#1F9CF0"/>
</svg>
