<svg width="1615" height="1509" viewBox="0 0 1615 1509" fill="none" xmlns="http://www.w3.org/2000/svg">
<path d="M17.4255 1407.91V1500.77H38.8469C37.7237 1491 37.7237 1481.13 38.8469 1471.36C40.8818 1460.44 64.153 1432.25 63.4501 1408.05L17.4255 1407.91Z" fill="#EBEBEB"/>
<path d="M188.797 1407.91V1500.77H210.218C209.095 1491 209.095 1481.13 210.218 1471.36C212.253 1460.44 235.524 1432.25 234.821 1408.05L188.797 1407.91Z" fill="#E0E0E0"/>
<path d="M356.542 1407.91V1500.77H335.084C336.187 1491 336.187 1481.13 335.084 1471.36C333.012 1460.44 309.778 1432.25 310.444 1408.05L356.542 1407.91Z" fill="#EBEBEB"/>
<path d="M504.827 1407.91V1500.77H483.406C484.509 1491 484.509 1481.13 483.406 1471.36C481.371 1460.44 458.1 1432.25 458.802 1408.05L504.827 1407.91Z" fill="#E0E0E0"/>
<path d="M516.074 949.992H2.84875V1410.87H516.074V949.992Z" fill="#F5F5F5"/>
<path d="M377.816 949.992L381.626 1410.87H516.074V949.992H377.816Z" fill="#E0E0E0"/>
<path d="M355.432 983.919H25.9351V1101.2H355.432V983.919Z" fill="#EBEBEB"/>
<path d="M355.432 1124.55H25.9351V1241.83H355.432V1124.55Z" fill="#EBEBEB"/>
<path d="M355.432 1265.21H25.9351V1382.49H355.432V1265.21Z" fill="#EBEBEB"/>
<path d="M152.244 817.579L138.037 949.474H320.137L335.232 817.579H152.244Z" fill="#E0E0E0"/>
<path d="M159.754 827.051L145.917 942.445H310.259L323.541 827.051H159.754Z" fill="white"/>
<path d="M187.391 846.474L178.881 923.058H282.585L287.912 846.474H187.391Z" fill="#EBEBEB"/>
<path d="M328.72 874.37L366.346 949.992L320.137 949.474L328.72 874.37Z" fill="#EBEBEB"/>
<path d="M202.745 1048.66C202.752 1051.05 202.051 1053.39 200.73 1055.37C199.409 1057.36 197.528 1058.91 195.325 1059.83C193.122 1060.75 190.695 1061 188.353 1060.53C186.011 1060.07 183.859 1058.93 182.168 1057.24C180.478 1055.56 179.325 1053.41 178.857 1051.07C178.389 1048.73 178.625 1046.3 179.537 1044.09C180.449 1041.89 181.995 1040 183.979 1038.67C185.963 1037.35 188.297 1036.64 190.684 1036.64C193.876 1036.64 196.938 1037.91 199.199 1040.16C201.46 1042.41 202.735 1045.47 202.745 1048.66Z" fill="#E0E0E0"/>
<path d="M202.745 1190.73C202.745 1193.12 202.037 1195.45 200.712 1197.43C199.387 1199.42 197.503 1200.96 195.299 1201.88C193.095 1202.79 190.67 1203.03 188.331 1202.56C185.991 1202.1 183.842 1200.95 182.155 1199.26C180.468 1197.57 179.32 1195.43 178.854 1193.09C178.389 1190.75 178.628 1188.32 179.541 1186.12C180.453 1183.91 181.999 1182.03 183.983 1180.7C185.966 1179.38 188.298 1178.67 190.684 1178.67C192.269 1178.67 193.839 1178.98 195.305 1179.58C196.77 1180.18 198.102 1181.07 199.223 1182.19C200.344 1183.31 201.232 1184.65 201.837 1186.11C202.441 1187.58 202.75 1189.15 202.745 1190.73Z" fill="#E0E0E0"/>
<path d="M202.745 1332.77C202.745 1335.15 202.037 1337.48 200.712 1339.47C199.387 1341.45 197.503 1343 195.299 1343.91C193.095 1344.82 190.67 1345.06 188.331 1344.59C185.991 1344.13 183.842 1342.98 182.155 1341.29C180.468 1339.61 179.32 1337.46 178.854 1335.12C178.389 1332.78 178.628 1330.35 179.541 1328.15C180.453 1325.95 181.999 1324.06 183.983 1322.74C185.966 1321.41 188.298 1320.7 190.684 1320.7C193.882 1320.7 196.95 1321.97 199.212 1324.24C201.474 1326.5 202.745 1329.57 202.745 1332.77Z" fill="#E0E0E0"/>
<path d="M354.914 200.799L63.9312 197.987L72.0336 577.208L363.017 578.281L354.914 200.799Z" fill="#E0E0E0"/>
<path d="M336.157 217.706L81.4309 211.121L88.7934 555.047L343.445 558.192L336.157 217.706Z" fill="#FAFAFA"/>
<path d="M292.685 269.096L123.645 266.284L128.824 506.692L297.68 503.066L292.685 269.096Z" fill="#EBEBEB"/>
<path d="M128.824 506.692L295.053 379.569L123.645 266.284L128.824 506.692Z" fill="#F5F5F5"/>
<path d="M1607.08 3.12274L1351.77 0.643921L1358.91 333.36L1614.15 334.285L1607.08 3.12274Z" fill="#E0E0E0"/>
<path d="M1590.58 17.9956L1367.12 12.1871L1373.6 313.899L1596.98 316.637L1590.58 17.9956Z" fill="#FAFAFA"/>
<path d="M1552.44 63.0582L1404.19 60.5794L1408.71 271.463L1556.84 268.319L1552.44 63.0582Z" fill="#EBEBEB"/>
<path d="M1408.71 271.463L1554.55 159.954L1404.19 60.5794L1408.71 271.463Z" fill="#F5F5F5"/>
<path d="M1321.1 1254C1320.02 1257.25 1358.09 1401.99 1358.09 1401.99L1384.21 1396.55L1348.29 1254H1321.1Z" fill="#EBEBEB"/>
<path d="M1523.51 1233.32L1471.27 1401.99H1501.75L1551.81 1245.3L1523.51 1233.32Z" fill="#F5F5F5"/>
<path d="M1571.38 1207.2L1511.52 1401.99H1542.01L1599.69 1219.18L1571.38 1207.2Z" fill="#EBEBEB"/>
<path d="M1339.6 1390.04L1370.08 1495.59H1523.51L1551.81 1390.04H1339.6Z" fill="#E0E0E0"/>
<path d="M1418.73 1390.04C1418.6 1389.67 1418.49 1389.3 1418.4 1388.93L1417.59 1385.71C1416.88 1382.75 1415.92 1378.57 1414.66 1373.24L1404.12 1327.14L1369.67 1173.42L1370.6 1174.2H1343.74L1344.66 1173.01C1358.32 1233.5 1370.56 1287.7 1379.33 1326.85C1383.62 1346.34 1387.1 1362.07 1389.54 1373.09C1390.65 1378.46 1391.58 1382.64 1392.2 1385.63C1392.46 1387 1392.69 1388.08 1392.83 1388.89C1392.89 1389.27 1392.89 1389.66 1392.83 1390.04C1392.7 1389.67 1392.59 1389.3 1392.5 1388.93C1392.28 1388.11 1392.02 1387.04 1391.69 1385.71C1390.95 1382.75 1389.95 1378.57 1388.65 1373.24C1386.1 1362.14 1382.44 1346.57 1377.89 1327.14C1368.9 1288 1356.5 1233.87 1342.67 1173.42L1342.37 1172.27H1371.23L1371.41 1173.01C1384.69 1233.5 1396.64 1287.7 1405.27 1326.85C1409.45 1346.34 1412.85 1362.07 1415.22 1373.09C1416.33 1378.46 1417.18 1382.64 1417.81 1385.63L1418.44 1388.89C1418.6 1389.25 1418.7 1389.64 1418.73 1390.04Z" fill="#E0E0E0"/>
<path d="M1568.68 1499.99C1568.68 1500.51 1217.43 1500.95 784.341 1500.95C351.252 1500.95 0 1500.51 0 1499.99C0 1499.48 351.177 1499.03 784.526 1499.03C1217.87 1499.03 1568.68 1499.48 1568.68 1499.99Z" fill="#263238"/>
<path d="M1467.68 490.191C1466.83 489.833 1465.95 489.561 1465.05 489.377C1462.41 488.782 1459.67 488.782 1457.02 489.377C1452.74 490.479 1448.76 492.527 1445.37 495.37C1440.76 499.359 1436.77 504.01 1433.53 509.17C1425.95 520.787 1419.99 536.844 1413.03 555.565C1404.99 576.942 1398.02 598.712 1392.17 620.791C1391.08 622.827 1389.62 624.646 1387.88 626.155C1386.97 626.977 1385.91 627.594 1384.74 627.964C1383.58 628.334 1382.35 628.449 1381.14 628.301C1378.77 627.696 1376.62 626.41 1374.96 624.601C1373.23 623.011 1371.6 621.309 1369.97 619.57C1366.76 616.038 1363.34 612.702 1359.72 609.581C1356.23 606.221 1351.58 604.328 1346.74 604.29C1344.31 604.703 1342 605.622 1339.96 606.986C1337.91 608.35 1336.17 610.129 1334.86 612.207C1332.23 616.702 1330.82 621.801 1330.75 627.006C1330.12 637.588 1333.19 648.28 1335.04 659.342C1336.89 670.404 1339.23 681.762 1341.37 693.342C1342.48 699.151 1343.55 704.996 1344.66 710.916L1346.33 719.869C1346.84 721.433 1347 723.087 1346.82 724.721C1346.63 726.355 1346.1 727.93 1345.26 729.341C1344.7 730.083 1343.93 730.639 1343.05 730.937C1342.18 731.234 1341.23 731.258 1340.34 731.005C1338.74 730.541 1337.24 729.775 1335.93 728.749L1328.53 723.125C1323.5 719.32 1318.26 715.788 1312.85 712.544C1307.43 709.171 1301.51 706.674 1295.31 705.144C1292.24 704.423 1289.05 704.423 1285.99 705.144C1282.93 705.916 1280.24 707.72 1278.36 710.25C1274.8 715.741 1273.06 722.212 1273.37 728.749C1273.38 735.48 1274.04 742.195 1275.33 748.801C1278 762.381 1281.77 775.719 1286.62 788.684C1288.02 791.998 1289.1 795.443 1289.83 798.969C1290.01 799.968 1289.98 800.992 1289.75 801.979C1289.51 802.965 1289.07 803.893 1288.47 804.704C1288.14 805.089 1287.78 805.447 1287.39 805.777C1286.97 806.154 1286.48 806.443 1285.95 806.628C1284.82 806.797 1283.67 806.532 1282.73 805.888C1279.66 803.916 1276.79 801.635 1274.18 799.08L1266.27 791.681C1261.08 786.661 1255.45 782.129 1249.43 778.14C1246.44 776.17 1243.15 774.673 1239.7 773.7C1238.06 773.192 1236.34 773.037 1234.63 773.248C1232.93 773.458 1231.29 774.029 1229.82 774.921C1226.97 776.996 1224.98 780.053 1224.24 783.505C1223.35 787.036 1222.9 790.665 1222.91 794.308C1222.94 801.791 1223.87 809.244 1225.68 816.506C1229.34 831.265 1234.74 845.536 1241.77 859.016C1248.78 872.836 1256.78 886.129 1265.71 898.788C1270.18 905.211 1275 911.386 1280.14 917.286C1285.1 923.428 1290.13 929.533 1295.16 935.785V936.007L1294.27 935.637L1317.8 932.233C1325.6 931.304 1333.34 929.971 1341 928.238C1356.1 924.842 1370.93 920.379 1385.4 914.882C1399.67 909.605 1413.27 902.663 1425.91 894.2C1432.12 890.09 1437.8 885.232 1442.82 879.734C1445.29 877.041 1447.42 874.045 1449.14 870.818C1450.91 867.765 1451.49 864.17 1450.77 860.718C1450.3 859.065 1449.47 857.533 1448.36 856.225C1447.24 854.917 1445.85 853.863 1444.3 853.133C1441.08 851.562 1437.65 850.465 1434.12 849.878C1426.99 848.798 1419.77 848.365 1412.55 848.583H1401.75C1398.04 848.727 1394.32 848.492 1390.65 847.88C1389.51 847.734 1388.48 847.149 1387.77 846.252C1387.49 845.748 1387.33 845.194 1387.28 844.624C1387.23 844.12 1387.23 843.611 1387.28 843.107C1387.4 842.104 1387.71 841.134 1388.2 840.251C1388.68 839.369 1389.34 838.592 1390.13 837.964C1393.05 835.856 1396.16 834.035 1399.42 832.526C1411.73 826.195 1423.5 818.857 1434.6 810.587C1439.98 806.579 1444.94 802.043 1449.4 797.046C1454.02 792.426 1457.08 786.473 1458.13 780.027C1458.44 776.888 1457.66 773.738 1455.91 771.11C1454.15 768.503 1451.79 766.349 1449.03 764.821C1443.45 761.753 1437.42 759.592 1431.16 758.42C1424.98 757.174 1418.73 756.272 1412.44 755.72L1403.12 754.832C1401.46 754.736 1399.83 754.295 1398.35 753.537C1397.52 753.11 1396.84 752.444 1396.4 751.626C1395.96 750.807 1395.77 749.874 1395.87 748.949C1396.21 747.347 1396.88 745.833 1397.84 744.508C1398.81 743.182 1400.04 742.073 1401.45 741.254L1408.85 735.778L1423.1 724.938L1450.62 704.034C1459.47 697.116 1468.9 691.271 1475.56 682.983C1478.97 679.109 1481.31 674.418 1482.37 669.368C1482.8 666.941 1482.71 664.451 1482.11 662.06C1481.51 659.669 1480.41 657.431 1478.89 655.494C1477.27 653.709 1475.18 652.425 1472.86 651.794C1470.54 651.104 1468.14 650.707 1465.72 650.611C1460.95 650.485 1456.18 650.658 1451.44 651.129C1449.07 651.129 1446.7 651.461 1444.37 651.498C1441.94 651.68 1439.51 651.153 1437.38 649.982C1436.36 649.291 1435.5 648.388 1434.86 647.334C1434.22 646.28 1433.82 645.101 1433.68 643.877C1433.41 641.577 1433.54 639.247 1434.09 636.996C1444.68 616.933 1454.25 596.349 1462.76 575.321C1470.16 556.823 1476.56 540.914 1478.85 527.225C1479.97 521.25 1480.22 515.143 1479.59 509.096C1479.11 504.701 1477.63 500.473 1475.26 496.739C1473.83 494.454 1471.88 492.54 1469.57 491.153C1468.78 490.671 1467.95 490.262 1467.09 489.932C1467.98 490.173 1468.84 490.534 1469.64 491.005C1472.02 492.365 1474.05 494.266 1475.56 496.554C1477.98 500.319 1479.51 504.581 1480.04 509.022C1480.76 515.121 1480.57 521.292 1479.48 527.336C1477.26 541.062 1470.97 556.934 1463.61 575.432C1455.28 596.701 1445.87 617.532 1435.42 637.846C1434.91 639.927 1434.78 642.084 1435.05 644.21C1435.15 645.257 1435.47 646.27 1435.99 647.182C1436.52 648.095 1437.23 648.885 1438.08 649.501C1440.01 650.522 1442.19 650.972 1444.37 650.796C1446.67 650.796 1449 650.574 1451.36 650.389C1456.17 649.904 1461 649.719 1465.83 649.834C1468.34 649.933 1470.82 650.343 1473.23 651.055C1475.77 651.732 1478.08 653.102 1479.89 655.013C1481.5 657.087 1482.66 659.474 1483.3 662.022C1483.94 664.57 1484.04 667.224 1483.59 669.812C1482.51 675.113 1480.06 680.038 1476.48 684.093C1469.64 692.602 1460.13 698.522 1451.36 705.477L1423.87 726.418L1409.67 737.221L1402.45 742.734C1401.24 743.548 1400.13 744.519 1399.16 745.619C1398.27 746.676 1397.68 747.955 1397.46 749.319C1397.39 749.934 1397.52 750.554 1397.82 751.097C1398.11 751.639 1398.57 752.077 1399.12 752.353C1400.43 752.986 1401.85 753.351 1403.3 753.426L1412.63 754.314C1418.96 754.853 1425.26 755.755 1431.5 757.015C1437.97 758.208 1444.21 760.418 1449.99 763.563C1452.94 765.26 1455.47 767.599 1457.39 770.407C1459.32 773.35 1460.21 776.854 1459.91 780.36C1458.81 787.18 1455.62 793.49 1450.77 798.414C1446.18 803.497 1441.1 808.119 1435.6 812.214C1424.43 820.568 1412.58 827.992 1400.2 834.413C1397.05 835.84 1394.05 837.575 1391.24 839.592C1390.63 840.064 1390.12 840.654 1389.73 841.328C1389.35 842.001 1389.11 842.745 1389.02 843.514C1388.99 843.883 1388.99 844.255 1389.02 844.624C1389.02 844.92 1389.02 845.623 1389.28 845.586C1389.76 846.011 1390.35 846.282 1390.98 846.363C1394.46 846.924 1397.98 847.147 1401.49 847.029H1412.29C1419.62 846.762 1426.95 847.196 1434.2 848.324C1437.93 848.906 1441.55 850.066 1444.93 851.764C1446.71 852.618 1448.29 853.841 1449.57 855.352C1450.85 856.864 1451.78 858.63 1452.33 860.533C1453.17 864.42 1452.53 868.48 1450.55 871.928C1448.76 875.293 1446.55 878.414 1443.96 881.214C1438.85 886.835 1433.06 891.805 1426.72 896.013C1413.97 904.592 1400.23 911.61 1385.8 916.916C1371.23 922.477 1356.27 926.978 1341.04 930.383C1333.36 932.125 1325.59 933.459 1317.77 934.379L1294.2 937.82H1293.64L1293.31 937.376H1293.13L1278.11 918.877C1272.97 912.966 1268.14 906.791 1263.64 900.379C1254.64 887.626 1246.58 874.235 1239.52 860.311C1232.45 846.683 1227.02 832.264 1223.35 817.357C1221.48 809.992 1220.52 802.425 1220.5 794.826C1220.51 791.009 1220.98 787.207 1221.91 783.505C1222.78 779.628 1225.04 776.205 1228.27 773.885C1229.96 772.843 1231.84 772.173 1233.81 771.917C1235.77 771.662 1237.77 771.829 1239.67 772.405C1243.29 773.431 1246.73 775.003 1249.88 777.067C1255.99 781.111 1261.71 785.719 1266.97 790.83L1274.89 798.229C1277.41 800.674 1280.16 802.867 1283.1 804.778C1283.63 805.158 1284.26 805.365 1284.91 805.37C1284.91 805.37 1285.47 805.037 1285.73 804.852L1286.54 804.038C1286.99 803.414 1287.31 802.705 1287.47 801.954C1287.64 801.204 1287.65 800.427 1287.5 799.672C1286.8 796.284 1285.76 792.974 1284.4 789.794C1279.53 776.733 1275.74 763.295 1273.07 749.615C1271.76 742.9 1271.1 736.072 1271.11 729.23C1270.82 722.313 1272.71 715.479 1276.51 709.695C1278.62 706.887 1281.62 704.878 1285.02 703.998C1288.35 703.221 1291.8 703.221 1295.12 703.998C1301.48 705.501 1307.56 707.998 1313.14 711.397C1318.62 714.651 1323.91 718.221 1328.98 722.089L1336.38 727.713C1337.48 728.605 1338.73 729.294 1340.08 729.748C1340.67 729.922 1341.31 729.909 1341.9 729.711C1342.49 729.512 1343 729.138 1343.37 728.638C1344.1 727.536 1344.52 726.258 1344.59 724.938C1344.63 723.468 1344.47 721.999 1344.11 720.572C1343.55 717.575 1343.04 714.616 1342.48 711.656C1341.37 705.736 1340.3 699.854 1339.23 694.082C1337.12 682.465 1335.01 671.144 1332.97 660.082C1330.94 649.02 1328.09 638.29 1328.72 627.376C1328.83 621.968 1330.33 616.679 1333.08 612.022C1334.51 609.769 1336.4 607.845 1338.62 606.378C1340.85 604.911 1343.36 603.934 1346 603.513C1348.62 603.298 1351.24 603.823 1353.58 605.03C1355.85 606.131 1357.98 607.511 1359.91 609.137C1363.57 612.298 1367.03 615.684 1370.27 619.274C1371.84 621 1373.47 622.665 1375.15 624.269C1376.66 625.863 1378.58 627.004 1380.7 627.561C1381.75 627.678 1382.81 627.57 1383.81 627.245C1384.81 626.92 1385.73 626.384 1386.51 625.674C1388.13 624.277 1389.48 622.597 1390.5 620.717C1396.43 598.601 1403.49 576.805 1411.67 555.417C1418.7 536.733 1424.76 520.639 1432.5 509.022C1435.8 503.833 1439.87 499.169 1444.56 495.185C1448.01 492.325 1452.07 490.3 1456.43 489.266C1459.11 488.634 1461.9 488.634 1464.57 489.266C1465.65 489.395 1466.7 489.708 1467.68 490.191Z" fill="#263238"/>
<path d="M1448.26 540.507C1448.19 540.929 1448.07 541.341 1447.89 541.728L1446.63 545.205C1445.41 548.35 1443.71 552.827 1441.56 558.487C1437.05 570.142 1430.65 586.827 1422.73 607.361L1361.28 768.817C1337.38 831.712 1315.47 888.947 1299.27 930.087C1291.2 950.658 1284.47 967.27 1279.88 978.739C1277.59 984.362 1275.77 988.765 1274.48 991.873C1273.85 993.316 1273.41 994.426 1273.04 995.314L1272.48 996.423C1272.55 996.013 1272.67 995.615 1272.85 995.24C1273.15 994.352 1273.59 993.205 1274.11 991.762C1275.33 988.58 1277.03 984.14 1279.18 978.443C1283.69 966.789 1290.09 950.14 1298.01 929.606L1359.46 768.225C1383.36 705.144 1405.23 648.132 1421.47 606.991C1429.54 586.42 1436.27 569.772 1440.86 558.34C1443.15 552.716 1444.96 548.276 1446.26 545.169C1446.89 543.763 1447.33 542.616 1447.7 541.765L1448.26 540.507Z" fill="#263238"/>
<path d="M1450.25 668.332C1447.33 670.426 1444.24 672.27 1441 673.845L1418.36 686.424C1409.48 691.344 1401.42 695.747 1395.46 698.744C1392.33 700.521 1389.02 701.96 1385.58 703.036C1388.53 700.979 1391.62 699.137 1394.83 697.523L1417.4 684.759C1426.28 679.838 1434.38 675.547 1440.38 672.624C1443.52 670.881 1446.83 669.444 1450.25 668.332Z" fill="#263238"/>
<path d="M1382.59 700.668C1382.1 700.89 1373.3 684.093 1362.94 663.153C1352.58 642.212 1344.44 625.046 1345 624.787C1345.55 624.528 1354.28 641.362 1364.68 662.302C1375.08 683.242 1383.07 700.409 1382.59 700.668Z" fill="#263238"/>
<path d="M1350.25 799.192C1347.29 797.007 1344.57 794.527 1342.11 791.792C1337.3 786.983 1331.01 780.138 1324.17 772.221C1317.32 764.303 1311.77 756.83 1307.85 751.28C1305.55 748.416 1303.55 745.315 1301.89 742.031C1304.44 744.672 1306.79 747.491 1308.92 750.466C1313.14 755.794 1318.95 763.082 1325.65 770.963C1332.34 778.843 1338.56 785.762 1343.07 790.83C1345.67 793.433 1348.07 796.228 1350.25 799.192Z" fill="#263238"/>
<path d="M1417.92 783.283C1414.76 784.546 1411.49 785.512 1408.15 786.168C1402.08 787.685 1393.65 789.646 1384.32 791.718C1375 793.79 1366.49 795.418 1360.35 796.75C1357.05 797.581 1353.68 798.089 1350.29 798.267C1353.45 797.014 1356.72 796.061 1360.05 795.418C1366.12 793.901 1374.56 791.718 1383.92 789.831C1393.28 787.944 1401.71 786.131 1407.85 784.837C1411.15 784.01 1414.52 783.49 1417.92 783.283Z" fill="#263238"/>
<path d="M1400.42 873.926C1396.31 875.348 1392.11 876.473 1387.84 877.293C1380 879.106 1369.34 881.51 1357.21 884.026C1345.07 886.542 1334.3 888.762 1326.42 890.242C1322.2 891.25 1317.91 891.93 1313.59 892.276C1317.69 890.842 1321.89 889.716 1326.17 888.91C1333.97 887.097 1344.66 884.692 1356.8 882.176C1368.93 879.66 1379.66 877.441 1387.54 875.961C1391.78 874.951 1396.08 874.271 1400.42 873.926Z" fill="#263238"/>
<path d="M1315.51 891.24C1314.48 890.526 1313.55 889.681 1312.74 888.725C1311.03 887.023 1308.67 884.507 1305.74 881.325C1299.93 874.962 1292.13 865.971 1283.91 855.723C1275.7 845.475 1268.63 835.856 1263.71 828.789C1261.24 825.274 1259.31 822.389 1258.02 820.354C1257.24 819.351 1256.62 818.242 1256.17 817.061C1257.09 817.907 1257.91 818.864 1258.61 819.91L1264.82 828.012C1270 834.857 1277.22 844.291 1285.43 854.502C1293.64 864.713 1301.23 873.852 1306.78 880.4C1309.92 883.818 1312.84 887.439 1315.51 891.24Z" fill="#263238"/>
<path d="M1278.51 1139.08C1214.29 1087.29 1204.96 998.754 1213.03 920.283C1214.4 907.186 1213.88 893.238 1220.91 882.139C1227.94 871.04 1243.11 864.195 1254.46 870.522C1263.9 875.776 1267.34 887.43 1272.15 897.16C1278.59 910.167 1288.56 921.093 1300.93 928.682C1309 933.602 1319.17 936.969 1327.72 932.973C1339.48 927.498 1341.89 911.959 1342.7 898.899L1347.25 825.866C1348.07 812.769 1348.96 799.45 1353.88 787.352C1358.8 775.254 1368.67 764.34 1381.22 761.676C1393.76 759.012 1408.74 767.3 1410.48 780.175C1410.6 785.612 1410.36 791.05 1409.74 796.454C1409.74 801.892 1411.85 808.071 1416.88 809.92C1421.91 811.77 1427.46 808.478 1431.68 804.926C1446.07 792.68 1456.36 776.327 1466.09 760.011C1475.82 743.696 1485.25 726.973 1498.5 713.432C1511.74 699.891 1529.39 689.643 1548.19 689.865C1566.98 690.087 1586.07 702.999 1589.55 721.682C1593.03 740.366 1581 758.383 1568.27 772.479C1549.38 793.436 1527.55 811.543 1503.46 826.236C1498.75 828.357 1494.86 831.938 1492.36 836.448C1488.92 844.957 1496.57 854.169 1504.97 857.647C1514.48 861.532 1525.14 861.347 1535.24 863.16C1545.34 864.972 1556.07 870.3 1559.25 880.178C1563.69 893.904 1551.55 907.112 1539.93 915.548C1516.78 932.376 1490.92 945.115 1463.46 953.211C1453.58 956.059 1443.26 958.427 1435.05 964.643C1426.83 970.858 1421.36 982.29 1425.43 991.799C1429.5 1001.31 1441.3 1005.12 1451.33 1003.93C1461.35 1002.75 1470.9 997.903 1480.74 994.944C1499.24 989.394 1522.25 992.243 1532.54 1008.52C1539.38 1019.25 1539.08 1033.49 1534.42 1045.52C1529.22 1057.19 1521.74 1067.71 1512.41 1076.45C1481.63 1108.67 1442.84 1132.14 1400.01 1144.45C1357.39 1156.03 1318.62 1157.29 1278.22 1139.31" fill="#FF725E"/>
<g opacity="0.1">
<path d="M1278.51 1139.08C1214.29 1087.29 1204.96 998.754 1213.03 920.283C1214.4 907.186 1213.88 893.238 1220.91 882.139C1227.94 871.04 1243.11 864.195 1254.46 870.522C1263.9 875.776 1267.34 887.43 1272.15 897.16C1278.59 910.167 1288.56 921.093 1300.93 928.682C1309 933.602 1319.17 936.969 1327.72 932.973C1339.48 927.498 1341.89 911.959 1342.7 898.899L1347.25 825.866C1348.07 812.769 1348.96 799.45 1353.88 787.352C1358.8 775.254 1368.67 764.34 1381.22 761.676C1393.76 759.012 1408.74 767.3 1410.48 780.175C1410.6 785.612 1410.36 791.05 1409.74 796.454C1409.74 801.892 1411.85 808.071 1416.88 809.92C1421.91 811.77 1427.46 808.478 1431.68 804.926C1446.07 792.68 1456.36 776.327 1466.09 760.011C1475.82 743.696 1485.25 726.973 1498.5 713.432C1511.74 699.891 1529.39 689.643 1548.19 689.865C1566.98 690.087 1586.07 702.999 1589.55 721.682C1593.03 740.366 1581 758.383 1568.27 772.479C1549.38 793.436 1527.55 811.543 1503.46 826.236C1498.75 828.357 1494.86 831.938 1492.36 836.448C1488.92 844.957 1496.57 854.169 1504.97 857.647C1514.48 861.532 1525.14 861.347 1535.24 863.16C1545.34 864.972 1556.07 870.3 1559.25 880.178C1563.69 893.904 1551.55 907.112 1539.93 915.548C1516.78 932.376 1490.92 945.115 1463.46 953.211C1453.58 956.059 1443.26 958.427 1435.05 964.643C1426.83 970.858 1421.36 982.29 1425.43 991.799C1429.5 1001.31 1441.3 1005.12 1451.33 1003.93C1461.35 1002.75 1470.9 997.903 1480.74 994.944C1499.24 989.394 1522.25 992.243 1532.54 1008.52C1539.38 1019.25 1539.08 1033.49 1534.42 1045.52C1529.22 1057.19 1521.74 1067.71 1512.41 1076.45C1481.63 1108.67 1442.84 1132.14 1400.01 1144.45C1357.39 1156.03 1318.62 1157.29 1278.22 1139.31" fill="black"/>
</g>
<path d="M1273.48 1197.39C1279.65 1161.18 1289.26 1125.63 1302.19 1091.25C1318.19 1049.3 1336.59 1008.3 1357.28 968.454L1373.37 937.006C1378.7 926.684 1383.95 916.473 1389.73 906.779C1400.84 888.225 1412.95 870.291 1426.02 853.059C1438.41 836.522 1450.73 821.279 1462.39 807.109C1474.04 792.939 1485.22 779.99 1495.87 768.595C1512.61 750.531 1530.74 733.818 1550.11 718.611C1556.95 713.247 1562.39 709.251 1566.13 706.587L1570.38 703.591C1570.85 703.234 1571.35 702.912 1571.86 702.629C1571.48 703.071 1571.03 703.457 1570.53 703.776L1566.42 706.994C1562.73 709.769 1557.43 713.876 1550.7 719.388C1531.61 734.819 1513.7 751.664 1497.13 769.779C1486.59 781.211 1475.52 794.234 1463.83 808.404C1452.14 822.574 1439.97 838.001 1427.69 854.428C1414.69 871.602 1402.66 889.487 1391.65 908C1385.92 917.656 1380.55 927.794 1375.41 938.116L1359.31 969.564C1338.68 1009.33 1320.26 1050.22 1304.15 1092.02C1291.18 1126.26 1281.43 1161.64 1275.04 1197.69" fill="#263238"/>
<path d="M1390.43 906.668C1389.91 904.823 1389.6 902.924 1389.5 901.008C1389.1 897.308 1388.62 892.054 1388.14 885.469C1387.21 872.372 1386.51 854.169 1385.8 834.154C1385.1 814.138 1384.14 795.973 1382.99 782.876C1382.44 776.364 1381.96 771.074 1381.55 767.411C1381.22 765.519 1381.11 763.594 1381.22 761.676C1381.82 763.492 1382.24 765.364 1382.47 767.263C1383.14 770.963 1383.92 776.179 1384.69 782.728C1386.29 795.788 1387.51 813.953 1388.39 834.043C1389.28 854.132 1389.62 871.706 1390.02 885.395C1390.28 891.574 1390.47 896.753 1390.65 900.934C1390.76 902.848 1390.69 904.768 1390.43 906.668Z" fill="#263238"/>
<path d="M1560.47 886.801C1558.23 887.151 1555.96 887.275 1553.7 887.171C1549.37 887.171 1543.12 887.171 1535.2 887.689C1519.73 888.318 1498.2 889.872 1474.86 892.684C1451.51 895.495 1430.2 898.936 1414.96 901.896C1407.34 903.302 1401.2 904.634 1396.94 905.596C1394.76 906.173 1392.53 906.556 1390.28 906.742C1392.36 905.864 1394.52 905.171 1396.72 904.671C1400.9 903.487 1407 901.933 1414.63 900.268C1429.79 896.901 1450.99 893.164 1474.56 890.316C1494.68 887.861 1514.9 886.441 1535.16 886.061C1542.93 886.061 1549.22 886.061 1553.66 886.283C1555.94 886.254 1558.22 886.427 1560.47 886.801Z" fill="#263238"/>
<path d="M1304.48 1088.21C1304.05 1087.57 1303.71 1086.85 1303.49 1086.1L1301.01 1079.82C1298.9 1074.38 1296.05 1066.39 1292.68 1056.51C1285.91 1036.71 1277.4 1009.08 1268.41 978.48C1259.42 947.883 1251.21 920.172 1244.85 900.268C1241.74 890.575 1239.15 882.62 1237.26 876.701L1235.23 870.3C1234.94 869.564 1234.75 868.793 1234.67 868.006C1235.09 868.664 1235.43 869.373 1235.67 870.115C1236.34 871.817 1237.15 873.815 1238.11 876.405C1240.22 881.843 1243.07 889.835 1246.47 899.713C1253.24 919.506 1261.75 947.143 1270.71 977.777C1279.66 1008.41 1287.95 1036.05 1294.31 1055.95C1297.42 1065.65 1299.97 1073.6 1301.71 1079.52L1303.74 1085.92C1304.1 1086.65 1304.35 1087.42 1304.48 1088.21Z" fill="#263238"/>
<path d="M1532.54 1031.61C1531.82 1031.99 1531.04 1032.25 1530.24 1032.38L1523.62 1034.12L1499.2 1040.23C1478.56 1045.37 1450.18 1052.81 1418.81 1061.09C1387.43 1069.38 1358.94 1076.56 1338.19 1081.29C1327.83 1083.66 1319.43 1085.51 1313.59 1086.66L1306.85 1087.95C1306.08 1088.15 1305.28 1088.24 1304.48 1088.21C1305.2 1087.87 1305.96 1087.62 1306.74 1087.47L1313.4 1085.73L1337.82 1079.63C1358.43 1074.49 1386.84 1067.01 1418.21 1058.73C1449.59 1050.44 1478.08 1043.26 1498.79 1038.53C1509.15 1036.16 1517.59 1034.35 1523.4 1033.2L1530.13 1031.9C1530.92 1031.71 1531.73 1031.61 1532.54 1031.61Z" fill="#263238"/>
<path d="M1293.46 117.777H396.24V1347.19H1293.46V117.777Z" fill="#455A64"/>
<path d="M1257.98 1274.09H1091.82H470.974V167.464H1257.98V1136.42V1274.09Z" fill="#E0E0E0"/>
<path d="M1245.55 1253.55H1080.87H465.61V152.85H1245.55V1116.63V1253.55Z" fill="#EBEBEB"/>
<path d="M1161.75 1167.91L1071.92 1241.05H451.07V155.625H1238.07V1106.01L1161.75 1167.91Z" fill="#FAFAFA"/>
<path d="M1161.75 1167.79C1161.75 1167.79 1163.34 1166.43 1166.56 1163.8L1180.95 1152.03L1237.89 1105.68V1105.9C1237.89 949.77 1237.59 602.736 1237.33 155.514L1238.19 156.402H458.025H451.181L452.143 155.44C452.143 563.519 452.143 939.966 451.921 1240.86L451.181 1240.09L1072.03 1240.53H1071.81L1139.29 1185.81L1156.2 1172.16C1159.9 1169.13 1161.86 1167.65 1161.86 1167.65L1156.31 1172.27L1139.4 1186.29L1072.14 1241.27L451.07 1241.79H450.293V1241.01C450.293 940.114 450.293 563.667 450.108 155.588V154.626H457.914H1238.07H1238.96V155.477C1238.7 602.847 1238.48 949.733 1238.41 1105.86L1181.25 1152L1166.78 1164.09L1161.75 1167.79Z" fill="#263238"/>
<path d="M738.39 79.7808H953.529C967.413 79.7808 980.729 85.2963 990.547 95.114C1000.36 104.932 1005.88 118.247 1005.88 132.132V190.18H683.782V134.352C683.792 119.875 689.55 105.995 699.79 95.762C710.029 85.529 723.914 79.7808 738.39 79.7808Z" fill="#FF725E"/>
<path d="M762.697 79.7808L750.932 20.2153H936.399L926.077 79.7808H762.697Z" fill="#FF725E"/>
<path d="M665.95 461.148H533.389V328.55H665.95V461.148ZM537.088 457.448H662.25V332.25H537.088V457.448Z" fill="#FF725E"/>
<path d="M1134.52 360.59C1134.52 361.108 1042.21 361.552 928.408 361.552C814.604 361.552 722.259 361.108 722.259 360.59C722.259 360.072 814.53 359.628 928.408 359.628C1042.29 359.628 1134.52 360.035 1134.52 360.59Z" fill="#263238"/>
<path d="M1134.52 388.115C1134.52 388.67 1042.21 389.077 928.408 389.077C814.604 389.077 722.259 388.67 722.259 388.115C722.259 387.56 814.53 387.153 928.408 387.153C1042.29 387.153 1134.52 387.597 1134.52 388.115Z" fill="#263238"/>
<path d="M1134.52 415.678C1134.52 416.196 1042.21 416.64 928.408 416.64C814.604 416.64 722.259 416.196 722.259 415.678C722.259 415.16 814.53 414.716 928.408 414.716C1042.29 414.716 1134.52 415.16 1134.52 415.678Z" fill="#263238"/>
<path d="M1134.52 443.242C1134.52 443.759 1042.21 444.203 928.408 444.203C814.604 444.203 722.259 443.759 722.259 443.242C722.259 442.724 814.53 442.28 928.408 442.28C1042.29 442.28 1134.52 442.65 1134.52 443.242Z" fill="#263238"/>
<path d="M665.95 665.483H533.389V532.885H665.95V665.483ZM537.088 661.784H662.25V536.585H537.088V661.784Z" fill="#FF725E"/>
<path d="M559.731 601.922L577.341 583.017L606.68 606.473L673.83 541.284L689.924 560.263L605.385 643.655L559.731 601.922Z" fill="#FF725E"/>
<path d="M1134.52 564.925C1134.52 565.443 1042.21 565.887 928.408 565.887C814.604 565.887 722.259 565.443 722.259 564.925C722.259 564.407 814.53 563.963 928.408 563.963C1042.29 563.963 1134.52 564.407 1134.52 564.925Z" fill="#263238"/>
<path d="M1134.52 592.488C1134.52 593.006 1042.21 593.45 928.408 593.45C814.604 593.45 722.259 593.006 722.259 592.488C722.259 591.97 814.53 591.526 928.408 591.526C1042.29 591.526 1134.52 591.933 1134.52 592.488Z" fill="#263238"/>
<path d="M1134.52 620.014C1134.52 620.569 1042.21 620.976 928.408 620.976C814.604 620.976 722.259 620.569 722.259 620.014C722.259 619.459 814.53 619.052 928.408 619.052C1042.29 619.052 1134.52 619.496 1134.52 620.014Z" fill="#263238"/>
<path d="M1134.52 647.577C1134.52 648.095 1042.21 648.539 928.408 648.539C814.604 648.539 722.259 648.095 722.259 647.577C722.259 647.059 814.53 646.615 928.408 646.615C1042.29 646.615 1134.52 647.059 1134.52 647.577Z" fill="#263238"/>
<path d="M665.95 863.233H533.389V730.635H665.95V863.233ZM537.088 859.534H662.25V734.335H537.088V859.534Z" fill="#FF725E"/>
<path d="M559.731 799.672L577.341 780.767L606.68 804.223L673.83 739.034L689.924 758.014L605.385 841.405L559.731 799.672Z" fill="#FF725E"/>
<path d="M1134.52 762.675C1134.52 763.193 1042.21 763.637 928.408 763.637C814.604 763.637 722.259 763.193 722.259 762.675C722.259 762.157 814.53 761.713 928.408 761.713C1042.29 761.713 1134.52 762.12 1134.52 762.675Z" fill="#263238"/>
<path d="M1134.52 790.201C1134.52 790.756 1042.21 791.163 928.408 791.163C814.604 791.163 722.259 790.756 722.259 790.201C722.259 789.646 814.53 789.239 928.408 789.239C1042.29 789.239 1134.52 789.683 1134.52 790.201Z" fill="#263238"/>
<path d="M1134.52 817.764C1134.52 818.319 1042.21 818.726 928.408 818.726C814.604 818.726 722.259 818.319 722.259 817.764C722.259 817.209 814.53 816.802 928.408 816.802C1042.29 816.802 1134.52 817.246 1134.52 817.764Z" fill="#263238"/>
<path d="M1134.52 845.327C1134.52 845.845 1042.21 846.289 928.408 846.289C814.604 846.289 722.259 845.845 722.259 845.327C722.259 844.809 814.53 844.365 928.408 844.365C1042.29 844.365 1134.52 844.809 1134.52 845.327Z" fill="#263238"/>
<path d="M665.95 1054.18H533.389V921.578H665.95V1054.18ZM537.088 1050.48H662.25V925.278H537.088V1050.48Z" fill="#FF725E"/>
<path d="M559.731 990.615L577.341 971.71L606.68 995.166L673.83 929.977L689.924 948.919L605.385 1032.31L559.731 990.615Z" fill="#FF725E"/>
<path d="M1134.52 953.581C1134.52 954.136 1042.21 954.543 928.408 954.543C814.604 954.543 722.259 954.136 722.259 953.581C722.259 953.026 814.53 952.619 928.408 952.619C1042.29 952.619 1134.52 953.211 1134.52 953.581Z" fill="#263238"/>
<path d="M1134.52 981.144C1134.52 981.662 1042.21 982.106 928.408 982.106C814.604 982.106 722.259 981.662 722.259 981.144C722.259 980.626 814.53 980.182 928.408 980.182C1042.29 980.182 1134.52 980.626 1134.52 981.144Z" fill="#263238"/>
<path d="M1134.52 1008.71C1134.52 1009.22 1042.21 1009.67 928.408 1009.67C814.604 1009.67 722.259 1009.22 722.259 1008.71C722.259 1008.19 814.53 1007.74 928.408 1007.74C1042.29 1007.74 1134.52 1008.15 1134.52 1008.71Z" fill="#263238"/>
<path d="M1134.52 1036.23C1134.52 1036.79 1042.21 1037.19 928.408 1037.19C814.604 1037.19 722.259 1036.79 722.259 1036.23C722.259 1035.68 814.53 1035.27 928.408 1035.27C1042.29 1035.27 1134.52 1035.71 1134.52 1036.23Z" fill="#263238"/>
<path d="M1096.6 1061.35L1010.32 1240.05H1071.92L1096.6 1061.35Z" fill="#E0E0E0"/>
<path d="M1071.92 1241.05L1096.6 1062.35L1238.07 1106.01L1071.92 1241.05Z" fill="#FAFAFA"/>
<path d="M1071.92 1241.05L1119.5 1201.87L1237.48 1105.27L1237.82 1106.9L1183.17 1090.1L1096.49 1063.2L1097.63 1062.46C1090.23 1114.26 1083.91 1158.84 1079.43 1190.44C1074.95 1221.18 1072.66 1237.05 1072.03 1241.05C1072.02 1240.78 1072.02 1240.51 1072.03 1240.24L1072.36 1237.79C1072.66 1235.46 1073.07 1232.21 1073.62 1228.06C1074.77 1219.37 1076.4 1206.9 1078.47 1191.07C1082.76 1159.21 1088.75 1114.41 1095.75 1062.06V1061.02L1096.75 1061.32L1183.65 1088.1L1238.26 1104.97L1239.96 1105.49L1238.59 1106.6C1190.83 1145.12 1149.06 1178.78 1119.17 1202.79L1084.28 1230.8L1074.95 1238.2L1072.59 1240.09L1071.92 1241.05Z" fill="#263238"/>
<g opacity="0.3">
<path d="M923.561 20.2154L913.35 79.7809H926.077L936.399 20.2154H920.158" fill="black"/>
</g>
<path d="M380.331 648.428C384.792 648.765 389.275 648.199 393.512 646.765C397.749 645.331 401.654 643.057 404.993 640.081C408.332 637.104 411.037 633.485 412.947 629.44C414.857 625.395 415.932 621.006 416.108 616.537C416.811 598.408 417.44 580.094 417.44 580.094C417.44 580.094 444.892 577.542 447.037 550.497C449.183 523.452 448.11 460.63 448.11 460.63C433.062 453.038 416.258 449.604 399.437 450.684C382.617 451.764 366.39 457.318 352.436 466.772L354.1 562.373V613.836C354.137 630.929 363.128 647.133 380.331 648.428Z" fill="#FFBE9D"/>
<path d="M419.807 517.199C417.802 514.317 414.784 512.297 411.355 511.543C407.926 510.789 404.338 511.355 401.309 513.13C398.234 515.266 396.018 518.425 395.056 522.043C394.093 525.662 394.448 529.505 396.055 532.886C397.456 535.395 399.363 537.586 401.656 539.318C403.949 541.051 406.578 542.287 409.374 542.949C411.854 543.489 414.052 544.913 415.557 546.956C417.062 548.999 417.771 551.521 417.551 554.048C416.412 561.189 413.075 567.798 408.005 572.954C399.625 581.482 388.47 586.731 376.558 587.753C364.978 589.122 351.733 586.717 344.999 577.209C340.078 570.29 339.745 561.226 339.56 552.754C339.141 532.726 338.722 512.698 338.303 492.67C337.867 485.451 338.327 478.206 339.671 471.101C341.088 463.934 345.158 457.565 351.067 453.268C357.689 448.902 366.05 448.532 373.561 446.128C382.995 443.057 390.987 436.841 399.792 432.328C408.597 427.814 419.363 425.113 428.206 429.553C434.569 432.735 438.824 439.061 444.965 442.576C453.771 447.57 465.721 446.276 469.976 459.373C471.473 463.851 471.473 468.694 469.976 473.173C464.019 490.746 442.265 497.85 426.578 490.265C426.282 493.225 429.205 499.848 426.06 509.245C425.061 512.279 424.728 516.829 420.029 516.94" fill="#263238"/>
<path d="M344.814 461.149C349.126 452.556 352.071 443.344 353.545 433.845C354.243 429.087 353.835 424.232 352.353 419.657C350.87 415.082 348.354 410.911 344.999 407.466C340.046 403.165 333.647 400.904 327.092 401.139C320.866 401.494 314.901 403.763 310.013 407.637C305.126 411.512 301.555 416.801 299.788 422.782C298.264 428.813 298.5 435.154 300.467 441.055C302.434 446.956 306.05 452.17 310.887 456.08C315.834 459.879 321.696 462.304 327.881 463.11C334.066 463.915 340.354 463.073 346.109 460.668" fill="#263238"/>
<path d="M350.142 451.344C349.942 454.666 348.512 457.794 346.132 460.119C343.752 462.444 340.592 463.801 337.267 463.923C337.267 463.368 341.262 462.295 344.666 458.744C348.07 455.192 349.624 451.196 350.142 451.344Z" fill="#FF725E"/>
<path d="M341.225 458.004C339.105 460.226 336.598 462.044 333.826 463.368C330.864 465.057 327.539 466.008 324.133 466.143C321.969 466.26 319.81 465.857 317.834 464.969C315.858 464.081 314.123 462.733 312.774 461.037C311.581 459.253 310.785 457.232 310.44 455.113C310.095 452.994 310.21 450.825 310.777 448.754C311.635 445.467 313.187 442.402 315.327 439.764C317.099 437.263 319.274 435.075 321.765 433.289C320.118 435.847 318.34 438.316 316.437 440.689C314.58 443.265 313.248 446.182 312.516 449.272C312.054 451.094 311.977 452.993 312.289 454.846C312.601 456.7 313.295 458.468 314.328 460.038C315.511 461.483 317.011 462.635 318.711 463.405C320.412 464.175 322.267 464.542 324.133 464.478C327.294 464.427 330.404 463.669 333.234 462.258C338.044 459.779 341.04 457.708 341.225 458.004Z" fill="#263238"/>
<path d="M295.053 488.674C295.61 489.614 296.046 490.621 296.348 491.671C297.307 494.443 298.665 497.061 300.38 499.441C301.521 501.162 303.119 502.53 304.994 503.393C306.87 504.256 308.949 504.578 310.998 504.324C313.451 503.632 315.683 502.317 317.478 500.509C319.274 498.701 320.572 496.459 321.247 494.002C322.576 488.828 323.503 483.558 324.021 478.241C324.544 473.681 326.339 469.361 329.201 465.773C331.251 463.413 334.043 461.821 337.118 461.259C338.231 460.987 339.401 461.091 340.448 461.555C340.448 461.555 339.227 461.555 337.266 461.999C334.488 462.768 332.026 464.4 330.237 466.661C327.716 470.138 326.17 474.225 325.76 478.5C325.333 483.946 324.43 489.343 323.059 494.631C322.296 497.406 320.807 499.928 318.746 501.938C316.685 503.947 314.125 505.371 311.331 506.063C308.776 506.471 306.159 505.974 303.932 504.657C302.084 503.536 300.495 502.035 299.27 500.254C297.574 497.71 296.323 494.895 295.571 491.93C295.191 490.888 295.015 489.783 295.053 488.674Z" fill="#263238"/>
<path d="M281.697 716.91C281.697 716.91 267.823 818.356 281.697 831.231C295.571 844.106 308.853 839.815 308.853 839.815L335.232 817.617L340.411 716.762L281.697 716.91Z" fill="#FFBE9D"/>
<path d="M568.24 432.143L585.851 413.237L615.19 436.693L682.339 371.504L698.433 390.484L613.895 473.875L568.24 432.143Z" fill="#FF725E"/>
<path d="M650.966 437.285L625.438 453.675C624.291 443.575 616.596 433.586 616.966 438.654C617.336 443.723 616.966 470.028 616.966 470.028L571.496 565.814C565.317 580.982 552.775 590.528 543.415 592.785L500.831 605.438L517.443 661.636L576.639 642.028C584.194 639.524 591.058 635.285 596.68 629.651C602.302 624.016 606.525 617.143 609.011 609.581L649.708 485.567C652.411 477.578 654.586 469.422 656.22 461.148C657.995 450.752 650.966 437.285 650.966 437.285Z" fill="#FFBE9D"/>
<path d="M441.82 1484.94L441.155 1456.56L387.953 1457.41L388.434 1498.96L391.763 1499.14C406.562 1499.7 466.535 1501.03 476.302 1497.92C487.179 1494.41 441.82 1484.94 441.82 1484.94Z" fill="#FF725E"/>
<g opacity="0.5">
<path d="M407.746 1498.25C406.85 1493.82 404.362 1489.88 400.754 1487.16C397.2 1484.39 392.734 1483.07 388.249 1483.46L388.471 1498.25H407.746Z" fill="white"/>
</g>
<g opacity="0.4">
<path d="M463.834 1490.37C463.834 1490.37 479.743 1494.67 477.819 1497.33C475.895 1499.99 415.146 1501.03 388.286 1498.96V1497.77L459.172 1497.29C459.172 1497.29 460.911 1490.56 463.834 1490.37Z" fill="white"/>
</g>
<path d="M387.657 1497.74H388.582H391.209L400.902 1498C409.078 1498.18 420.362 1498.25 432.83 1498C445.298 1497.74 456.62 1497.4 464.759 1497L474.452 1496.44L477.079 1496.26H477.967H477.042H474.415L464.759 1496.63C456.583 1496.89 445.298 1497.26 432.83 1497.44C420.362 1497.63 409.078 1497.44 400.902 1497.44H391.246H387.546L387.657 1497.74Z" fill="#263238"/>
<path d="M459.394 1498.11C459.779 1496.5 460.363 1494.94 461.133 1493.48C462.065 1492.13 463.144 1490.89 464.352 1489.78C462.778 1490.52 461.462 1491.72 460.578 1493.22C459.694 1494.71 459.281 1496.44 459.394 1498.18V1498.11Z" fill="#263238"/>
<path d="M443.559 1490.37C443.559 1490.37 444.447 1489.56 445.224 1488.34C446.001 1487.12 446.445 1486.01 446.297 1485.93C446.149 1485.86 445.409 1486.75 444.669 1487.97C443.929 1489.19 443.411 1490.3 443.559 1490.37Z" fill="#263238"/>
<path d="M439.231 1488.19C439.231 1488.19 440.156 1487.75 441.081 1486.9C442.006 1486.05 442.597 1485.27 442.486 1485.16C442.375 1485.05 441.525 1485.6 440.637 1486.42C439.749 1487.23 439.083 1488.04 439.231 1488.19Z" fill="#263238"/>
<path d="M436.419 1483.2C437.306 1483.52 438.259 1483.62 439.194 1483.49C440.132 1483.6 441.083 1483.49 441.969 1483.16C441.073 1482.88 440.129 1482.77 439.194 1482.86C438.256 1482.76 437.306 1482.87 436.419 1483.2Z" fill="#263238"/>
<path d="M435.42 1479.68C436.354 1480.25 437.432 1480.55 438.528 1480.53C439.625 1480.69 440.744 1480.52 441.747 1480.05C440.688 1479.95 439.623 1479.95 438.565 1480.05C437.53 1479.83 436.477 1479.71 435.42 1479.68Z" fill="#263238"/>
<path d="M445.335 1485.71C446.461 1485.92 447.614 1485.92 448.739 1485.71C449.996 1485.55 451.235 1485.26 452.439 1484.86C453.158 1484.64 453.852 1484.34 454.511 1483.97C454.719 1483.86 454.902 1483.71 455.049 1483.53C455.195 1483.34 455.302 1483.13 455.362 1482.9C455.405 1482.64 455.376 1482.38 455.278 1482.14C455.18 1481.9 455.017 1481.69 454.807 1481.53C453.489 1480.92 452.001 1480.78 450.592 1481.14C449.184 1481.5 447.942 1482.33 447.074 1483.49C446.576 1484.18 446.212 1484.96 446.001 1485.79C445.936 1486.09 445.936 1486.41 446.001 1486.71C446.355 1485.67 446.867 1484.68 447.518 1483.79C448.281 1482.88 449.28 1482.2 450.404 1481.83C451.749 1481.36 453.224 1481.44 454.511 1482.05C455.029 1482.46 454.844 1483.09 454.252 1483.46C453.639 1483.8 452.995 1484.08 452.328 1484.31C451.122 1484.72 449.885 1485.05 448.628 1485.27C446.593 1485.6 445.335 1485.6 445.335 1485.71Z" fill="#263238"/>
<path d="M446.186 1485.97C446.603 1485.26 446.735 1484.41 446.556 1483.6C446.417 1482.71 446.075 1481.86 445.557 1481.12C445.265 1480.62 444.85 1480.21 444.352 1479.91C443.854 1479.61 443.288 1479.44 442.709 1479.42C442.536 1479.46 442.371 1479.53 442.225 1479.63C442.079 1479.73 441.954 1479.85 441.858 1480C441.761 1480.15 441.695 1480.32 441.663 1480.49C441.632 1480.66 441.635 1480.84 441.673 1481.01C441.755 1481.56 441.957 1482.08 442.265 1482.53C442.714 1483.29 443.276 1483.97 443.93 1484.57C444.458 1485.18 445.132 1485.65 445.89 1485.93C445.89 1485.93 445.225 1485.34 444.263 1484.27C443.709 1483.64 443.213 1482.96 442.783 1482.23C442.302 1481.53 441.969 1480.24 442.783 1480.05C443.597 1479.87 444.522 1480.79 445.04 1481.46C445.535 1482.12 445.888 1482.87 446.075 1483.68C446.177 1484.44 446.215 1485.2 446.186 1485.97Z" fill="#263238"/>
<path d="M388.545 1483.16C388.545 1483.16 390.061 1483.16 392.466 1483.16C395.603 1483.46 398.592 1484.64 401.086 1486.56C403.581 1488.49 405.479 1491.08 406.562 1494.04C407.413 1496.29 407.524 1497.74 407.635 1497.74C407.708 1497.38 407.708 1497.02 407.635 1496.66C407.514 1495.7 407.304 1494.74 407.006 1493.81C405.98 1490.72 404.049 1488.01 401.462 1486.03C398.876 1484.05 395.755 1482.9 392.503 1482.72C391.532 1482.61 390.552 1482.61 389.58 1482.72C389.209 1482.79 388.857 1482.94 388.545 1483.16Z" fill="#263238"/>
<path d="M393.724 1460.96C393.394 1464.59 393.295 1468.23 393.428 1471.88C393.31 1475.58 393.422 1479.28 393.761 1482.97C394.098 1479.28 394.197 1475.58 394.057 1471.88C394.147 1468.23 394.035 1464.59 393.724 1460.96Z" fill="#263238"/>
<path d="M414.332 1492.96C416.898 1493.49 419.52 1493.7 422.138 1493.59C424.75 1493.7 427.364 1493.45 429.908 1492.85C429.908 1492.67 426.208 1492.85 422.138 1492.85C418.069 1492.85 414.369 1492.78 414.332 1492.96Z" fill="#263238"/>
<path d="M403.935 1493.07C403.935 1493.07 404.231 1493.81 404.564 1494.63C404.897 1495.44 405.156 1496.11 405.341 1496.11C405.526 1496.11 405.6 1495.26 405.156 1494.33C404.712 1493.41 404.046 1492.96 403.935 1493.07Z" fill="#263238"/>
<path d="M399.903 1488.26C399.903 1488.26 400.125 1488.93 400.717 1489.49C401.309 1490.04 401.827 1490.37 401.938 1490.26C402.049 1490.15 401.716 1489.56 401.161 1489.04C400.606 1488.52 400.051 1488.12 399.903 1488.26Z" fill="#263238"/>
<path d="M394.242 1485.97C394.242 1485.97 395.019 1485.97 395.796 1486.38C396.573 1486.79 397.128 1487.04 397.276 1486.93C397.424 1486.82 396.98 1486.08 395.981 1485.79C394.982 1485.49 394.205 1485.97 394.242 1485.97Z" fill="#263238"/>
<path d="M390.246 1485.12C390.246 1485.12 390.468 1485.56 390.912 1485.71C391.356 1485.86 391.763 1485.9 391.837 1485.71C391.911 1485.53 391.578 1485.27 391.134 1485.12C390.69 1484.97 390.283 1484.94 390.246 1485.12Z" fill="#263238"/>
<path d="M254.023 1475.87L272.077 1453.93L231.159 1419.86L204.447 1451.67L206.814 1453.97C217.581 1463.99 262.31 1504.17 271.707 1508.17C282.252 1512.65 254.023 1475.87 254.023 1475.87Z" fill="#FF725E"/>
<g opacity="0.5">
<path d="M219.652 1463.77C221.916 1459.82 222.641 1455.17 221.687 1450.71C220.78 1446.31 218.243 1442.41 214.584 1439.8L204.854 1451.16L219.652 1463.77Z" fill="white"/>
</g>
<g opacity="0.4">
<path d="M267.305 1494.44C267.305 1494.44 276.554 1508.1 273.372 1508.84C270.191 1509.58 223.352 1470.65 204.447 1451.67L205.261 1450.82L259.313 1496.7C259.313 1496.7 264.826 1492.56 267.305 1494.44Z" fill="white"/>
</g>
<path d="M204.632 1450.27L205.26 1450.94L207.184 1452.75L214.362 1459.26C220.429 1464.7 228.939 1472.13 238.521 1480.13C248.103 1488.12 257.02 1495.18 263.383 1500.22L271.078 1506.1L273.187 1507.65L273.964 1508.17L273.261 1507.54L271.226 1505.88L263.827 1499.85C257.427 1494.74 248.658 1487.64 239.076 1479.64C229.494 1471.65 220.947 1464.29 214.806 1458.93L207.406 1452.56L205.408 1450.82L204.632 1450.27Z" fill="#263238"/>
<path d="M258.759 1497.33C260.107 1496.35 261.574 1495.54 263.124 1494.92C264.724 1494.52 266.36 1494.27 268.008 1494.18C266.36 1493.58 264.55 1493.58 262.902 1494.18C261.186 1494.7 259.714 1495.81 258.759 1497.33Z" fill="#263238"/>
<path d="M251.803 1481.12C251.803 1481.31 253.024 1481.12 254.393 1480.64C255.762 1480.16 256.871 1479.72 256.798 1479.53C256.724 1479.35 255.577 1479.53 254.208 1480.01C253.336 1480.21 252.515 1480.59 251.803 1481.12Z" fill="#263238"/>
<path d="M249.953 1476.61C249.953 1476.61 250.952 1476.91 252.21 1476.87C253.468 1476.83 254.43 1476.65 254.43 1476.46C254.43 1476.28 253.394 1476.17 252.173 1476.2C251.412 1476.17 250.652 1476.31 249.953 1476.61Z" fill="#263238"/>
<path d="M251.063 1471.17C251.063 1471.17 251.803 1472.21 252.987 1473.21C253.655 1473.88 254.446 1474.42 255.318 1474.8C255.318 1474.8 254.578 1473.73 253.394 1472.73C252.21 1471.73 251.211 1470.88 251.063 1471.17Z" fill="#263238"/>
<path d="M252.617 1467.69C253.02 1468.71 253.634 1469.63 254.418 1470.39C255.203 1471.14 256.14 1471.73 257.168 1472.1C256.451 1471.32 255.685 1470.59 254.874 1469.91C253.653 1468.73 252.95 1467.47 252.617 1467.69Z" fill="#263238"/>
<path d="M256.169 1478.57C256.902 1479.45 257.793 1480.19 258.796 1480.75C259.845 1481.43 260.961 1482 262.125 1482.46C262.813 1482.77 263.533 1483 264.271 1483.16C264.737 1483.24 265.215 1483.13 265.603 1482.86C265.807 1482.71 265.961 1482.49 266.046 1482.25C266.132 1482.01 266.145 1481.74 266.084 1481.49C265.513 1480.14 264.487 1479.03 263.182 1478.35C261.878 1477.68 260.378 1477.48 258.944 1477.79C258.099 1477.96 257.302 1478.31 256.613 1478.83C256.354 1479 256.128 1479.21 255.947 1479.46C256.895 1478.88 257.933 1478.47 259.018 1478.24C260.192 1478.04 261.4 1478.18 262.495 1478.65C263.814 1479.16 264.878 1480.17 265.455 1481.46C265.455 1482.12 265.048 1482.49 264.345 1482.38C263.663 1482.23 262.994 1482.02 262.347 1481.75C261.207 1481.33 260.106 1480.81 259.055 1480.2C257.242 1479.5 256.243 1478.57 256.169 1478.57Z" fill="#263238"/>
<path d="M256.65 1479.42C256.65 1479.42 257.612 1479.13 258.5 1477.87C258.976 1477.11 259.279 1476.25 259.387 1475.35C259.472 1474.78 259.419 1474.19 259.233 1473.63C259.046 1473.08 258.732 1472.58 258.315 1472.17C257.995 1472 257.622 1471.96 257.275 1472.07C256.928 1472.17 256.637 1472.41 256.465 1472.73C256.183 1473.19 256.006 1473.71 255.947 1474.24C255.839 1475.12 255.839 1476 255.947 1476.87C255.947 1477.68 256.15 1478.49 256.539 1479.2C256.539 1479.2 256.539 1478.28 256.539 1476.87C256.529 1476.03 256.603 1475.18 256.761 1474.35C256.761 1473.5 257.427 1472.32 258.204 1472.73C258.981 1473.13 259.018 1474.43 259.018 1475.28C258.952 1476.1 258.712 1476.89 258.315 1477.61C257.829 1478.27 257.27 1478.88 256.65 1479.42Z" fill="#263238"/>
<path d="M214.806 1439.8C214.806 1439.8 216.064 1440.65 217.729 1442.39C219.895 1444.68 221.392 1447.52 222.057 1450.6C222.67 1453.69 222.414 1456.9 221.317 1459.85C220.466 1462.15 219.541 1463.37 219.652 1463.55C219.931 1463.31 220.168 1463.02 220.355 1462.7C220.907 1461.9 221.366 1461.05 221.724 1460.15C223.003 1457.14 223.339 1453.81 222.686 1450.6C222.018 1447.4 220.408 1444.48 218.062 1442.2C217.362 1441.52 216.594 1440.91 215.768 1440.39C215.488 1440.13 215.161 1439.93 214.806 1439.8Z" fill="#263238"/>
<path d="M233.23 1426.29C230.602 1428.84 228.131 1431.55 225.831 1434.4C223.389 1437.11 221.092 1439.95 218.949 1442.91C221.594 1440.39 224.066 1437.69 226.349 1434.84C228.787 1432.11 231.084 1429.26 233.23 1426.29Z" fill="#263238"/>
<path d="M227.977 1464.03C229.558 1466.11 231.398 1467.97 233.452 1469.58C235.373 1471.37 237.526 1472.89 239.853 1474.1C239.853 1474.1 237.152 1471.88 233.896 1469.1C230.641 1466.33 228.125 1463.77 227.977 1464.03Z" fill="#263238"/>
<path d="M219.985 1457.34C219.985 1457.34 219.726 1458.08 219.505 1458.93C219.283 1459.78 218.95 1460.41 219.098 1460.52C219.246 1460.63 219.837 1460.07 220.133 1459.07C220.429 1458.08 220.17 1457.3 219.985 1457.34Z" fill="#263238"/>
<path d="M220.096 1451.05C219.911 1451.05 219.837 1451.71 219.911 1452.49C219.985 1453.27 220.17 1453.89 220.355 1453.89C220.54 1453.89 220.614 1453.23 220.355 1452.45C220.096 1451.67 220.281 1451.05 220.096 1451.05Z" fill="#263238"/>
<path d="M217.211 1445.72C217.211 1445.9 217.692 1446.35 218.098 1447.05C218.505 1447.75 218.69 1448.46 218.875 1448.46C219.06 1448.46 219.171 1447.61 218.653 1446.72C218.135 1445.83 217.285 1445.57 217.211 1445.72Z" fill="#263238"/>
<path d="M214.806 1442.35C214.806 1442.35 214.806 1442.87 214.806 1443.28C214.806 1443.68 215.361 1443.94 215.509 1443.87C215.657 1443.79 215.509 1443.35 215.509 1442.94C215.509 1442.54 214.954 1442.28 214.806 1442.35Z" fill="#263238"/>
<path d="M364.755 881.399C364.755 881.399 347.034 956.356 352.065 971.192C357.097 986.028 389.544 994.574 389.544 994.574L388.434 1199.87L208.923 1421.85L275.148 1476.02C275.148 1476.02 469.532 1253.7 486.661 1213.34C503.791 1172.97 475.562 877.959 475.562 877.959L364.755 881.399Z" fill="#263238"/>
<path d="M456.435 850.84L465.203 1474.32L373.931 1474.87L328.091 966.974C318.398 957.725 304.746 941.89 306.633 906.558L308.853 865.528L456.435 850.84Z" fill="#263238"/>
<path d="M360.242 1234.58C360.375 1234.25 360.549 1233.94 360.76 1233.65C361.241 1232.98 361.796 1232.13 362.499 1231.1L369.269 1221.52L394.057 1187.18V1187.66C392.06 1166.02 389.655 1139.79 387.065 1111.49C383.735 1074.49 381.071 1040.82 379.48 1016.44C378.667 1004.27 378.149 994.426 377.853 987.619C377.853 984.363 377.631 981.736 377.594 979.738C377.481 978.829 377.481 977.91 377.594 977C377.773 977.904 377.884 978.819 377.927 979.738C377.927 981.699 378.297 984.326 378.556 987.582C379.111 994.574 379.85 1004.34 380.812 1016.37C382.736 1040.67 385.622 1074.23 388.952 1111.3C391.431 1139.71 393.946 1165.91 395.611 1187.66V1187.92V1188.14L370.268 1222.03L363.128 1231.39L361.204 1233.8C360.427 1234.39 360.242 1234.61 360.242 1234.58Z" fill="#455A64"/>
<path d="M388.212 977C380.044 976.566 371.94 975.327 364.016 973.301C355.955 971.937 348.048 969.781 340.411 966.863C348.499 967.9 356.517 969.419 364.423 971.414C372.452 972.821 380.395 974.686 388.212 977Z" fill="#455A64"/>
<path d="M450.737 1189.99C442.859 1186.73 434.567 1184.56 426.097 1183.56C417.563 1183.21 409.023 1184.05 400.717 1186.03C402.886 1184.67 405.297 1183.72 407.82 1183.26C413.852 1181.69 420.105 1181.14 426.319 1181.63C432.494 1182.13 438.544 1183.64 444.226 1186.11C446.611 1187 448.817 1188.32 450.737 1189.99Z" fill="#455A64"/>
<path d="M482.962 1218.78C483.368 1219.11 457.692 1253.59 425.579 1295.77C393.465 1337.95 367.086 1371.95 366.679 1371.65C366.272 1371.35 391.948 1336.84 424.062 1294.62C456.176 1252.41 482.555 1218.44 482.962 1218.78Z" fill="#455A64"/>
<path d="M470.604 897.123C469.552 899.824 467.772 902.18 465.462 903.931C462.818 906.246 459.724 907.99 456.374 909.053C453.024 910.116 449.49 910.474 445.995 910.106C442.5 909.738 439.118 908.651 436.063 906.913C433.008 905.175 430.346 902.825 428.243 900.009C426.285 897.846 424.999 895.159 424.543 892.277C425.967 894.644 427.523 896.929 429.205 899.121C433.433 904.246 439.506 907.506 446.114 908.198C452.722 908.89 459.338 906.959 464.537 902.821C466.658 901.029 468.683 899.127 470.604 897.123Z" fill="#455A64"/>
<path d="M345.813 576.321C330.773 562.031 321.905 542.435 321.096 521.705C320.288 500.974 327.603 480.747 341.484 465.329" fill="#263238"/>
<path d="M294.498 634.481C294.498 634.481 274.667 656.901 270.56 742.623C270.56 742.623 327.055 753.353 328.091 750.282C329.127 747.211 294.498 634.481 294.498 634.481Z" fill="#FF725E"/>
<g opacity="0.3">
<path d="M294.498 634.481C294.498 634.481 274.667 656.901 270.56 742.623C270.56 742.623 327.055 753.353 328.091 750.282C329.127 747.211 294.498 634.481 294.498 634.481Z" fill="black"/>
</g>
<path d="M303.673 884.175H477.153L474.341 857.056C474.341 857.056 454.511 753.982 454.659 752.613L457.766 746.064C461.82 737.561 463.988 728.283 464.122 718.864C464.256 709.445 462.353 700.108 458.543 691.493L543.637 662.451L522.844 592.378C484.293 598.852 426.023 606.141 426.023 606.141L417.365 606.844C417.365 606.844 357.208 609.988 355.913 610.136C330.755 613.207 301.49 615.131 290.798 642.065C285.063 656.457 290.502 678.063 299.862 700.336L322.061 768.78C330.94 806.407 316.77 804.594 308.964 842.479C307.706 848.177 303.562 878.921 303.673 884.175Z" fill="#FF725E"/>
<g opacity="0.3">
<path d="M303.673 884.175H477.153L474.341 857.056C474.341 857.056 454.511 753.982 454.659 752.613L457.766 746.064C461.82 737.561 463.988 728.283 464.122 718.864C464.256 709.445 462.353 700.108 458.543 691.493L543.637 662.451L522.844 592.378C484.293 598.852 426.023 606.141 426.023 606.141L417.365 606.844C417.365 606.844 357.208 609.988 355.913 610.136C330.755 613.207 301.49 615.131 290.798 642.065C285.063 656.457 290.502 678.063 299.862 700.336L322.061 768.78C330.94 806.407 316.77 804.594 308.964 842.479C307.706 848.177 303.562 878.921 303.673 884.175Z" fill="black"/>
</g>
<path d="M542.675 663.597C541.502 664.258 540.262 664.791 538.975 665.188C536.533 666.076 532.945 667.297 528.505 668.888C519.626 671.885 507.269 675.843 493.654 680.209C480.039 684.575 467.756 688.903 459.246 692.455C454.881 694.231 451.44 695.785 449.035 696.821C447.869 697.467 446.626 697.964 445.335 698.301C446.41 697.446 447.576 696.714 448.813 696.118C451.144 694.897 454.511 693.121 458.802 691.197C470.018 686.309 481.492 682.036 493.173 678.396C506.825 674.031 519.071 670.257 528.209 667.593C532.686 666.261 536.349 665.225 538.864 664.522C540.091 664.056 541.371 663.746 542.675 663.597Z" fill="#263238"/>
<path d="M532.612 626.267C532.612 626.785 481.297 627.229 417.92 627.229C354.544 627.229 303.229 626.785 303.229 626.267C303.229 625.749 354.507 625.305 417.92 625.305C481.334 625.305 532.612 625.749 532.612 626.267Z" fill="#FAFAFA"/>
<path d="M537.829 660.342C537.829 660.86 480.742 661.304 410.336 661.304C339.93 661.304 282.881 660.86 282.881 660.342C282.881 659.824 339.93 659.38 410.336 659.38C480.742 659.38 537.829 659.824 537.829 660.342Z" fill="#FAFAFA"/>
<path d="M297.347 699.114C293.878 700.055 290.272 700.381 286.691 700.076C283.123 700.38 279.529 700.054 276.073 699.114C279.529 698.175 283.123 697.849 286.691 698.152C290.272 697.848 293.878 698.174 297.347 699.114Z" fill="#FAFAFA"/>
<path d="M463.834 700.298C463.834 700.816 426.504 701.26 380.479 701.26C334.455 701.26 297.125 700.816 297.125 700.298C297.125 699.78 334.418 699.336 380.479 699.336C426.541 699.336 463.834 699.743 463.834 700.298Z" fill="#FAFAFA"/>
<path d="M460.134 740.218C460.134 740.773 426.615 741.18 385.326 741.18C344.037 741.18 310.481 740.773 310.481 740.218C310.481 739.663 343.963 739.256 385.326 739.256C426.689 739.256 460.134 739.7 460.134 740.218Z" fill="#FAFAFA"/>
<path d="M459.098 777.252C459.098 777.77 428.761 778.214 391.319 778.214C353.878 778.214 323.467 777.77 323.467 777.252C323.467 776.735 353.841 776.291 391.319 776.291C428.798 776.291 459.098 776.698 459.098 777.252Z" fill="#FAFAFA"/>
<path d="M465.055 807.183C465.055 807.738 432.571 808.145 392.503 808.145C352.435 808.145 319.952 807.738 319.952 807.183C319.952 806.628 352.435 806.221 392.503 806.221C432.571 806.221 465.055 806.665 465.055 807.183Z" fill="#FAFAFA"/>
<path d="M474.452 845.364C474.452 845.919 437.455 846.326 391.911 846.326C346.368 846.326 309.371 845.919 309.371 845.364C309.371 844.809 346.368 844.402 391.911 844.402C437.455 844.402 474.452 844.846 474.452 845.364Z" fill="#FAFAFA"/>
<path d="M320.914 765.562C320.215 764.519 319.691 763.369 319.36 762.158L315.66 752.687C312.589 744.695 308.261 733.67 303.821 721.35C299.381 709.03 295.645 697.783 293.314 689.532C292.167 685.389 291.279 682.133 290.798 679.691C290.442 678.487 290.231 677.245 290.169 675.991C291.881 680.288 293.363 684.672 294.609 689.125C297.273 697.265 301.157 708.438 305.708 720.721C310.259 733.004 314.254 744.103 316.807 752.243C318.176 756.312 319.212 759.642 319.878 761.936C320.376 763.095 320.725 764.314 320.914 765.562Z" fill="#263238"/>
<path d="M1176.93 919.438H1060.78L1034.26 972.462H885.288V1184.56H1203.44V919.438H1176.93ZM1176.93 1155.53H914.325V998.975H1176.93V1155.53ZM1176.93 972.462H1073.4L1086.03 945.95H1175.66V972.462H1176.93Z" fill="#B1DB7B"/>
<path d="M1155.46 1022.96H837.312L885.288 1184.56H1203.44L1155.46 1022.96Z" fill="#B1DB7B"/>
<path fill-rule="evenodd" clip-rule="evenodd" d="M1089.81 976.25C1116.03 976.25 1141.66 984.025 1163.46 998.591C1185.26 1013.16 1202.25 1033.86 1212.28 1058.08C1222.32 1082.31 1224.94 1108.96 1219.83 1134.67C1214.71 1160.39 1202.09 1184.01 1183.55 1202.55C1165.01 1221.09 1141.39 1233.71 1115.67 1238.83C1089.96 1243.94 1063.31 1241.32 1039.08 1231.28C1014.86 1221.25 994.157 1204.26 979.591 1182.46C965.025 1160.66 957.25 1135.03 957.25 1108.81C957.25 1073.65 971.216 1039.94 996.077 1015.08C1020.94 990.216 1054.65 976.25 1089.81 976.25Z" fill="#83CD29"/>
<path d="M1089.81 1241.37C1086.24 1241.38 1082.72 1240.44 1079.62 1238.65L1047.18 1219.46C1042.34 1216.74 1044.65 1215.78 1046.29 1215.23C1051.44 1213.63 1056.37 1211.39 1060.96 1208.56C1061.35 1208.39 1061.77 1208.32 1062.19 1208.35C1062.62 1208.38 1063.02 1208.52 1063.38 1208.75L1088.3 1223.55C1088.76 1223.79 1089.28 1223.92 1089.81 1223.92C1090.33 1223.92 1090.85 1223.79 1091.31 1223.55L1188.53 1167.47C1188.98 1167.2 1189.36 1166.81 1189.62 1166.35C1189.88 1165.89 1190.02 1165.37 1190.02 1164.84V1052.71C1190.02 1052.17 1189.88 1051.64 1189.62 1051.17C1189.35 1050.7 1188.97 1050.31 1188.51 1050.03L1091.4 994.001C1090.94 993.743 1090.43 993.608 1089.9 993.608C1089.37 993.608 1088.86 993.743 1088.4 994.001L991.211 1050.04C990.746 1050.32 990.36 1050.7 990.09 1051.17C989.82 1051.64 989.675 1052.17 989.671 1052.71V1164.83C989.671 1165.36 989.813 1165.88 990.081 1166.34C990.35 1166.79 990.736 1167.17 991.199 1167.43L1017.85 1182.81C1032.29 1190.03 1041.14 1181.55 1041.14 1172.99V1062.28C1041.14 1061.91 1041.21 1061.54 1041.35 1061.2C1041.5 1060.86 1041.7 1060.55 1041.96 1060.29C1042.23 1060.03 1042.54 1059.82 1042.88 1059.68C1043.22 1059.54 1043.59 1059.47 1043.96 1059.47H1056.28C1057.02 1059.47 1057.74 1059.77 1058.26 1060.29C1058.79 1060.82 1059.08 1061.53 1059.08 1062.28V1172.99C1059.6 1176.95 1059.22 1180.99 1057.98 1184.79C1056.74 1188.6 1054.67 1192.08 1051.91 1194.98C1049.16 1197.88 1045.79 1200.13 1042.06 1201.57C1038.32 1203.01 1034.31 1203.59 1030.32 1203.29C1022.44 1203.42 1014.67 1201.31 1007.94 1197.2L982.5 1182.56C979.408 1180.75 976.84 1178.17 975.053 1175.07C973.266 1171.97 972.321 1168.46 972.312 1164.88V1052.71C972.316 1049.13 973.259 1045.61 975.046 1042.51C976.834 1039.41 979.404 1036.83 982.5 1035.03L1079.71 978.889C1082.84 977.177 1086.35 976.28 1089.92 976.28C1093.49 976.28 1097 977.177 1100.13 978.889L1197.13 1034.99C1200.22 1036.79 1202.79 1039.37 1204.58 1042.47C1206.37 1045.57 1207.32 1049.09 1207.33 1052.67V1164.79C1207.31 1168.37 1206.36 1171.88 1204.57 1174.98C1202.78 1178.08 1200.22 1180.66 1197.13 1182.47L1099.91 1238.56C1096.85 1240.36 1093.37 1241.33 1089.81 1241.37ZM1122.84 1163.19C1153.62 1163.19 1171.27 1151.07 1171.27 1129.9C1171.27 1108.72 1157.08 1103.38 1127.23 1099.37C1097.06 1095.38 1094 1093.32 1094 1086.25C1094 1080.42 1096.59 1072.63 1118.94 1072.63C1138.9 1072.63 1146.26 1076.93 1149.24 1090.39C1149.38 1091.01 1149.72 1091.57 1150.22 1091.97C1150.71 1092.37 1151.33 1092.59 1151.97 1092.59H1164.59C1164.98 1092.59 1165.36 1092.51 1165.72 1092.35C1166.08 1092.19 1166.4 1091.96 1166.66 1091.68C1166.92 1091.39 1167.12 1091.05 1167.25 1090.68C1167.37 1090.31 1167.42 1089.92 1167.38 1089.53C1165.44 1066.35 1150.03 1055.56 1118.9 1055.56C1091.2 1055.56 1074.71 1067.25 1074.71 1086.86C1074.71 1108.12 1091.13 1114 1117.74 1116.63C1149.54 1119.75 1152.02 1124.39 1152.02 1130.65C1152.02 1141.51 1143.3 1146.14 1122.84 1146.14C1097.14 1146.14 1091.47 1139.69 1089.59 1126.9C1089.48 1126.24 1089.14 1125.64 1088.63 1125.2C1088.12 1124.77 1087.47 1124.53 1086.8 1124.53H1074.17C1073.8 1124.53 1073.44 1124.6 1073.1 1124.74C1072.75 1124.88 1072.45 1125.09 1072.18 1125.35C1071.92 1125.61 1071.72 1125.92 1071.58 1126.26C1071.44 1126.6 1071.37 1126.96 1071.37 1127.33C1071.39 1143.68 1080.29 1163.19 1122.81 1163.19H1122.84Z" fill="white"/>
</svg>
