<svg width="1899" height="1568" viewBox="0 0 1899 1568" fill="none" xmlns="http://www.w3.org/2000/svg">
<g filter="url(#filter0_dd_13_19996)">
<path d="M1002.43 2.58899e-06L995.046 208.437L1323.71 220.086L1331.1 11.6495L1002.43 2.58899e-06Z" fill="#EBEBEB"/>
<path d="M1331.08 11.6329C1317.38 23.869 1303.36 35.3923 1289.58 47.5492C1275.8 59.7061 1261.86 71.0314 1247.73 82.6735C1233.13 94.7908 1218.49 106.802 1203.81 118.709C1203.34 119.065 1202.94 119.461 1202.5 119.857L1163.46 151.536L1161.52 153.001L1159.78 151.378C1147.5 140 1135.28 128.582 1123.11 117.125L1121.84 115.937C1108.02 103.027 1094.12 90.0389 1080.54 76.8128C1067.43 64.3392 1054.32 51.6279 1041.3 38.9166C1028.27 26.2053 1015.28 13.3356 1002.45 0.14917C1016.19 11.5141 1029.65 23.4334 1043.2 35.0755C1056.74 46.7176 1070.24 58.8349 1083.67 70.7146C1098.58 83.9143 1113.5 97.3911 1128.41 111.145L1161.88 141.716C1173.76 132.331 1185.63 122.866 1197.51 113.6C1213.35 101.127 1229.19 88.6925 1245.03 76.4168C1259.24 65.4347 1273.5 54.5318 1287.84 43.7081C1302.33 32.9371 1316.59 22.0078 1331.08 11.6329Z" fill="white"/>
<path d="M1128.73 115.897C1128.61 116.012 1128.47 116.118 1128.33 116.214C1126.55 117.64 1124.77 119.065 1122.99 120.412C1114.51 127.104 1105.84 133.44 1097.01 139.617C1086.28 147.22 1075.31 154.506 1064.26 161.713C1053.22 168.92 1042.09 175.811 1030.72 182.542C1019.36 189.274 1007.91 195.808 996.074 201.748C1006.37 193.392 1017.02 185.591 1027.75 177.988C1038.48 170.385 1049.53 163.099 1060.5 155.892C1071.47 148.685 1082.76 141.755 1094.12 135.024C1103.15 129.678 1112.34 124.411 1121.84 119.501C1123.98 118.352 1126.16 117.244 1128.37 116.135L1128.73 115.897Z" fill="white"/>
<path d="M1323.16 213.35C1311.8 206.579 1300.79 199.213 1289.98 191.729C1279.17 184.245 1268.51 176.444 1257.94 168.603C1247.37 160.763 1236.99 152.566 1226.82 144.21C1218.5 137.439 1210.3 130.549 1202.38 123.302L1197.28 118.669C1197.17 118.54 1197.05 118.421 1196.92 118.312L1197.4 118.55L1203.69 122.51C1212.68 128.093 1221.39 133.954 1230.1 139.973C1240.95 147.339 1251.53 155.258 1262.1 163.178C1272.67 171.098 1283.01 179.018 1293.19 187.532C1303.36 196.045 1313.5 204.242 1323.16 213.35Z" fill="white"/>
<path d="M1282.26 300.441L1235.22 445.21L1463.49 519.377L1510.52 374.608L1282.26 300.441Z" fill="#EBEBEB"/>
<path d="M1510.39 374.558C1498.31 380.379 1486.19 385.764 1474.07 391.427C1461.96 397.089 1449.8 402.317 1437.64 407.662C1425.49 413.008 1412.26 418.711 1399.59 424.136L1398.44 424.65L1364.74 438.946L1363.08 439.579L1362.17 438.114C1355.88 427.554 1349.6 417.087 1343.32 406.712C1343.08 406.395 1342.88 405.999 1342.64 405.643C1335.56 393.763 1328.51 381.883 1321.54 370.004C1314.86 358.599 1308.26 347.102 1301.74 335.513C1295.24 323.633 1288.63 312.348 1282.26 300.547C1289.62 311.278 1296.67 322.327 1303.84 333.216C1311.01 344.106 1318.05 355.273 1325.06 366.4C1332.98 378.755 1340.74 391.216 1348.35 403.782L1365.69 431.937C1375.87 427.699 1386.08 423.462 1396.26 419.344C1409.83 413.774 1423.44 408.256 1437.09 402.792C1449.25 397.921 1461.48 393.13 1473.68 388.417C1485.87 383.705 1498.15 378.914 1510.39 374.558Z" fill="white"/>
<path d="M1347.48 407.069H1347.16L1342.56 408.969C1335.24 411.939 1327.87 414.632 1320.47 417.206C1311.4 420.374 1302.25 423.304 1293.07 426.155C1283.88 429.006 1274.65 431.58 1265.35 434.075C1256.04 436.57 1246.66 438.827 1237.19 440.609C1246.06 436.649 1255.09 433.481 1264.16 430.313C1273.23 427.145 1282.41 424.255 1291.6 421.403C1300.79 418.552 1310.01 415.939 1319.32 413.484C1326.73 411.504 1334.21 409.524 1341.77 408.098L1347.04 407.069H1347.48Z" fill="white"/>
<path d="M1464.33 514.501C1457.72 507.452 1451.46 500.087 1445.4 492.642C1439.35 485.197 1433.52 477.634 1427.54 469.991C1421.57 462.349 1416.1 454.548 1410.64 446.628C1406.16 440.213 1401.77 433.719 1397.65 427.066C1396.78 425.601 1395.91 424.215 1395.03 422.789C1394.98 422.678 1394.91 422.572 1394.84 422.473L1395.11 422.75L1398.76 426.71C1403.94 432.412 1408.89 438.312 1413.8 444.252C1419.9 451.697 1425.68 459.3 1431.58 466.942C1437.48 474.585 1443.07 482.386 1448.53 490.306C1454 498.226 1459.38 506.185 1464.33 514.501Z" fill="white"/>
<path d="M1611.64 697.765H1163.34C1163.34 697.765 1207.77 576.354 1276.16 576.354C1344.55 576.354 1366.13 660.225 1366.13 660.225C1366.13 660.225 1412.14 614.607 1450.04 614.607C1487.93 614.607 1520.88 674.758 1520.88 674.758C1520.88 674.758 1574.46 642.524 1611.64 697.765Z" fill="#EBEBEB"/>
<path d="M700.27 98.1966H490.989C490.989 98.1966 537.755 30.3635 574.661 30.3635C611.568 30.3635 622.418 75.5856 622.418 75.5856C622.418 75.5856 648.434 54.4793 672.55 58.2412C696.666 62.0031 700.27 98.1966 700.27 98.1966Z" fill="#EBEBEB"/>
<path d="M978.056 486.306H768.499C768.499 486.306 815.305 418.473 852.171 418.473C889.038 418.473 899.928 463.695 899.928 463.695C899.928 463.695 925.944 442.589 950.06 446.351C974.176 450.113 978.056 486.306 978.056 486.306Z" fill="#EBEBEB"/>
<path d="M324.197 791.139H114.798C114.798 791.139 161.604 723.346 198.471 723.346C235.337 723.346 246.267 768.568 246.267 768.568C246.267 768.568 272.283 747.461 296.399 751.223C320.515 754.985 324.197 791.139 324.197 791.139Z" fill="#EBEBEB"/>
<path d="M467.427 242.97H59.3594C59.3594 242.97 115.234 118.273 174.988 110.472C234.743 102.671 263.334 203.134 263.334 203.134C263.334 203.134 301.864 167.494 332.197 167.494C362.529 167.494 385.893 214.301 385.893 214.301C385.893 214.301 446.638 182.344 467.427 242.97Z" fill="#EBEBEB"/>
<path d="M1619.96 1296.66L51.8359 1304.9L51.0439 1238.53L1619.13 1230.29L1619.96 1296.66Z" fill="#FFC727"/>
<path opacity="0.6" d="M1619.96 1296.66L51.8359 1304.9L51.0439 1238.53L1619.13 1230.29L1619.96 1296.66Z" fill="black"/>
<path d="M1619.68 1556.75L51.5586 1554.33L51.321 1488L1619.44 1490.38L1619.68 1556.75Z" fill="#FFC727"/>
<path opacity="0.6" d="M1619.68 1556.75L51.5586 1554.33L51.321 1488L1619.44 1490.38L1619.68 1556.75Z" fill="black"/>
<path d="M108.7 1130.82L103.156 1556.83H29.3037L23.7202 1130.82L66.2496 1095.42L108.7 1130.82Z" fill="#FFC727"/>
<path opacity="0.3" d="M108.7 1130.82L103.156 1556.83H29.3037L23.7202 1130.82L66.2496 1095.42L108.7 1130.82Z" fill="black"/>
<path opacity="0.2" d="M75.3973 1520.67C75.4051 1522.49 74.873 1524.27 73.8683 1525.79C72.8636 1527.3 71.4315 1528.49 69.7535 1529.19C68.0756 1529.89 66.2271 1530.08 64.4424 1529.73C62.6577 1529.38 61.0171 1528.51 59.7283 1527.22C58.4395 1525.94 57.5606 1524.3 57.2029 1522.52C56.8452 1520.74 57.0248 1518.89 57.7189 1517.21C58.4131 1515.52 59.5906 1514.09 61.1022 1513.08C62.6139 1512.06 64.3916 1511.52 66.2103 1511.52C67.4149 1511.52 68.6086 1511.75 69.723 1512.21C70.8374 1512.67 71.8505 1513.34 72.7041 1514.19C73.5577 1515.04 74.2351 1516.05 74.6972 1517.16C75.1594 1518.27 75.3973 1519.47 75.3973 1520.67Z" fill="black"/>
<path opacity="0.2" d="M75.3973 1258.45C75.4051 1260.27 74.873 1262.05 73.8683 1263.56C72.8636 1265.08 71.4315 1266.26 69.7535 1266.96C68.0756 1267.66 66.2271 1267.85 64.4424 1267.5C62.6577 1267.15 61.0171 1266.28 59.7283 1265C58.4395 1263.71 57.5606 1262.08 57.2029 1260.29C56.8452 1258.51 57.0248 1256.66 57.7189 1254.98C58.4131 1253.3 59.5906 1251.86 61.1022 1250.85C62.6139 1249.84 64.3916 1249.3 66.2103 1249.3C67.4149 1249.29 68.6086 1249.53 69.723 1249.98C70.8374 1250.44 71.8505 1251.12 72.7041 1251.97C73.5577 1252.81 74.2351 1253.83 74.6972 1254.94C75.1594 1256.05 75.3973 1257.24 75.3973 1258.45Z" fill="black"/>
<path d="M328.475 1130.82L322.931 1556.83H249.118L243.535 1130.82L286.024 1095.42L328.475 1130.82Z" fill="#FFC727"/>
<path opacity="0.3" d="M328.475 1130.82L322.931 1556.83H249.118L243.535 1130.82L286.024 1095.42L328.475 1130.82Z" fill="black"/>
<path opacity="0.2" d="M295.172 1520.67C295.172 1522.48 294.635 1524.25 293.63 1525.75C292.625 1527.26 291.197 1528.43 289.525 1529.12C287.854 1529.82 286.014 1530 284.24 1529.64C282.466 1529.29 280.836 1528.42 279.556 1527.14C278.277 1525.86 277.406 1524.23 277.053 1522.46C276.7 1520.68 276.881 1518.84 277.573 1517.17C278.266 1515.5 279.438 1514.07 280.943 1513.07C282.447 1512.06 284.215 1511.52 286.025 1511.52C287.227 1511.52 288.419 1511.75 289.531 1512.21C290.643 1512.67 291.654 1513.34 292.504 1514.19C293.355 1515.04 294.028 1516.05 294.486 1517.17C294.944 1518.28 295.177 1519.47 295.172 1520.67Z" fill="black"/>
<path opacity="0.2" d="M295.172 1258.45C295.172 1260.26 294.635 1262.02 293.63 1263.53C292.625 1265.03 291.197 1266.21 289.525 1266.9C287.854 1267.59 286.014 1267.77 284.24 1267.42C282.466 1267.07 280.836 1266.19 279.556 1264.92C278.277 1263.64 277.406 1262.01 277.053 1260.23C276.7 1258.46 276.881 1256.62 277.573 1254.95C278.266 1253.28 279.438 1251.85 280.943 1250.84C282.447 1249.84 284.215 1249.3 286.025 1249.3C287.227 1249.29 288.419 1249.53 289.531 1249.99C290.643 1250.44 291.654 1251.12 292.504 1251.97C293.355 1252.82 294.028 1253.83 294.486 1254.94C294.944 1256.05 295.177 1257.24 295.172 1258.45Z" fill="black"/>
<path d="M548.288 1130.82L542.745 1556.83H468.853L463.349 1130.82L505.838 1095.42L548.288 1130.82Z" fill="#FFC727"/>
<path opacity="0.3" d="M548.288 1130.82L542.745 1556.83H468.853L463.349 1130.82L505.838 1095.42L548.288 1130.82Z" fill="black"/>
<path opacity="0.2" d="M514.986 1520.67C514.994 1522.49 514.462 1524.27 513.457 1525.79C512.452 1527.3 511.02 1528.49 509.342 1529.19C507.664 1529.89 505.816 1530.08 504.031 1529.73C502.247 1529.38 500.606 1528.51 499.317 1527.22C498.028 1525.94 497.149 1524.3 496.792 1522.52C496.434 1520.74 496.614 1518.89 497.308 1517.21C498.002 1515.52 499.179 1514.09 500.691 1513.08C502.203 1512.06 503.981 1511.52 505.799 1511.52C507.004 1511.52 508.198 1511.75 509.312 1512.21C510.426 1512.67 511.439 1513.34 512.293 1514.19C513.147 1515.04 513.824 1516.05 514.286 1517.16C514.748 1518.27 514.986 1519.47 514.986 1520.67Z" fill="black"/>
<path opacity="0.2" d="M514.986 1258.45C514.994 1260.27 514.462 1262.05 513.457 1263.56C512.452 1265.08 511.02 1266.26 509.342 1266.96C507.664 1267.66 505.816 1267.85 504.031 1267.5C502.247 1267.15 500.606 1266.28 499.317 1265C498.028 1263.71 497.149 1262.08 496.792 1260.29C496.434 1258.51 496.614 1256.66 497.308 1254.98C498.002 1253.3 499.179 1251.86 500.691 1250.85C502.203 1249.84 503.981 1249.3 505.799 1249.3C507.004 1249.29 508.198 1249.53 509.312 1249.98C510.426 1250.44 511.439 1251.12 512.293 1251.97C513.147 1252.81 513.824 1253.83 514.286 1254.94C514.748 1256.05 514.986 1257.24 514.986 1258.45Z" fill="black"/>
<path d="M768.063 1130.82L762.559 1556.83H688.667L683.123 1130.82L725.613 1095.42L768.063 1130.82Z" fill="#FFC727"/>
<path d="M768.063 1130.82L762.559 1556.83H688.667L683.123 1130.82L725.613 1095.42L768.063 1130.82Z" fill="#FFC727"/>
<path opacity="0.3" d="M768.063 1130.82L762.559 1556.83H688.667L683.123 1130.82L725.613 1095.42L768.063 1130.82Z" fill="black"/>
<path opacity="0.2" d="M734.761 1520.67C734.761 1522.48 734.224 1524.25 733.219 1525.75C732.214 1527.26 730.785 1528.43 729.114 1529.12C727.442 1529.82 725.603 1530 723.829 1529.64C722.054 1529.29 720.424 1528.42 719.145 1527.14C717.866 1525.86 716.995 1524.23 716.642 1522.46C716.289 1520.68 716.47 1518.84 717.162 1517.17C717.854 1515.5 719.027 1514.07 720.531 1513.07C722.035 1512.06 723.804 1511.52 725.613 1511.52C728.039 1511.52 730.366 1512.49 732.081 1514.2C733.797 1515.92 734.761 1518.25 734.761 1520.67Z" fill="black"/>
<path opacity="0.2" d="M734.761 1258.45C734.761 1260.26 734.224 1262.03 733.219 1263.53C732.214 1265.03 730.785 1266.21 729.114 1266.9C727.442 1267.59 725.603 1267.77 723.829 1267.42C722.054 1267.07 720.424 1266.2 719.145 1264.92C717.866 1263.64 716.995 1262.01 716.642 1260.23C716.289 1258.46 716.47 1256.62 717.162 1254.95C717.854 1253.28 719.027 1251.85 720.531 1250.84C722.035 1249.84 723.804 1249.3 725.613 1249.3C728.039 1249.3 730.366 1250.26 732.081 1251.98C733.797 1253.69 734.761 1256.02 734.761 1258.45Z" fill="black"/>
<path d="M987.877 1130.82L982.333 1556.83H908.442L902.938 1130.82L945.388 1095.42L987.877 1130.82Z" fill="#FFC727"/>
<path opacity="0.3" d="M987.877 1130.82L982.333 1556.83H908.442L902.938 1130.82L945.388 1095.42L987.877 1130.82Z" fill="black"/>
<path opacity="0.2" d="M954.535 1520.67C954.535 1522.48 953.998 1524.25 952.993 1525.75C951.988 1527.26 950.56 1528.43 948.888 1529.12C947.217 1529.82 945.378 1530 943.603 1529.64C941.829 1529.29 940.199 1528.42 938.919 1527.14C937.64 1525.86 936.769 1524.23 936.416 1522.46C936.063 1520.68 936.244 1518.84 936.937 1517.17C937.629 1515.5 938.801 1514.07 940.306 1513.07C941.81 1512.06 943.578 1511.52 945.388 1511.52C946.59 1511.52 947.782 1511.75 948.894 1512.21C950.007 1512.67 951.017 1513.34 951.867 1514.19C952.718 1515.04 953.392 1516.05 953.849 1517.17C954.307 1518.28 954.54 1519.47 954.535 1520.67Z" fill="black"/>
<path opacity="0.2" d="M954.535 1258.45C954.535 1260.26 953.998 1262.02 952.993 1263.53C951.988 1265.03 950.56 1266.21 948.888 1266.9C947.217 1267.59 945.378 1267.77 943.603 1267.42C941.829 1267.07 940.199 1266.19 938.919 1264.92C937.64 1263.64 936.769 1262.01 936.416 1260.23C936.063 1258.46 936.244 1256.62 936.937 1254.95C937.629 1253.28 938.801 1251.85 940.306 1250.84C941.81 1249.84 943.578 1249.3 945.388 1249.3C946.59 1249.29 947.782 1249.53 948.894 1249.99C950.007 1250.44 951.017 1251.12 951.867 1251.97C952.718 1252.82 953.392 1253.83 953.849 1254.94C954.307 1256.05 954.54 1257.24 954.535 1258.45Z" fill="black"/>
<path d="M1207.65 1130.82L1202.11 1556.83H1128.26L1122.71 1130.82L1165.16 1095.42L1207.65 1130.82Z" fill="#FFC727"/>
<path opacity="0.3" d="M1207.65 1130.82L1202.11 1556.83H1128.26L1122.71 1130.82L1165.16 1095.42L1207.65 1130.82Z" fill="black"/>
<path opacity="0.2" d="M1174.35 1258.45C1174.36 1260.27 1173.82 1262.05 1172.82 1263.57C1171.81 1265.08 1170.38 1266.27 1168.7 1266.97C1167.02 1267.67 1165.17 1267.85 1163.38 1267.5C1161.59 1267.15 1159.95 1266.27 1158.67 1264.98C1157.38 1263.7 1156.5 1262.06 1156.15 1260.27C1155.8 1258.48 1155.98 1256.63 1156.68 1254.95C1157.38 1253.27 1158.57 1251.84 1160.08 1250.83C1161.6 1249.83 1163.38 1249.29 1165.2 1249.3C1167.63 1249.3 1169.95 1250.26 1171.67 1251.98C1173.39 1253.69 1174.35 1256.02 1174.35 1258.45Z" fill="black"/>
<path opacity="0.2" d="M1174.35 1522.37C1174.36 1524.19 1173.82 1525.98 1172.82 1527.49C1171.81 1529.01 1170.38 1530.19 1168.7 1530.89C1167.02 1531.59 1165.17 1531.78 1163.38 1531.43C1161.59 1531.07 1159.95 1530.2 1158.67 1528.91C1157.38 1527.62 1156.5 1525.98 1156.15 1524.2C1155.8 1522.41 1155.98 1520.56 1156.68 1518.88C1157.38 1517.2 1158.57 1515.77 1160.08 1514.76C1161.6 1513.75 1163.38 1513.22 1165.2 1513.23C1167.63 1513.23 1169.95 1514.19 1171.67 1515.91C1173.39 1517.62 1174.35 1519.95 1174.35 1522.37Z" fill="black"/>
<path d="M1427.47 1130.82L1421.88 1556.83H1348.07L1342.53 1130.82L1384.98 1095.42L1427.47 1130.82Z" fill="#FFC727"/>
<path opacity="0.3" d="M1427.47 1130.82L1421.88 1556.83H1348.07L1342.53 1130.82L1384.98 1095.42L1427.47 1130.82Z" fill="black"/>
<path opacity="0.2" d="M1394.12 1258.45C1394.12 1260.26 1393.59 1262.02 1392.58 1263.53C1391.58 1265.03 1390.15 1266.21 1388.48 1266.9C1386.81 1267.59 1384.97 1267.77 1383.19 1267.42C1381.42 1267.07 1379.79 1266.19 1378.51 1264.92C1377.23 1263.64 1376.36 1262.01 1376 1260.23C1375.65 1258.46 1375.83 1256.62 1376.52 1254.95C1377.22 1253.28 1378.39 1251.85 1379.89 1250.84C1381.4 1249.84 1383.17 1249.3 1384.98 1249.3C1386.18 1249.29 1387.37 1249.53 1388.48 1249.99C1389.59 1250.44 1390.61 1251.12 1391.46 1251.97C1392.31 1252.82 1392.98 1253.83 1393.44 1254.94C1393.9 1256.05 1394.13 1257.24 1394.12 1258.45Z" fill="black"/>
<path opacity="0.2" d="M1394.12 1522.37C1394.12 1524.18 1393.59 1525.95 1392.58 1527.46C1391.58 1528.96 1390.15 1530.13 1388.48 1530.83C1386.81 1531.52 1384.97 1531.7 1383.19 1531.35C1381.42 1530.99 1379.79 1530.12 1378.51 1528.84C1377.23 1527.56 1376.36 1525.93 1376 1524.16C1375.65 1522.38 1375.83 1520.55 1376.52 1518.87C1377.22 1517.2 1378.39 1515.77 1379.89 1514.77C1381.4 1513.76 1383.17 1513.23 1384.98 1513.23C1386.18 1513.22 1387.37 1513.45 1388.48 1513.91C1389.59 1514.37 1390.61 1515.04 1391.46 1515.89C1392.31 1516.75 1392.98 1517.76 1393.44 1518.87C1393.9 1519.98 1394.13 1521.17 1394.12 1522.37Z" fill="black"/>
<path d="M1647.28 1130.82L1641.7 1556.83H1567.84L1562.3 1130.82L1604.75 1095.42L1647.28 1130.82Z" fill="#FFC727"/>
<path opacity="0.3" d="M1647.28 1130.82L1641.7 1556.83H1567.84L1562.3 1130.82L1604.75 1095.42L1647.28 1130.82Z" fill="black"/>
<path opacity="0.2" d="M1613.94 1258.45C1613.95 1260.27 1613.41 1262.05 1612.41 1263.57C1611.4 1265.08 1609.96 1266.27 1608.28 1266.97C1606.6 1267.67 1604.75 1267.85 1602.97 1267.5C1601.18 1267.15 1599.54 1266.27 1598.25 1264.98C1596.97 1263.7 1596.09 1262.06 1595.74 1260.27C1595.38 1258.48 1595.57 1256.63 1596.27 1254.95C1596.97 1253.27 1598.15 1251.84 1599.67 1250.83C1601.19 1249.83 1602.97 1249.29 1604.79 1249.3C1607.22 1249.3 1609.54 1250.26 1611.26 1251.98C1612.97 1253.69 1613.94 1256.02 1613.94 1258.45Z" fill="black"/>
<path opacity="0.2" d="M1613.94 1513.23C1613.94 1515.05 1613.4 1516.82 1612.39 1518.34C1611.38 1519.85 1609.94 1521.02 1608.26 1521.72C1606.58 1522.41 1604.73 1522.59 1602.94 1522.24C1601.16 1521.88 1599.52 1521 1598.24 1519.71C1596.96 1518.42 1596.09 1516.78 1595.74 1515C1595.39 1513.21 1595.57 1511.36 1596.27 1509.68C1596.98 1508.01 1598.16 1506.57 1599.68 1505.57C1601.19 1504.56 1602.97 1504.03 1604.79 1504.04C1607.22 1504.05 1609.55 1505.02 1611.26 1506.75C1612.97 1508.47 1613.94 1510.8 1613.94 1513.23Z" fill="black"/>
<path d="M259.374 1107.58C259.374 1107.58 341.463 1430.03 373.934 1557.5H704.467C667.323 1426.82 570.384 1066.15 570.384 1066.15L259.374 1107.58Z" fill="#D3766A"/>
<path d="M112.422 1430.03C112.422 1430.03 105.057 1504.08 99.9484 1557.5H415.275C417.216 1511.49 419.75 1452.96 419.869 1452.92L420.225 1452.72L434.045 1445.79L483.782 1421.08L485.841 1420.05L511.105 1407.5C511.105 1407.3 511.62 1405.16 512.332 1401.32C514.114 1392.09 517.678 1373.17 522.153 1349.21C527.697 1319.55 534.627 1282.17 541.319 1245.78C553.911 1177.63 570.385 1066.15 570.385 1066.15H144.854C144.854 1066.15 66.6852 1290.56 112.422 1430.03Z" fill="#D3766A"/>
<path d="M704.467 1557.5L570.385 1066.04H144.854C144.854 1066.04 51.6773 1275.91 102.641 1425.87L78.5254 1557.38L704.467 1557.5Z" fill="#263238"/>
<path d="M389.774 1383.15C414.727 1359.26 441.41 1337.25 469.605 1317.29C483.742 1307.59 498.235 1298.6 513.164 1289.85C520.53 1285.49 527.697 1280.94 534.904 1276.31C542.558 1271.66 549.619 1266.1 555.931 1259.75C556.049 1259.67 556.19 1259.64 556.333 1259.65C556.475 1259.66 556.61 1259.71 556.716 1259.81C556.821 1259.91 556.891 1260.04 556.914 1260.18C556.937 1260.32 556.911 1260.46 556.842 1260.59C551.588 1267.21 545.899 1273.48 539.814 1279.36C533.728 1284.85 527.271 1289.92 520.49 1294.52C506.234 1304.54 491.543 1313.85 477.169 1323.71C448.222 1343.51 419.275 1363.31 391.793 1385.32C390.368 1386.31 388.586 1384.25 389.774 1383.15Z" fill="#37474F"/>
<path d="M332.988 1462.03C356.929 1438.59 382.167 1416.51 408.583 1395.9C421.848 1385.64 435.589 1376.1 449.687 1367.15C456.418 1362.79 463.203 1358.55 470.04 1354.44C477.604 1349.88 485.88 1346.32 493.206 1341.65C493.998 1341.17 494.869 1342.28 494.077 1342.79C487.187 1347.43 481.009 1353.21 474.278 1358.2C467.546 1363.19 460.893 1368.22 454.24 1373.21C440.896 1383.3 427.67 1393.48 414.245 1403.42C387.318 1423.22 360.747 1443.38 334.533 1464.2C333.226 1465.31 331.761 1463.21 332.988 1462.03Z" fill="#37474F"/>
<path d="M528.449 589.977C531.538 569.98 534.033 549.784 535.498 529.509C540.067 500.695 542.371 471.566 542.388 442.392C542.388 394.318 538.824 336.227 495.186 306.646C475.07 293.024 450.954 286.371 427.274 282.332C402.524 278.372 375.795 276.432 352.669 287.639C343.487 292.018 335.459 298.487 329.226 306.527C312.436 311.517 295.448 317.338 281.232 327.515C262.898 335.751 250.543 355.234 242.386 372.658C232.526 393.685 227.457 416.533 223.458 439.303C219.735 460.528 217.359 481.515 222.072 502.661C226.031 521.233 233.951 538.657 241.039 556.199C249.632 577.464 257.631 599.124 258.463 622.29C258.463 623.042 259.691 623.121 259.691 622.29C259.413 585.225 239.891 552.279 229.477 517.551C223.516 497.873 221.815 477.152 224.487 456.766C227.222 433.267 232.317 410.104 239.693 387.626C246.227 368.658 256.523 347.156 272.917 334.167C272.621 334.397 272.343 334.649 272.085 334.92C253.632 352.66 245.554 378.004 239.851 402.238C232.912 429.278 229.963 457.187 231.1 485.079C232.684 510.581 240.406 534.697 248.84 558.654C257.275 582.612 266.264 606.609 268.204 632.031C270.264 658.84 263.254 685.054 255.731 710.516C248.484 735.147 240.366 760.015 239.297 785.755C238.051 809.221 244.261 832.479 257.037 852.202C280.797 888.514 333.543 917.5 374.409 890.85C384.387 883.853 393.435 875.617 401.336 866.339C410.086 856.703 418.296 846.589 425.927 836.045C442.08 813.594 456.043 789.646 467.625 764.53C490.949 714.833 506.59 661.81 519.539 608.589C522.707 595.481 525.717 582.295 528.409 568.99C524.246 599.237 518.362 629.222 510.788 658.8C497.047 711.942 479.109 765.717 450.241 812.88C442.748 825.04 434.537 836.743 425.65 847.925C415.948 860.161 405.177 871.17 394.684 882.653C394.542 882.785 394.458 882.967 394.451 883.16C394.443 883.353 394.513 883.541 394.644 883.683C394.775 883.825 394.958 883.909 395.151 883.916C395.344 883.923 395.532 883.854 395.674 883.722C415.561 866.282 432.891 846.126 447.152 823.849C462.169 801.073 474.726 776.769 484.613 751.343C505.237 699.371 519.941 645.241 528.449 589.977Z" fill="#C7C7C7"/>
<path d="M392.426 699.191C455.191 842.143 542.348 1006.12 593.075 1022.71C647.246 1040.42 852.369 1003.63 923.132 982.165C946.337 975.156 868.05 814.107 843.934 804.603C819.818 795.1 667.521 848.162 651.998 844.955C643.722 843.292 533.597 712.338 457.171 655.315C385.972 602.173 372.468 653.731 392.426 699.191Z" fill="#D3766A"/>
<path d="M785.486 825.908C785.486 825.908 815.582 768.925 834.352 746.71C853.121 724.495 953.149 667.868 966.81 688.816C984.194 715.862 932.795 760.094 904.798 778.349C904.798 778.349 945.11 840.876 915.054 880.554C884.999 920.233 785.486 825.908 785.486 825.908Z" fill="#D3766A"/>
<path d="M905.669 986.838C929.785 981.334 1037.97 946.289 1065.93 929.816C1093.88 913.342 1170.78 860.121 1160.21 837.471C1149.64 814.82 1125.96 828.601 1125.96 828.601C1125.96 828.601 1154.91 800.881 1142.31 779.102C1129.72 757.322 1093.41 779.894 1093.41 779.894C1093.41 779.894 1121.13 749.363 1106.95 728.415C1092.77 707.467 1060.15 736.335 1060.15 736.335C1060.15 736.335 1086.72 709.566 1067.83 697.251C1045.37 682.52 1001.82 737.364 969.622 753.204C962.336 756.847 816.215 815.77 816.215 815.77L905.669 986.838Z" fill="#D3766A"/>
<path d="M1063.15 733.999C1031.12 774.271 1010.13 786.348 962.336 803.02C961.385 803.376 961.662 804.841 962.692 804.564C1011 792.486 1039.47 781.161 1065.17 735.464C1066.44 733.405 1064.66 732.098 1063.15 733.999Z" fill="#263238"/>
<path d="M1096.06 776.647C1059.16 815.573 1036.66 828.878 987.719 850.024C987.636 850.055 987.559 850.102 987.494 850.163C987.43 850.224 987.377 850.296 987.34 850.377C987.304 850.458 987.283 850.546 987.28 850.634C987.277 850.723 987.292 850.812 987.323 850.895C987.354 850.978 987.401 851.054 987.462 851.119C987.523 851.184 987.596 851.237 987.676 851.273C987.757 851.31 987.845 851.331 987.933 851.334C988.022 851.337 988.111 851.322 988.194 851.291C1037.77 834.54 1065.97 822.542 1097.72 778.825C1099.19 776.964 1097.76 774.865 1096.06 776.647Z" fill="#263238"/>
<path d="M1123.62 829.591C1085.13 864.675 1060.98 880.317 1010.96 894.81C1010.84 894.836 1010.72 894.886 1010.62 894.957C1010.52 895.028 1010.43 895.118 1010.36 895.223C1010.23 895.434 1010.18 895.692 1010.23 895.939C1010.28 896.186 1010.43 896.401 1010.64 896.539C1010.85 896.676 1011.11 896.724 1011.36 896.671C1063.79 886.89 1094.12 867.566 1124.53 830.858C1126.63 828.442 1126.04 827.373 1123.62 829.591Z" fill="#263238"/>
<path d="M969.147 697.766C967.206 733.92 928.914 755.58 903.056 775.419C902.664 775.693 902.343 776.057 902.122 776.481C901.901 776.905 901.786 777.376 901.786 777.855C901.786 778.333 901.901 778.804 902.122 779.228C902.343 779.652 902.664 780.016 903.056 780.29C918.222 807.653 931.646 850.618 917.074 880.238C916.974 880.411 916.947 880.617 916.999 880.81C917.051 881.003 917.178 881.168 917.351 881.267C917.524 881.367 917.73 881.394 917.923 881.342C918.116 881.29 918.281 881.163 918.381 880.99C938.18 851.37 928.557 808.049 910.065 779.181C936.873 759.382 974.334 735.622 969.463 697.805C969.463 697.766 969.147 697.766 969.147 697.766Z" fill="#263238"/>
<path d="M778.834 809.434L851.894 1016.18C851.894 1016.18 612.993 1052.3 573.117 1020.42C533.241 988.541 420.304 792.803 391.516 711.981C362.727 631.16 394.486 603.203 465.843 656.939C537.2 710.674 645.821 830.343 652.394 831.412C658.967 832.481 778.834 809.434 778.834 809.434Z" fill="#FFC727"/>
<path opacity="0.1" d="M386.051 647.079C386.058 648.707 385.619 650.306 384.782 651.702C383.944 653.099 382.739 654.239 381.299 654.999C381.671 650.627 382.796 646.354 384.626 642.366C385.552 643.764 386.048 645.402 386.051 647.079ZM478.95 789.635C477.202 789.627 475.491 790.139 474.034 791.104C472.576 792.07 471.438 793.446 470.764 795.059C470.089 796.672 469.909 798.449 470.245 800.164C470.581 801.88 471.419 803.457 472.653 804.696C473.886 805.935 475.459 806.78 477.173 807.124C478.888 807.468 480.665 807.295 482.281 806.628C483.897 805.961 485.278 804.829 486.25 803.376C487.222 801.923 487.741 800.214 487.741 798.466C487.742 796.158 486.839 793.941 485.225 792.291C483.612 790.64 481.416 789.687 479.109 789.635H478.95ZM580.641 789.635C578.893 789.627 577.181 790.139 575.724 791.104C574.267 792.07 573.129 793.446 572.454 795.059C571.78 796.672 571.599 798.449 571.935 800.164C572.272 801.88 573.11 803.457 574.343 804.696C575.576 805.935 577.15 806.78 578.864 807.124C580.578 807.468 582.355 807.295 583.971 806.628C585.587 805.961 586.969 804.829 587.941 803.376C588.913 801.923 589.432 800.214 589.432 798.466C589.432 796.131 588.507 793.89 586.859 792.236C585.212 790.581 582.976 789.646 580.641 789.635ZM428.066 714.159C426.318 714.159 424.609 714.678 423.156 715.65C421.703 716.623 420.571 718.004 419.904 719.62C419.236 721.236 419.064 723.013 419.408 724.727C419.752 726.441 420.597 728.015 421.836 729.248C423.075 730.482 424.652 731.32 426.367 731.656C428.083 731.992 429.86 731.811 431.473 731.137C433.085 730.463 434.462 729.325 435.427 727.867C436.393 726.41 436.904 724.699 436.896 722.95C436.902 721.791 436.677 720.642 436.234 719.571C435.792 718.499 435.141 717.526 434.319 716.708C433.498 715.891 432.522 715.244 431.448 714.806C430.375 714.369 429.225 714.149 428.066 714.159ZM537.913 719.585C538.36 720.65 538.589 721.795 538.587 722.95C538.594 724.7 538.082 726.413 537.115 727.871C536.148 729.33 534.769 730.468 533.154 731.141C531.538 731.814 529.76 731.992 528.043 731.653C526.326 731.313 524.749 730.471 523.512 729.234C522.275 727.997 521.433 726.42 521.093 724.703C520.754 722.986 520.932 721.208 521.605 719.592C522.279 717.977 523.416 716.599 524.875 715.631C526.333 714.664 528.046 714.152 529.796 714.159C530.766 714.153 531.731 714.313 532.647 714.635L537.913 719.585ZM580.641 940.983C578.893 940.975 577.181 941.486 575.724 942.452C574.267 943.417 573.129 944.793 572.454 946.406C571.78 948.019 571.599 949.796 571.935 951.512C572.272 953.227 573.11 954.804 574.343 956.043C575.576 957.282 577.15 958.127 578.864 958.471C580.578 958.815 582.355 958.642 583.971 957.975C585.587 957.308 586.969 956.176 587.941 954.723C588.913 953.27 589.432 951.561 589.432 949.813C589.432 947.478 588.507 945.238 586.859 943.583C585.212 941.928 582.976 940.993 580.641 940.983ZM682.331 940.983C680.584 940.983 678.877 941.501 677.425 942.471C675.973 943.441 674.841 944.82 674.173 946.434C673.504 948.047 673.329 949.823 673.67 951.536C674.011 953.249 674.852 954.822 676.087 956.057C677.322 957.292 678.895 958.133 680.608 958.474C682.321 958.815 684.097 958.64 685.71 957.972C687.324 957.303 688.703 956.171 689.673 954.719C690.644 953.267 691.162 951.56 691.162 949.813C691.162 947.471 690.231 945.225 688.575 943.569C686.919 941.913 684.673 940.983 682.331 940.983ZM784.021 940.983C782.275 940.983 780.567 941.501 779.115 942.471C777.663 943.441 776.531 944.82 775.863 946.434C775.194 948.047 775.02 949.823 775.36 951.536C775.701 953.249 776.542 954.822 777.777 956.057C779.012 957.292 780.585 958.133 782.298 958.474C784.011 958.815 785.787 958.64 787.4 957.972C789.014 957.303 790.393 956.171 791.364 954.719C792.334 953.267 792.852 951.56 792.852 949.813C792.852 947.471 791.921 945.225 790.265 943.569C788.609 941.913 786.363 940.983 784.021 940.983ZM529.796 865.507C528.046 865.499 526.333 866.011 524.875 866.979C523.416 867.946 522.279 869.325 521.605 870.94C520.932 872.555 520.754 874.334 521.093 876.05C521.433 877.767 522.275 879.344 523.512 880.582C524.749 881.819 526.326 882.661 528.043 883C529.76 883.34 531.538 883.161 533.154 882.488C534.769 881.815 536.148 880.677 537.115 879.219C538.082 877.76 538.594 876.048 538.587 874.298C538.587 871.966 537.66 869.73 536.012 868.082C534.363 866.433 532.127 865.507 529.796 865.507ZM631.486 865.507C629.738 865.507 628.029 866.026 626.576 866.998C625.123 867.97 623.991 869.352 623.324 870.967C622.657 872.583 622.484 874.361 622.828 876.075C623.172 877.789 624.017 879.362 625.256 880.596C626.495 881.829 628.072 882.667 629.787 883.003C631.503 883.339 633.28 883.159 634.893 882.484C636.506 881.81 637.882 880.672 638.847 879.215C639.813 877.757 640.324 876.046 640.316 874.298C640.316 873.14 640.088 871.994 639.643 870.924C639.199 869.855 638.548 868.885 637.728 868.068C636.907 867.251 635.933 866.604 634.862 866.165C633.791 865.725 632.644 865.502 631.486 865.507ZM733.176 865.507C731.428 865.507 729.719 866.026 728.266 866.998C726.813 867.97 725.681 869.352 725.014 870.967C724.347 872.583 724.174 874.361 724.518 876.075C724.862 877.789 725.707 879.362 726.946 880.596C728.185 881.829 729.762 882.667 731.478 883.003C733.193 883.339 734.97 883.159 736.583 882.484C738.196 881.81 739.572 880.672 740.538 879.215C741.503 877.757 742.014 876.046 742.007 874.298C742.007 873.14 741.778 871.994 741.334 870.924C740.889 869.855 740.238 868.885 739.418 868.068C738.597 867.251 737.624 866.604 736.552 866.165C735.481 865.725 734.334 865.502 733.176 865.507ZM631.486 1016.85C629.144 1016.85 626.898 1017.78 625.242 1019.44C623.586 1021.1 622.655 1023.34 622.655 1025.68C622.651 1027.09 622.987 1028.48 623.636 1029.73C624.284 1030.97 625.225 1032.05 626.378 1032.85C629.466 1033.05 632.595 1033.17 635.842 1033.29C637.536 1032.33 638.862 1030.83 639.612 1029.03C640.362 1027.23 640.493 1025.24 639.986 1023.35C639.478 1021.47 638.36 1019.81 636.807 1018.64C635.254 1017.46 633.355 1016.83 631.407 1016.85H631.486ZM733.176 1016.85C730.834 1016.85 728.588 1017.78 726.932 1019.44C725.276 1021.1 724.345 1023.34 724.345 1025.68C724.344 1027.36 724.825 1028.99 725.731 1030.4C730.959 1030 736.186 1029.57 741.333 1029.09C741.784 1028.01 742.013 1026.85 742.007 1025.68C742.007 1023.34 741.076 1021.1 739.42 1019.44C737.764 1017.78 735.518 1016.85 733.176 1016.85ZM834.866 1016.85C832.523 1016.86 830.276 1017.78 828.61 1019.43L839.183 1018C837.875 1017.24 836.383 1016.84 834.866 1016.85Z" fill="#040403"/>
<path d="M736.898 829.789C749.412 861.191 780.814 947.516 793.485 1006.36C793.485 1006.72 792.179 1007.19 792.06 1006.88C773.765 959.673 744.541 862.933 734.879 830.462C734.681 829.868 736.502 829.195 736.898 829.789Z" fill="#263238"/>
<path opacity="0.1" d="M774.794 1025.84C701.259 1033.76 598.104 1040.42 573.117 1020.42C533.24 988.501 420.304 792.962 391.516 711.982C367.756 645.574 384.982 614.924 431.115 635.674C513.837 728.93 702.566 942.21 774.794 1025.84Z" fill="#020100"/>
<path d="M140.617 1059.98H566.227L539.498 942.171C539.498 942.171 583.294 911.877 569.949 860.24C551.219 787.734 445.41 640.268 436.263 632.427C399.475 600.946 343.245 601.857 314.575 625.933C183.74 735.583 140.617 1059.98 140.617 1059.98Z" fill="white"/>
<path d="M391.991 915.56C411.331 913.805 430.774 913.474 450.162 914.57C459.785 915.283 469.288 916.392 478.871 917.738C483.623 918.411 488.375 918.886 493.167 919.362C498.164 919.975 503.217 919.975 508.214 919.362C508.65 919.362 508.729 919.956 508.214 920.035C503.586 921.118 498.889 921.885 494.157 922.332C489.568 922.629 484.965 922.629 480.376 922.332C470.595 921.698 460.854 920.668 451.112 919.956C431.313 918.53 411.711 917.144 391.951 917.144C391.239 917.223 391.199 915.56 391.991 915.56Z" fill="#263238"/>
<path d="M348.155 940.983C363.535 936.517 379.147 932.895 394.922 930.132C402.841 928.826 410.761 927.954 418.681 927.281C422.641 926.965 426.324 926.727 430.165 926.489C434.006 926.252 438.599 926.489 442.797 926.489C443.232 926.489 443.351 927.123 442.797 927.163C438.837 927.558 434.877 928.628 430.917 929.222L419.037 931.043C411.118 932.271 403.198 933.617 395.278 934.766C379.438 937.102 363.599 939.557 347.997 942.448C347.522 942.448 347.363 941.22 348.155 940.983Z" fill="#263238"/>
<path d="M331.563 615.598C331.563 615.598 372.112 872.199 365.737 918.292C359.361 964.386 316.515 1503.72 316.515 1503.72C140.617 1504.83 20.2356 1447.34 20.2356 1447.34C20.2356 1447.34 56.3499 1219.24 126.044 1059.98C126.044 1059.98 188.413 677.966 331.563 615.598Z" fill="#FFC727"/>
<path opacity="0.1" d="M283.688 650.246C282.884 652.28 281.343 653.934 279.371 654.879C280.797 653.454 282.222 651.909 283.688 650.246ZM275.53 789.476C273.784 789.476 272.076 789.994 270.624 790.965C269.172 791.935 268.04 793.314 267.372 794.928C266.703 796.541 266.529 798.317 266.869 800.03C267.21 801.743 268.051 803.316 269.286 804.551C270.521 805.786 272.094 806.627 273.807 806.968C275.52 807.309 277.296 807.134 278.909 806.465C280.523 805.797 281.902 804.665 282.873 803.213C283.843 801.761 284.361 800.054 284.361 798.307C284.319 795.993 283.371 793.787 281.719 792.165C280.067 790.543 277.845 789.634 275.53 789.635V789.476ZM233.357 721.525C231.562 724.745 229.82 727.992 228.13 731.266C229.768 730.585 231.164 729.429 232.138 727.946C233.113 726.464 233.62 724.724 233.595 722.95C233.566 722.468 233.486 721.99 233.357 721.525ZM326.375 714.317C324.627 714.318 322.918 714.836 321.465 715.809C320.012 716.781 318.88 718.162 318.213 719.778C317.546 721.394 317.373 723.171 317.717 724.885C318.061 726.6 318.906 728.173 320.145 729.406C321.384 730.64 322.961 731.478 324.677 731.814C326.393 732.15 328.169 731.969 329.782 731.295C331.395 730.621 332.771 729.483 333.737 728.025C334.702 726.568 335.214 724.857 335.206 723.108C335.232 721.936 335.023 720.77 334.59 719.68C334.157 718.59 333.51 717.598 332.686 716.763C331.862 715.929 330.879 715.268 329.795 714.821C328.711 714.373 327.548 714.148 326.375 714.159V714.317ZM173.84 940.982C172.093 940.982 170.386 941.5 168.934 942.471C167.482 943.441 166.35 944.82 165.682 946.434C165.013 948.047 164.838 949.823 165.179 951.536C165.52 953.249 166.361 954.822 167.596 956.057C168.831 957.292 170.404 958.133 172.117 958.474C173.83 958.814 175.606 958.64 177.219 957.971C178.833 957.303 180.212 956.171 181.182 954.719C182.153 953.267 182.671 951.559 182.671 949.813C182.671 947.471 181.74 945.225 180.084 943.569C178.428 941.913 176.182 940.982 173.84 940.982ZM275.53 940.982C273.784 940.982 272.076 941.5 270.624 942.471C269.172 943.441 268.04 944.82 267.372 946.434C266.703 948.047 266.529 949.823 266.869 951.536C267.21 953.249 268.051 954.822 269.286 956.057C270.521 957.292 272.094 958.133 273.807 958.474C275.52 958.814 277.296 958.64 278.909 957.971C280.523 957.303 281.902 956.171 282.873 954.719C283.843 953.267 284.361 951.559 284.361 949.813C284.361 947.471 283.43 945.225 281.774 943.569C280.118 941.913 277.872 940.982 275.53 940.982ZM224.685 865.506C222.94 865.522 221.239 866.054 219.797 867.036C218.354 868.017 217.235 869.404 216.58 871.022C215.925 872.639 215.763 874.414 216.116 876.122C216.469 877.831 217.32 879.397 218.562 880.623C219.804 881.848 221.381 882.678 223.095 883.008C224.808 883.338 226.581 883.153 228.189 882.476C229.797 881.799 231.169 880.661 232.131 879.206C233.093 877.75 233.603 876.042 233.595 874.297C233.595 873.133 233.364 871.98 232.914 870.906C232.465 869.831 231.807 868.857 230.978 868.039C230.149 867.221 229.166 866.576 228.086 866.141C227.005 865.707 225.849 865.491 224.685 865.506ZM326.375 865.506C324.627 865.506 322.918 866.026 321.465 866.998C320.012 867.97 318.88 869.351 318.213 870.967C317.546 872.583 317.373 874.36 317.717 876.074C318.061 877.789 318.906 879.362 320.145 880.595C321.384 881.829 322.961 882.667 324.677 883.003C326.393 883.339 328.169 883.159 329.782 882.484C331.395 881.81 332.771 880.672 333.737 879.214C334.702 877.757 335.214 876.046 335.206 874.297C335.211 873.138 334.986 871.989 334.544 870.918C334.101 869.846 333.45 868.873 332.629 868.055C331.807 867.238 330.831 866.591 329.758 866.153C328.684 865.716 327.535 865.496 326.375 865.506ZM173.84 1092.33C172.093 1092.33 170.386 1092.85 168.934 1093.82C167.482 1094.79 166.35 1096.17 165.682 1097.78C165.013 1099.39 164.838 1101.17 165.179 1102.88C165.52 1104.6 166.361 1106.17 167.596 1107.4C168.831 1108.64 170.404 1109.48 172.117 1109.82C173.83 1110.16 175.606 1109.99 177.219 1109.32C178.833 1108.65 180.212 1107.52 181.182 1106.07C182.153 1104.61 182.671 1102.91 182.671 1101.16C182.671 1098.82 181.74 1096.57 180.084 1094.92C178.428 1093.26 176.182 1092.33 173.84 1092.33ZM275.53 1092.33C273.784 1092.33 272.076 1092.85 270.624 1093.82C269.172 1094.79 268.04 1096.17 267.372 1097.78C266.703 1099.39 266.529 1101.17 266.869 1102.88C267.21 1104.6 268.051 1106.17 269.286 1107.4C270.521 1108.64 272.094 1109.48 273.807 1109.82C275.52 1110.16 277.296 1109.99 278.909 1109.32C280.523 1108.65 281.902 1107.52 282.873 1106.07C283.843 1104.61 284.361 1102.91 284.361 1101.16C284.361 1098.82 283.43 1096.57 281.774 1094.92C280.118 1093.26 277.872 1092.33 275.53 1092.33ZM224.685 1016.85C222.942 1016.87 221.243 1017.4 219.801 1018.38C218.359 1019.36 217.24 1020.74 216.583 1022.36C215.927 1023.97 215.763 1025.75 216.113 1027.46C216.463 1029.16 217.31 1030.73 218.548 1031.96C219.786 1033.18 221.36 1034.02 223.07 1034.35C224.781 1034.69 226.553 1034.51 228.162 1033.83C229.771 1033.16 231.145 1032.03 232.112 1030.58C233.079 1029.13 233.595 1027.43 233.595 1025.68C233.595 1024.52 233.364 1023.36 232.915 1022.29C232.466 1021.21 231.809 1020.23 230.98 1019.41C230.152 1018.59 229.169 1017.94 228.089 1017.5C227.008 1017.06 225.851 1016.84 224.685 1016.85ZM326.375 1016.85C324.629 1016.85 322.921 1017.37 321.469 1018.34C320.017 1019.31 318.885 1020.69 318.217 1022.31C317.549 1023.92 317.374 1025.69 317.714 1027.41C318.055 1029.12 318.896 1030.69 320.131 1031.93C321.366 1033.16 322.94 1034 324.653 1034.35C326.366 1034.69 328.141 1034.51 329.755 1033.84C331.368 1033.17 332.747 1032.04 333.718 1030.59C334.688 1029.14 335.206 1027.43 335.206 1025.68C335.211 1024.52 334.986 1023.37 334.544 1022.3C334.102 1021.23 333.452 1020.25 332.631 1019.43C331.81 1018.61 330.835 1017.96 329.761 1017.52C328.687 1017.07 327.536 1016.85 326.375 1016.85ZM72.1497 1243.68C70.4031 1243.68 68.6958 1244.19 67.2437 1245.17C65.7915 1246.14 64.6596 1247.51 63.9913 1249.13C63.3229 1250.74 63.148 1252.52 63.4888 1254.23C63.8295 1255.94 64.6705 1257.52 65.9055 1258.75C67.1405 1259.99 68.7139 1260.83 70.4269 1261.17C72.1399 1261.51 73.9154 1261.33 75.529 1260.67C77.1426 1260 78.5217 1258.87 79.492 1257.41C80.4623 1255.96 80.9802 1254.25 80.9802 1252.51C80.9802 1251.35 80.7518 1250.2 80.3081 1249.13C79.8643 1248.06 79.2138 1247.08 78.3938 1246.26C77.5738 1245.44 76.6004 1244.79 75.529 1244.35C74.4576 1243.91 73.3093 1243.68 72.1497 1243.68ZM173.84 1243.68C172.093 1243.68 170.386 1244.19 168.934 1245.17C167.482 1246.14 166.35 1247.51 165.682 1249.13C165.013 1250.74 164.838 1252.52 165.179 1254.23C165.52 1255.94 166.361 1257.52 167.596 1258.75C168.831 1259.99 170.404 1260.83 172.117 1261.17C173.83 1261.51 175.606 1261.33 177.219 1260.67C178.833 1260 180.212 1258.87 181.182 1257.41C182.153 1255.96 182.671 1254.25 182.671 1252.51C182.671 1250.17 181.74 1247.92 180.084 1246.26C178.428 1244.61 176.182 1243.68 173.84 1243.68ZM275.53 1243.68C273.784 1243.68 272.076 1244.19 270.624 1245.17C269.172 1246.14 268.04 1247.51 267.372 1249.13C266.703 1250.74 266.529 1252.52 266.869 1254.23C267.21 1255.94 268.051 1257.52 269.286 1258.75C270.521 1259.99 272.094 1260.83 273.807 1261.17C275.52 1261.51 277.296 1261.33 278.909 1260.67C280.523 1260 281.902 1258.87 282.873 1257.41C283.843 1255.96 284.361 1254.25 284.361 1252.51C284.361 1250.17 283.43 1247.92 281.774 1246.26C280.118 1244.61 277.872 1243.68 275.53 1243.68ZM122.995 1168.2C121.243 1168.2 119.531 1168.72 118.077 1169.7C116.622 1170.67 115.49 1172.06 114.826 1173.68C114.161 1175.3 113.993 1177.08 114.344 1178.8C114.694 1180.51 115.547 1182.09 116.794 1183.32C118.041 1184.55 119.625 1185.38 121.346 1185.71C123.067 1186.03 124.846 1185.84 126.457 1185.16C128.069 1184.47 129.439 1183.32 130.395 1181.85C131.351 1180.38 131.849 1178.66 131.825 1176.91C131.794 1174.59 130.85 1172.38 129.197 1170.75C127.545 1169.12 125.316 1168.2 122.995 1168.2ZM224.685 1168.2C222.937 1168.22 221.233 1168.75 219.789 1169.74C218.345 1170.72 217.225 1172.11 216.573 1173.74C215.92 1175.36 215.764 1177.14 216.123 1178.85C216.482 1180.56 217.341 1182.12 218.591 1183.35C219.841 1184.57 221.426 1185.39 223.144 1185.71C224.863 1186.03 226.638 1185.84 228.245 1185.15C229.851 1184.46 231.217 1183.31 232.17 1181.84C233.122 1180.38 233.618 1178.66 233.595 1176.91C233.564 1174.58 232.608 1172.35 230.939 1170.72C229.269 1169.08 227.02 1168.18 224.685 1168.2ZM326.375 1168.2C324.629 1168.2 322.921 1168.72 321.469 1169.69C320.017 1170.66 318.885 1172.04 318.217 1173.65C317.549 1175.27 317.374 1177.04 317.714 1178.75C318.055 1180.47 318.896 1182.04 320.131 1183.28C321.366 1184.51 322.94 1185.35 324.653 1185.69C326.366 1186.03 328.141 1185.86 329.755 1185.19C331.368 1184.52 332.747 1183.39 333.718 1181.94C334.688 1180.49 335.206 1178.78 335.206 1177.03C335.211 1175.87 334.986 1174.72 334.544 1173.65C334.102 1172.57 333.452 1171.6 332.631 1170.78C331.81 1169.95 330.835 1169.3 329.761 1168.86C328.687 1168.42 327.536 1168.2 326.375 1168.2ZM72.1497 1395.02C70.4031 1395.02 68.6958 1395.54 67.2437 1396.51C65.7915 1397.48 64.6596 1398.86 63.9913 1400.48C63.3229 1402.09 63.148 1403.86 63.4888 1405.58C63.8295 1407.29 64.6705 1408.86 65.9055 1410.1C67.1405 1411.33 68.7139 1412.18 70.4269 1412.52C72.1399 1412.86 73.9154 1412.68 75.529 1412.01C77.1426 1411.34 78.5217 1410.21 79.492 1408.76C80.4623 1407.31 80.9802 1405.6 80.9802 1403.85C80.9802 1402.7 80.7518 1401.55 80.3081 1400.48C79.8643 1399.4 79.2138 1398.43 78.3938 1397.61C77.5738 1396.79 76.6004 1396.14 75.529 1395.7C74.4576 1395.25 73.3093 1395.02 72.1497 1395.02ZM173.84 1395.02C172.093 1395.02 170.386 1395.54 168.934 1396.51C167.482 1397.48 166.35 1398.86 165.682 1400.48C165.013 1402.09 164.838 1403.86 165.179 1405.58C165.52 1407.29 166.361 1408.86 167.596 1410.1C168.831 1411.33 170.404 1412.18 172.117 1412.52C173.83 1412.86 175.606 1412.68 177.219 1412.01C178.833 1411.34 180.212 1410.21 181.182 1408.76C182.153 1407.31 182.671 1405.6 182.671 1403.85C182.671 1402.7 182.442 1401.55 181.998 1400.48C181.555 1399.4 180.904 1398.43 180.084 1397.61C179.264 1396.79 178.291 1396.14 177.219 1395.7C176.148 1395.25 175 1395.02 173.84 1395.02ZM275.53 1395.02C273.784 1395.02 272.076 1395.54 270.624 1396.51C269.172 1397.48 268.04 1398.86 267.372 1400.48C266.703 1402.09 266.529 1403.86 266.869 1405.58C267.21 1407.29 268.051 1408.86 269.286 1410.1C270.521 1411.33 272.094 1412.18 273.807 1412.52C275.52 1412.86 277.296 1412.68 278.909 1412.01C280.523 1411.34 281.902 1410.21 282.873 1408.76C283.843 1407.31 284.361 1405.6 284.361 1403.85C284.361 1402.7 284.132 1401.55 283.689 1400.48C283.245 1399.4 282.594 1398.43 281.774 1397.61C280.954 1396.79 279.981 1396.14 278.909 1395.7C277.838 1395.25 276.69 1395.02 275.53 1395.02ZM122.995 1319.47C121.248 1319.47 119.541 1319.99 118.089 1320.96C116.637 1321.93 115.505 1323.31 114.836 1324.92C114.168 1326.53 113.993 1328.31 114.334 1330.02C114.675 1331.74 115.516 1333.31 116.751 1334.54C117.986 1335.78 119.559 1336.62 121.272 1336.96C122.985 1337.3 124.761 1337.13 126.374 1336.46C127.988 1335.79 129.367 1334.66 130.337 1333.21C131.307 1331.75 131.825 1330.05 131.825 1328.3C131.825 1327.14 131.597 1325.99 131.153 1324.92C130.709 1323.85 130.059 1322.88 129.239 1322.06C128.419 1321.24 127.445 1320.59 126.374 1320.14C125.303 1319.7 124.154 1319.47 122.995 1319.47ZM224.685 1319.47C222.945 1319.49 221.249 1320.01 219.809 1320.99C218.369 1321.97 217.25 1323.35 216.591 1324.96C215.933 1326.57 215.764 1328.34 216.108 1330.04C216.451 1331.75 217.29 1333.31 218.52 1334.54C219.751 1335.77 221.317 1336.61 223.022 1336.96C224.728 1337.3 226.497 1337.13 228.107 1336.47C229.717 1335.81 231.097 1334.7 232.074 1333.26C233.05 1331.82 233.579 1330.12 233.595 1328.38C233.605 1327.21 233.382 1326.04 232.938 1324.96C232.494 1323.87 231.838 1322.89 231.009 1322.06C230.179 1321.23 229.193 1320.57 228.107 1320.13C227.021 1319.68 225.858 1319.46 224.685 1319.47ZM326.375 1319.47C324.033 1319.47 321.787 1320.4 320.131 1322.06C318.475 1323.71 317.545 1325.96 317.545 1328.3C317.545 1330.64 318.475 1332.89 320.131 1334.54C321.787 1336.2 324.033 1337.13 326.375 1337.13C327.602 1337.13 328.815 1336.87 329.939 1336.38C330.335 1331.27 330.771 1326.12 331.206 1320.9C329.768 1319.96 328.09 1319.47 326.375 1319.47ZM122.995 1470.9C120.772 1470.9 118.632 1471.74 117.002 1473.25C115.373 1474.77 114.373 1476.84 114.204 1479.05C119.629 1480.44 125.252 1481.83 131.113 1483.01C131.591 1481.93 131.834 1480.75 131.825 1479.57C131.784 1477.25 130.835 1475.05 129.184 1473.43C127.532 1471.8 125.31 1470.9 122.995 1470.9ZM224.685 1470.9C222.942 1470.91 221.243 1471.44 219.801 1472.42C218.359 1473.4 217.24 1474.79 216.583 1476.4C215.927 1478.02 215.763 1479.79 216.113 1481.5C216.463 1483.21 217.31 1484.77 218.548 1486C219.786 1487.23 221.36 1488.06 223.07 1488.39C224.781 1488.73 226.553 1488.55 228.162 1487.88C229.771 1487.21 231.145 1486.07 232.112 1484.62C233.079 1483.17 233.595 1481.47 233.595 1479.73C233.595 1478.56 233.364 1477.41 232.915 1476.33C232.466 1475.25 231.809 1474.28 230.98 1473.45C230.152 1472.63 229.169 1471.98 228.089 1471.55C227.008 1471.11 225.851 1470.89 224.685 1470.9ZM317.584 1479.73C317.579 1480.81 317.78 1481.89 318.178 1482.89C318.178 1480.56 318.574 1478.02 318.772 1475.33C317.997 1476.67 317.587 1478.18 317.584 1479.73Z" fill="#040403"/>
<path d="M436.184 632.427C436.184 632.427 496.889 803.891 502.631 862.101C508.373 920.312 595.887 1495.69 595.887 1495.69C595.887 1495.69 658.057 1481.63 688.351 1447.41L556.209 938.844C556.209 938.844 591.333 896.236 579.493 853.706C567.653 811.177 494.949 665.69 436.184 632.427Z" fill="#FFC727"/>
<path opacity="0.1" d="M538.508 874.298C538.516 876.048 538.003 877.761 537.036 879.219C536.069 880.677 534.69 881.815 533.075 882.488C531.46 883.162 529.681 883.34 527.964 883C526.248 882.661 524.67 881.819 523.433 880.582C522.196 879.344 521.354 877.767 521.014 876.051C520.675 874.334 520.853 872.555 521.526 870.94C522.2 869.325 523.338 867.946 524.796 866.979C526.254 866.011 527.967 865.499 529.717 865.507C530.871 865.507 532.014 865.734 533.081 866.176C534.148 866.618 535.117 867.265 535.933 868.082C536.749 868.898 537.397 869.867 537.839 870.934C538.28 872 538.508 873.143 538.508 874.298ZM580.562 1092.33C578.814 1092.32 577.103 1092.83 575.645 1093.8C574.188 1094.76 573.05 1096.14 572.375 1097.75C571.701 1099.37 571.52 1101.14 571.857 1102.86C572.193 1104.57 573.031 1106.15 574.264 1107.39C575.498 1108.63 577.071 1109.47 578.785 1109.82C580.499 1110.16 582.277 1109.99 583.892 1109.32C585.508 1108.66 586.89 1107.52 587.862 1106.07C588.834 1104.62 589.353 1102.91 589.353 1101.16C589.353 1098.84 588.439 1096.61 586.809 1094.96C585.178 1093.31 582.962 1092.36 580.641 1092.33H580.562ZM529.796 1016.85C527.88 1016.85 526.016 1017.48 524.49 1018.64C525.203 1023.67 525.955 1028.77 526.707 1033.92C527.909 1034.35 529.19 1034.51 530.461 1034.4C531.732 1034.28 532.963 1033.89 534.068 1033.26C535.173 1032.62 536.126 1031.75 536.86 1030.7C537.594 1029.66 538.092 1028.47 538.319 1027.21C538.547 1025.95 538.498 1024.66 538.176 1023.43C537.854 1022.19 537.267 1021.04 536.456 1020.06C535.645 1019.07 534.629 1018.28 533.479 1017.72C532.329 1017.17 531.072 1016.87 529.796 1016.85ZM580.641 1243.68C578.893 1243.67 577.182 1244.18 575.724 1245.15C574.267 1246.11 573.129 1247.49 572.455 1249.1C571.78 1250.71 571.6 1252.49 571.936 1254.21C572.272 1255.92 573.11 1257.5 574.343 1258.74C575.577 1259.98 577.15 1260.82 578.864 1261.17C580.578 1261.51 582.356 1261.34 583.972 1260.67C585.588 1260 586.969 1258.87 587.941 1257.42C588.913 1255.97 589.432 1254.26 589.432 1252.51C589.432 1250.17 588.507 1247.93 586.86 1246.28C585.212 1244.62 582.976 1243.69 580.641 1243.68ZM580.641 1395.02C581.552 1401 582.423 1406.9 583.255 1412.29C585.273 1411.66 587 1410.34 588.122 1408.55C589.244 1406.76 589.687 1404.62 589.371 1402.53C589.055 1400.44 588 1398.54 586.398 1397.16C584.797 1395.78 582.754 1395.03 580.641 1395.02ZM675.679 1398.15C674.33 1399.75 673.586 1401.77 673.58 1403.86C673.57 1405.65 674.117 1407.41 675.145 1408.88C676.173 1410.36 677.632 1411.48 679.322 1412.09L675.679 1398.15ZM631.486 1319.47C629.74 1319.47 628.032 1319.99 626.58 1320.96C625.128 1321.93 623.996 1323.31 623.328 1324.92C622.659 1326.53 622.485 1328.31 622.825 1330.02C623.166 1331.74 624.007 1333.31 625.242 1334.54C626.477 1335.78 628.051 1336.62 629.763 1336.96C631.476 1337.3 633.252 1337.13 634.866 1336.46C636.479 1335.79 637.858 1334.66 638.829 1333.21C639.799 1331.75 640.317 1330.05 640.317 1328.3C640.317 1325.96 639.386 1323.71 637.73 1322.06C636.074 1320.4 633.828 1319.47 631.486 1319.47ZM631.486 1470.82C629.144 1470.82 626.898 1471.75 625.242 1473.4C623.586 1475.06 622.656 1477.31 622.656 1479.65C622.658 1480.86 622.909 1482.07 623.392 1483.18C623.876 1484.3 624.582 1485.31 625.467 1486.14C630.14 1484.36 635.129 1482.18 640.277 1479.96V1479.65C640.256 1477.33 639.322 1475.11 637.677 1473.47C636.032 1471.83 633.808 1470.91 631.486 1470.9V1470.82Z" fill="#040403"/>
<path d="M334.929 626.685C337.74 634.882 373.934 684.143 419.433 672.462C445.885 665.69 427.036 617.657 427.036 617.657L436.144 540.201L334.889 489.752C334.889 489.752 333.78 623.201 334.929 626.685Z" fill="#D3766A"/>
<path d="M334.691 539.607C344.291 557.624 357.496 573.471 373.485 586.163C389.475 598.855 407.905 608.12 427.63 613.38L436.223 540.241L334.969 489.752C334.969 489.752 334.81 512.244 334.691 539.607Z" fill="#263238"/>
<path d="M525.241 434.947C533.636 562.416 458.2 581.82 430.719 583.602C405.771 585.186 320.594 587.561 299.091 461.597C277.589 335.633 334.216 291.321 391.12 284.748C448.023 278.174 516.886 307.438 525.241 434.947Z" fill="#D3766A"/>
<path d="M502.552 416.81C499.615 416.392 496.705 415.797 493.84 415.029C490.694 414.843 487.699 413.617 485.326 411.544C484.713 410.742 484.38 409.761 484.38 408.752C484.38 407.743 484.713 406.762 485.326 405.96C486.77 404.556 488.564 403.566 490.521 403.092C492.479 402.618 494.527 402.679 496.453 403.268C500.512 403.859 504.208 405.933 506.828 409.089C507.373 409.839 507.693 410.728 507.749 411.653C507.806 412.578 507.598 413.5 507.149 414.311C506.7 415.122 506.028 415.788 505.214 416.231C504.4 416.673 503.476 416.874 502.552 416.81Z" fill="#C7C7C7"/>
<path d="M413.929 422.711C416.851 422.246 419.746 421.625 422.601 420.85C425.738 420.582 428.707 419.32 431.075 417.246C431.689 416.445 432.021 415.464 432.021 414.455C432.021 413.445 431.689 412.464 431.075 411.663C429.605 410.276 427.791 409.307 425.822 408.854C423.852 408.402 421.797 408.483 419.869 409.089C415.777 409.698 412.062 411.817 409.454 415.029C408.906 415.792 408.591 416.698 408.547 417.637C408.502 418.576 408.73 419.507 409.203 420.319C409.676 421.131 410.374 421.789 411.213 422.214C412.051 422.638 412.994 422.811 413.929 422.711Z" fill="#C7C7C7"/>
<path d="M431.59 454.034C431.59 453.717 430.917 454.469 430.917 454.826C431.471 463.537 430.6 473.635 422.997 476.763C422.76 476.763 422.799 477.318 422.997 477.278C432.343 475.615 433.333 462.231 431.59 454.034Z" fill="#263238"/>
<path d="M423.354 445.124C409.256 444.49 408.979 472.843 422.047 473.318C435.114 473.793 435.154 445.678 423.354 445.124Z" fill="#263238"/>
<path d="M417.81 446.55C415.315 448.133 412.86 450.945 409.89 451.183C406.92 451.42 403.871 448.529 401.653 445.678C401.455 445.362 401.178 445.678 401.178 445.995C401.178 451.381 403.079 456.964 408.86 457.875C414.642 458.786 418.008 453.915 419.394 448.49C419.711 447.421 418.8 445.916 417.81 446.55Z" fill="#263238"/>
<path d="M482.039 452.45C482.039 452.133 482.712 452.885 482.673 453.242C482.277 461.993 483.227 472.051 491.107 475.1C491.345 475.1 491.305 475.655 491.107 475.615C481.406 474.071 480.218 460.686 482.039 452.45Z" fill="#263238"/>
<path d="M489.999 443.461C504.096 442.669 504.69 470.863 491.662 471.616C478.634 472.368 478.198 444.332 489.999 443.461Z" fill="#263238"/>
<path d="M495.938 445.203C498.196 446.668 500.453 449.163 503.106 449.44C505.759 449.717 508.412 446.47 510.353 443.5C510.551 443.183 510.749 443.5 510.788 443.817C511.026 449.202 509.363 454.825 504.215 455.974C499.067 457.122 495.938 452.489 494.553 447.143C494.275 446.153 494.949 444.609 495.938 445.203Z" fill="#263238"/>
<path d="M433.689 524.164C435.629 526.302 437.649 529.232 440.737 529.668C443.987 529.787 447.225 529.22 450.241 528.005C450.303 527.986 450.369 527.987 450.431 528.008C450.492 528.028 450.546 528.067 450.585 528.118C450.623 528.17 450.645 528.232 450.648 528.297C450.65 528.362 450.633 528.425 450.598 528.48C449.228 530.092 447.452 531.309 445.454 532.005C443.456 532.702 441.308 532.852 439.233 532.44C437.511 531.882 435.989 530.837 434.85 529.431C433.712 528.025 433.006 526.319 432.818 524.52C432.699 523.966 433.372 523.847 433.689 524.164Z" fill="#263238"/>
<path d="M470.159 492.484C470.159 492.484 471.981 505.512 472.021 511.69C472.021 512.244 470.516 512.521 468.417 512.68C468.417 512.68 468.417 512.68 468.18 512.68C462.892 513.642 457.441 513.136 452.421 511.216C447.401 509.296 443.004 506.036 439.708 501.79C439.312 501.196 440.064 500.562 440.619 500.919C448.485 506.284 457.874 508.964 467.387 508.561C467.823 506.819 463.428 486.307 464.497 486.228C469.276 486.634 473.979 487.686 478.475 489.356C475.466 462.033 468.061 435.462 465.487 408.218C465.476 408.025 465.534 407.834 465.648 407.679C465.763 407.524 465.928 407.413 466.115 407.366C466.303 407.32 466.5 407.339 466.675 407.422C466.849 407.505 466.989 407.647 467.071 407.821C476.772 435.145 480.97 466.468 484.811 494.623C485.326 498.107 472.615 493.514 470.159 492.484Z" fill="#263238"/>
<path d="M462.319 511.65C458.92 515.52 454.584 518.452 449.727 520.164C447.061 521.016 444.195 521.016 441.53 520.164C435.709 518.224 435.946 512.759 437.332 508.284C438.084 505.854 439.135 503.526 440.46 501.354C446.454 507.041 454.117 510.651 462.319 511.65Z" fill="#263238"/>
<path d="M449.727 520.203C447.061 521.055 444.195 521.055 441.53 520.203C435.709 518.263 435.946 512.798 437.332 508.324C443.47 509.274 449.608 513.986 449.727 520.203Z" fill="#FF97B8"/>
<path d="M304.873 461.438C325.623 464.052 332.593 420.612 332.593 420.612C332.593 420.612 374.924 422.829 391.991 362.639C389.894 380.824 382.53 398 370.806 412.059C370.806 412.059 445.846 407.782 480.297 346.839C480.297 346.839 466.2 378.043 453.924 388.774C453.924 388.774 485.603 381.607 502.156 357.095C502.156 357.095 513.441 393.764 523.024 404.218C523.024 404.218 526.311 273.541 404.663 281.461C404.663 281.461 328.672 282.807 298.537 341.414C268.403 400.02 304.873 461.438 304.873 461.438Z" fill="#C7C7C7"/>
<path d="M320.713 461.28C320.713 461.28 293.706 420.85 275.372 430.393C257.038 439.936 276.837 498.187 297.904 506.542C300.533 507.796 303.389 508.506 306.3 508.628C309.211 508.751 312.116 508.285 314.842 507.256C317.568 506.228 320.058 504.66 322.162 502.645C324.267 500.631 325.942 498.212 327.088 495.533L320.713 461.28Z" fill="#D3766A"/>
<path d="M281.51 446.945C281.436 446.945 281.366 446.974 281.314 447.026C281.262 447.078 281.233 447.149 281.233 447.222C281.233 447.296 281.262 447.367 281.314 447.418C281.366 447.47 281.436 447.5 281.51 447.5C296.28 453.875 303.804 467.814 308.992 482.268C304.675 476.645 298.735 473.516 291.251 478.625C290.855 478.902 291.251 479.496 291.608 479.416C294.245 478.651 297.054 478.715 299.654 479.601C302.254 480.486 304.519 482.15 306.14 484.366C308.809 488.077 311.079 492.059 312.912 496.246C313.585 497.592 316.001 496.919 315.525 495.375V495.019C316.04 476.011 301.864 449.282 281.51 446.945Z" fill="#263238"/>
<path d="M687.944 548.991L629.574 748.73L944.557 840.778L1002.93 641.039L687.944 548.991Z" fill="#EBEBEB"/>
<path d="M1002.88 640.98C986.609 649.415 970.255 657.295 953.901 665.532C937.546 673.768 921.192 681.371 904.798 689.291C887.691 697.396 870.532 705.421 853.319 713.367L851.735 714.159L806.276 735.028L804.019 735.978L802.712 733.998L775.705 691.865C775.357 691.398 775.039 690.909 774.755 690.4C764.538 674.56 754.427 658.562 744.422 642.406C734.799 627.081 725.256 611.598 715.792 596.115C706.328 580.631 696.903 564.95 687.756 549.071C698.21 563.445 708.308 578.256 718.564 592.868C728.82 607.48 738.918 622.408 748.897 637.377C760.116 653.876 771.244 670.587 782.279 687.509C790.555 700.062 798.831 712.694 807.107 725.287C820.809 719.109 834.827 712.853 848.33 706.794C866.677 698.61 885.038 690.519 903.412 682.52C919.885 675.339 936.372 668.29 952.871 661.374C969.82 654.523 986.293 647.435 1002.88 640.98Z" fill="#C7C7C7"/>
<path d="M781.566 692.063L781.091 692.301L774.874 695.033C765.053 699.389 755.075 703.428 745.056 707.229C732.78 711.942 720.386 716.298 707.952 720.535C695.518 724.772 683.004 728.732 670.372 732.414C657.74 736.097 645.068 739.661 632.159 742.512C644.039 736.929 656.354 732.018 668.63 727.346C680.906 722.673 693.34 718.278 705.734 714.001C718.129 709.724 730.721 705.804 743.353 702.121C753.411 699.191 763.588 696.34 773.844 693.885L781.012 692.261L781.566 692.063Z" fill="#C7C7C7"/>
<path d="M945.624 834.105C936.279 824.759 927.448 814.939 918.855 805.039C910.262 795.139 901.867 784.962 893.552 774.785C885.236 764.609 877.237 754.154 869.436 743.581C863.1 734.989 856.843 726.277 850.943 717.327C849.636 715.387 848.409 713.367 846.983 711.585C846.983 711.585 846.983 711.269 846.706 711.15L847.102 711.506C848.844 713.328 850.547 715.031 852.21 716.813C859.536 724.416 866.545 732.256 873.475 740.176C882.147 750.115 890.463 760.253 898.739 770.469C907.015 780.686 915.014 791.1 922.815 801.673C930.616 812.246 938.457 822.938 945.624 834.105Z" fill="#C7C7C7"/>
<path d="M259.295 750.274C262.74 818.225 303.764 1077.16 362.252 1104.49C418.76 1130.94 648.513 1054.47 725.692 1018.08C748.342 1007.39 629.981 835.055 605.746 846.459C576.404 860.24 448.301 911.204 439.431 916.273C433.372 919.757 381.537 782.388 343.759 717.565C284.4 615.875 255.256 671.353 259.295 750.274Z" fill="#D3766A"/>
<path d="M562.267 896.75C580.329 855.883 606.211 818.943 638.455 788.012C661.145 766.113 712.426 738.354 733.77 730.395C765.726 718.515 906.976 689.014 914.817 723.109C921.944 753.996 797.406 763.856 797.406 763.856C797.406 763.856 922.222 742.789 924.122 781.517C926.023 820.245 783.506 812.603 783.506 812.603C783.506 812.603 912.203 793.793 907.689 834.026C904.283 864.438 775.111 864.834 775.111 864.834C775.111 864.834 885.989 849.469 883.692 880.673C881.316 915.56 762.083 923.48 762.083 923.48C764.776 937.973 764.538 994.758 720.465 1020.3C712.743 1024.81 562.267 896.75 562.267 896.75Z" fill="#D3766A"/>
<path d="M753.768 768.41C768.34 765.4 783.071 762.232 797.881 760.49C812.691 758.748 827.501 757.599 842.39 757.283C861.828 756.491 881.292 757.926 900.403 761.559C866.031 757.599 812.968 762.866 798.198 764.569C783.428 766.272 768.578 767.222 753.807 768.925C753.451 769.044 753.411 768.45 753.768 768.41Z" fill="#263238"/>
<path d="M758.955 821.908C777.725 818.859 796.257 815.176 815.146 812.959C834.034 810.741 852.012 810.306 870.941 809.435C872.406 809.435 871.97 810.147 870.505 810.306C851.616 811.929 834.312 814.939 815.462 816.8C796.613 818.661 777.685 819.809 758.994 822.344C758.677 822.383 758.677 821.948 758.955 821.908Z" fill="#263238"/>
<path d="M755.153 868.635C784.204 862.879 813.765 860.093 843.38 860.319C844.805 860.319 844.132 861.309 842.667 861.389C813.681 863.21 789.723 865.626 755.351 869.625C754.797 869.665 754.52 868.754 755.153 868.635Z" fill="#263238"/>
<path d="M720.663 1020.42C728.65 1015.41 735.7 1009.05 741.492 1001.61C747.236 994.184 751.742 985.88 754.837 977.018C757.953 968.192 759.961 959.014 760.816 949.694C761.767 940.413 761.767 931.058 760.816 921.777V919.995H762.638C777.764 918.926 792.931 917.144 807.899 914.689C822.651 912.32 837.181 908.731 851.339 903.957C858.336 901.605 864.993 898.344 871.139 894.256C874.182 892.337 876.863 889.898 879.059 887.049C880.016 885.884 880.684 884.508 881.008 883.035C881.331 881.562 881.301 880.034 880.92 878.574C879.552 875.678 877.212 873.352 874.307 872.001C871.195 870.252 867.866 868.921 864.407 868.041C857.225 866.099 849.859 864.918 842.43 864.517L816.017 862.537L842.311 858.894C852.349 857.534 862.304 855.617 872.129 853.152C881.809 851.065 891.072 847.37 899.531 842.223C901.372 841.159 902.946 839.689 904.133 837.926C905.32 836.162 906.089 834.151 906.382 832.046C906.224 829.929 905.612 827.871 904.587 826.012C903.561 824.154 902.148 822.538 900.442 821.275C896.459 818.692 892.026 816.878 887.374 815.929C882.533 814.749 877.608 813.941 872.644 813.513L848.884 811.415L872.644 808.049C885.046 806.612 897.181 803.412 908.679 798.545C911.365 797.311 913.892 795.755 916.203 793.912C918.382 792.105 920.128 789.832 921.311 787.259C922.492 784.824 922.867 782.077 922.383 779.414C921.899 776.752 920.58 774.313 918.618 772.449C914.15 768.466 908.668 765.794 902.778 764.727C896.622 763.521 890.391 762.74 884.127 762.391C871.456 761.441 858.705 760.886 845.993 760.53L829.956 760.055L845.795 757.045C854.864 755.342 863.971 753.085 872.921 750.551C881.883 748.098 890.604 744.838 898.977 740.81C903.132 738.842 906.953 736.237 910.302 733.088C911.903 731.532 913.134 729.638 913.906 727.544C914.604 725.464 914.476 723.196 913.549 721.208C911.014 717.361 907.285 714.453 902.937 712.932C898.644 711.09 894.172 709.696 889.592 708.774C894.235 709.466 898.789 710.661 903.174 712.338C907.818 713.74 911.851 716.67 914.619 720.654C915.198 721.767 915.552 722.983 915.661 724.234C915.77 725.484 915.631 726.743 915.252 727.94C914.508 730.304 913.22 732.461 911.49 734.236C908.102 737.62 904.216 740.464 899.967 742.671C891.587 747.027 882.826 750.606 873.792 753.362C864.763 756.174 855.695 758.55 846.429 760.49L846.112 757.045C858.903 757.045 871.693 757.441 884.484 758.154C890.98 758.389 897.452 759.091 903.848 760.253C910.622 761.386 916.944 764.39 922.103 768.925C924.786 771.508 926.61 774.853 927.33 778.508C928.017 782.18 927.532 785.976 925.944 789.358C924.475 792.621 922.297 795.516 919.568 797.832C916.915 799.995 914.002 801.817 910.896 803.257C898.911 808.454 886.242 811.908 873.277 813.513V808.049C878.546 808.467 883.775 809.288 888.919 810.504C894.346 811.582 899.51 813.707 904.125 816.76C906.437 818.569 908.385 820.8 909.867 823.334C911.522 825.982 912.4 829.042 912.401 832.164C912.28 835.32 911.218 838.368 909.352 840.916C907.499 843.171 905.292 845.11 902.818 846.658C893.81 852.365 883.841 856.39 873.396 858.537C863.322 861.026 853.116 862.943 842.826 864.279V858.656C850.635 859.192 858.37 860.519 865.912 862.616C869.815 863.718 873.566 865.301 877.079 867.328C881.041 869.453 884.116 872.921 885.751 877.109C886.385 879.342 886.482 881.694 886.035 883.971C885.588 886.249 884.608 888.389 883.177 890.217C880.724 893.55 877.709 896.431 874.267 898.73C867.686 903.044 860.562 906.466 853.082 908.907C838.41 913.628 823.34 917.008 808.058 919.005C792.852 921.223 777.646 922.727 762.321 923.519L763.944 921.619C765.765 940.713 763.206 959.972 756.46 977.928C753.024 986.837 748.184 995.139 742.125 1002.52C736.085 1009.71 728.818 1015.77 720.663 1020.42Z" fill="#263238"/>
<path d="M552.605 863.844L646.652 1076.25C646.652 1076.25 389.259 1152.4 348.472 1109.95C307.685 1067.5 263.809 870.575 255.137 757.164C247.217 652.939 302.656 616.152 356.51 729.445C410.365 842.737 428.977 902.374 440.341 902.374C451.706 902.374 552.605 863.844 552.605 863.844Z" fill="#FFC727"/>
<path opacity="0.1" d="M284.361 798.466C284.361 800.212 283.843 801.92 282.873 803.372C281.903 804.824 280.523 805.956 278.91 806.624C277.296 807.293 275.521 807.467 273.808 807.127C272.095 806.786 270.521 805.945 269.286 804.71C268.051 803.475 267.21 801.902 266.87 800.189C266.529 798.476 266.704 796.7 267.372 795.087C268.041 793.473 269.172 792.094 270.625 791.123C272.077 790.153 273.784 789.635 275.531 789.635C276.692 789.63 277.842 789.855 278.916 790.297C279.99 790.739 280.965 791.389 281.786 792.21C282.607 793.031 283.258 794.007 283.7 795.08C284.142 796.154 284.366 797.305 284.361 798.466ZM377.221 789.635C375.474 789.635 373.767 790.153 372.315 791.123C370.863 792.094 369.731 793.473 369.062 795.087C368.394 796.7 368.219 798.476 368.56 800.189C368.901 801.902 369.742 803.475 370.977 804.71C372.212 805.945 373.785 806.786 375.498 807.127C377.211 807.467 378.987 807.293 380.6 806.624C382.214 805.956 383.593 804.824 384.563 803.372C385.533 801.92 386.051 800.212 386.051 798.466C386.057 797.305 385.832 796.154 385.39 795.08C384.948 794.007 384.298 793.031 383.477 792.21C382.656 791.389 381.68 790.739 380.606 790.297C379.533 789.855 378.382 789.63 377.221 789.635ZM326.376 714.16C324.627 714.16 322.919 714.678 321.466 715.651C320.013 716.623 318.881 718.004 318.214 719.62C317.546 721.236 317.374 723.013 317.718 724.728C318.062 726.442 318.907 728.015 320.146 729.248C321.385 730.482 322.962 731.32 324.677 731.656C326.393 731.992 328.17 731.812 329.783 731.137C331.395 730.463 332.772 729.325 333.737 727.867C334.703 726.41 335.214 724.699 335.206 722.951C335.212 721.791 334.986 720.642 334.544 719.571C334.102 718.499 333.451 717.526 332.629 716.708C331.808 715.891 330.832 715.244 329.758 714.807C328.685 714.369 327.535 714.149 326.376 714.16ZM377.221 940.983C375.474 940.983 373.767 941.501 372.315 942.471C370.863 943.441 369.731 944.82 369.062 946.434C368.394 948.048 368.219 949.823 368.56 951.536C368.901 953.249 369.742 954.822 370.977 956.057C372.212 957.292 373.785 958.133 375.498 958.474C377.211 958.815 378.987 958.64 380.6 957.972C382.214 957.303 383.593 956.171 384.563 954.719C385.533 953.267 386.051 951.56 386.051 949.813C386.057 948.652 385.832 947.501 385.39 946.428C384.948 945.354 384.298 944.378 383.477 943.557C382.656 942.736 381.68 942.086 380.606 941.644C379.533 941.202 378.382 940.977 377.221 940.983ZM478.951 940.983C477.202 940.975 475.491 941.486 474.034 942.452C472.577 943.417 471.439 944.794 470.764 946.406C470.09 948.019 469.909 949.796 470.245 951.512C470.582 953.227 471.419 954.804 472.653 956.043C473.886 957.282 475.46 958.127 477.174 958.471C478.888 958.815 480.665 958.642 482.281 957.975C483.897 957.308 485.278 956.176 486.251 954.723C487.223 953.27 487.742 951.561 487.742 949.813C487.742 947.505 486.839 945.289 485.226 943.638C483.612 941.988 481.417 941.034 479.109 940.983H478.951ZM580.641 940.983C578.893 940.975 577.181 941.486 575.724 942.452C574.267 943.417 573.129 944.794 572.454 946.406C571.78 948.019 571.599 949.796 571.936 951.512C572.272 953.227 573.11 954.804 574.343 956.043C575.576 957.282 577.15 958.127 578.864 958.471C580.578 958.815 582.355 958.642 583.971 957.975C585.587 957.308 586.969 956.176 587.941 954.723C588.913 953.27 589.432 951.561 589.432 949.813C589.432 947.478 588.507 945.238 586.859 943.583C585.212 941.928 582.976 940.993 580.641 940.983ZM326.376 865.507C324.627 865.507 322.919 866.026 321.466 866.998C320.013 867.97 318.881 869.352 318.214 870.967C317.546 872.583 317.374 874.361 317.718 876.075C318.062 877.789 318.907 879.362 320.146 880.596C321.385 881.829 322.962 882.667 324.677 883.003C326.393 883.339 328.17 883.159 329.783 882.484C331.395 881.81 332.772 880.672 333.737 879.215C334.703 877.757 335.214 876.046 335.206 874.298C335.212 873.139 334.986 871.99 334.544 870.918C334.102 869.847 333.451 868.874 332.629 868.056C331.808 867.238 330.832 866.591 329.758 866.154C328.685 865.716 327.535 865.496 326.376 865.507ZM419.948 870.853C419.501 871.946 419.273 873.117 419.275 874.298C419.269 876.195 419.874 878.044 421.001 879.57C422.128 881.096 423.717 882.219 425.532 882.772C423.67 879.248 421.968 875.288 419.948 870.853ZM537.24 869.665L521.084 875.684C521.38 877.916 522.52 879.949 524.271 881.365C526.021 882.78 528.248 883.471 530.493 883.293C532.737 883.115 534.828 882.083 536.334 880.41C537.84 878.736 538.646 876.548 538.587 874.298C538.603 872.655 538.135 871.043 537.24 869.665ZM377.221 1092.33C375.474 1092.33 373.767 1092.85 372.315 1093.82C370.863 1094.79 369.731 1096.17 369.062 1097.78C368.394 1099.39 368.219 1101.17 368.56 1102.88C368.901 1104.6 369.742 1106.17 370.977 1107.4C372.212 1108.64 373.785 1109.48 375.498 1109.82C377.211 1110.16 378.987 1109.99 380.6 1109.32C382.214 1108.65 383.593 1107.52 384.563 1106.07C385.533 1104.61 386.051 1102.91 386.051 1101.16C386.057 1100 385.832 1098.85 385.39 1097.78C384.948 1096.7 384.298 1095.73 383.477 1094.9C382.656 1094.08 381.68 1093.43 380.606 1092.99C379.533 1092.55 378.382 1092.32 377.221 1092.33ZM478.951 1092.33C477.202 1092.32 475.491 1092.83 474.034 1093.8C472.577 1094.76 471.439 1096.14 470.764 1097.75C470.09 1099.37 469.909 1101.14 470.245 1102.86C470.582 1104.57 471.419 1106.15 472.653 1107.39C473.886 1108.63 475.46 1109.47 477.174 1109.82C478.888 1110.16 480.665 1109.99 482.281 1109.32C483.897 1108.66 485.278 1107.52 486.251 1106.07C487.223 1104.62 487.742 1102.91 487.742 1101.16C487.742 1098.85 486.839 1096.64 485.226 1094.99C483.612 1093.33 481.417 1092.38 479.109 1092.33H478.951ZM580.641 1092.33C579.34 1092.34 578.057 1092.62 576.88 1093.18C575.703 1093.73 574.662 1094.54 573.83 1095.54L584.086 1093.04C583.001 1092.56 581.827 1092.32 580.641 1092.33ZM326.376 1016.85C324.629 1016.85 322.922 1017.37 321.47 1018.34C320.017 1019.31 318.886 1020.69 318.217 1022.31C317.549 1023.92 317.374 1025.69 317.715 1027.41C318.055 1029.12 318.897 1030.69 320.131 1031.93C321.366 1033.16 322.94 1034.01 324.653 1034.35C326.366 1034.69 328.141 1034.51 329.755 1033.84C331.369 1033.17 332.748 1032.04 333.718 1030.59C334.688 1029.14 335.206 1027.43 335.206 1025.68C335.211 1024.52 334.987 1023.37 334.545 1022.3C334.103 1021.23 333.453 1020.25 332.631 1019.43C331.81 1018.61 330.835 1017.96 329.761 1017.52C328.687 1017.07 327.537 1016.85 326.376 1016.85ZM428.066 1016.85C426.319 1016.85 424.612 1017.37 423.16 1018.34C421.708 1019.31 420.576 1020.69 419.907 1022.31C419.239 1023.92 419.064 1025.69 419.405 1027.41C419.746 1029.12 420.587 1030.69 421.822 1031.93C423.057 1033.16 424.63 1034.01 426.343 1034.35C428.056 1034.69 429.832 1034.51 431.445 1033.84C433.059 1033.17 434.438 1032.04 435.408 1030.59C436.379 1029.14 436.896 1027.43 436.896 1025.68C436.902 1024.52 436.677 1023.37 436.235 1022.3C435.793 1021.23 435.143 1020.25 434.322 1019.43C433.501 1018.61 432.525 1017.96 431.451 1017.52C430.378 1017.07 429.227 1016.85 428.066 1016.85ZM529.796 1016.85C528.048 1016.85 526.336 1017.36 524.879 1018.32C523.422 1019.29 522.284 1020.67 521.609 1022.28C520.935 1023.89 520.754 1025.67 521.09 1027.38C521.427 1029.1 522.265 1030.68 523.498 1031.91C524.731 1033.15 526.305 1034 528.019 1034.34C529.733 1034.69 531.51 1034.51 533.126 1033.85C534.742 1033.18 536.124 1032.05 537.096 1030.6C538.068 1029.14 538.587 1027.43 538.587 1025.68C538.587 1023.35 537.662 1021.11 536.014 1019.45C534.367 1017.8 532.131 1016.86 529.796 1016.85ZM623.091 1022.99C622.421 1025.04 622.532 1027.27 623.402 1029.24C624.271 1031.21 625.839 1032.8 627.803 1033.68L623.091 1022.99Z" fill="#040403"/>
<path d="M595.53 1090.15C550.429 1103.57 504.503 1114.03 458.042 1121.47C446.162 1123.22 434.639 1124.72 422.839 1125.67C410.991 1126.74 399.087 1127.06 387.199 1126.62C384.19 1126.62 381.18 1126.31 378.171 1125.87C375.138 1125.54 372.125 1125.05 369.142 1124.41C362.78 1123.24 356.736 1120.74 351.402 1117.08C342.246 1108.85 334.735 1098.96 329.266 1087.93C318.641 1066.71 309.87 1044.61 303.052 1021.88C296.082 999.365 289.984 976.608 284.757 953.615C273.977 907.815 266.212 861.359 261.512 814.543C265.195 837.748 269.432 860.795 274.659 883.683C279.886 906.571 284.955 929.459 290.736 952.149C296.518 974.84 302.854 997.411 310.179 1019.47C317.038 1041.69 325.768 1063.3 336.275 1084.05C341.158 1094.14 347.872 1103.23 356.075 1110.86C360.495 1113.82 365.464 1115.85 370.687 1116.84C373.459 1117.36 376.191 1117.95 379.002 1118.23C381.814 1118.5 384.665 1118.86 387.556 1119.02C410.8 1119.8 434.067 1118.54 457.092 1115.26C480.297 1112.25 503.423 1108.45 526.469 1104.13C549.516 1099.81 572.602 1095.18 595.53 1090.15Z" fill="#263238"/>
<path d="M254.384 842.342C257.869 848.559 260.72 854.894 263.611 861.23C266.502 867.566 269.274 873.942 272.045 880.436C267.451 875.038 263.7 868.977 260.918 862.458C257.966 856.029 255.774 849.278 254.384 842.342Z" fill="#263238"/>
<path d="M505.006 881.584C512.44 877.452 520.17 873.879 528.132 870.892C536.03 867.729 544.125 865.083 552.367 862.972H553.08V863.526C553.515 865.071 553.951 866.615 554.347 868.199C553.436 866.853 552.565 865.507 551.733 864.239L552.644 864.596C545.089 868.455 537.284 871.802 529.281 874.614C521.379 877.554 513.264 879.884 505.006 881.584Z" fill="#263238"/>
<path d="M519.143 901.463C534.547 931.598 573.829 1014.6 591.966 1072.02C591.966 1072.37 590.778 1072.97 590.619 1072.65C567.969 1027.35 529.756 933.776 517.163 902.374C516.926 901.78 518.708 900.908 519.143 901.463Z" fill="#263238"/>
<path d="M1554.74 659.077H1468.41V1557.5H1554.74V659.077Z" fill="#37474F"/>
<path d="M1554.74 1557.54H1601.54V659.116H1554.74V1557.54Z" fill="#455A64"/>
<path d="M1554.74 634.684H1460.49V659.077H1554.74V634.684Z" fill="#263238"/>
<path d="M1554.7 659.116H1609.66V634.724H1554.7V659.116Z" fill="#37474F"/>
<path d="M1554.74 613.102H1479.46V634.723H1554.74V613.102Z" fill="#37474F"/>
<path d="M1592.36 613.102H1554.74V634.723H1592.36V613.102Z" fill="#455A64"/>
<path d="M1536.24 613.102C1563.14 613.102 1584.95 591.296 1584.95 564.396C1584.95 537.495 1563.14 515.689 1536.24 515.689C1509.34 515.689 1487.54 537.495 1487.54 564.396C1487.54 591.296 1509.34 613.102 1536.24 613.102Z" fill="#37474F"/>
<path d="M1183.62 826.739V1034.36H959.921V828.442C959.921 813.997 962.767 799.694 968.295 786.35C973.824 773.006 981.928 760.881 992.143 750.67C1002.36 740.458 1014.49 732.358 1027.83 726.834C1041.18 721.31 1055.48 718.47 1069.93 718.475H1075.63C1089.83 718.48 1103.89 721.286 1117.01 726.732C1130.13 732.178 1142.04 740.157 1152.07 750.213C1162.1 760.269 1170.05 772.204 1175.46 785.335C1180.88 798.466 1183.65 812.536 1183.62 826.739Z" fill="#FFC727"/>
<path d="M1536.4 809.909V1034.36H1183.97V826.739C1183.97 798.095 1172.6 770.624 1152.35 750.367C1132.09 730.109 1104.63 718.723 1075.98 718.713H1445.4C1457.37 718.723 1469.21 721.09 1480.26 725.68C1491.31 730.269 1501.35 736.99 1509.8 745.459C1518.25 753.928 1524.95 763.978 1529.51 775.037C1534.08 786.096 1536.42 797.945 1536.4 809.909Z" fill="#FFC727"/>
<path opacity="0.1" d="M1536.4 809.909V1034.36H1183.97V826.739C1183.97 798.095 1172.6 770.624 1152.35 750.367C1132.09 730.109 1104.63 718.723 1075.98 718.713H1445.4C1457.37 718.723 1469.21 721.09 1480.26 725.68C1491.31 730.269 1501.35 736.99 1509.8 745.459C1518.25 753.928 1524.95 763.978 1529.51 775.037C1534.08 786.096 1536.42 797.945 1536.4 809.909Z" fill="#020100"/>
<path opacity="0.1" d="M1244.84 822.7V1034.36H1230.46V826.739C1230.46 798.088 1219.08 770.612 1198.82 750.353C1178.56 730.094 1151.08 718.713 1122.43 718.713H1140.81C1168.39 718.713 1194.84 729.667 1214.35 749.167C1233.86 768.668 1244.82 795.117 1244.84 822.7Z" fill="#020100"/>
<path opacity="0.1" d="M1503.5 822.7V1034.36H1489.12V826.739C1489.12 798.088 1477.74 770.612 1457.48 750.353C1437.22 730.094 1409.75 718.713 1381.1 718.713H1399.47C1427.05 718.713 1453.51 729.667 1473.01 749.167C1492.52 768.668 1503.49 795.117 1503.5 822.7Z" fill="#020100"/>
<g opacity="0.1">
<path d="M1323.12 978.918V945.417L1310.97 969.771H1304.04L1291.88 945.417V978.918H1279.01V922.806H1293.03L1307.52 952.07L1322.13 922.806H1336.07V978.918H1323.12Z" fill="#020100"/>
<path d="M1362.17 922.806H1373.85L1394.04 978.918H1380.82L1376.46 966.365H1359.08L1354.8 978.918H1341.58L1362.17 922.806ZM1374.56 957.336L1367.99 937.537L1361.3 957.336H1374.56Z" fill="#020100"/>
<path d="M1399.59 978.918V922.806H1412.5V978.918H1399.59Z" fill="#020100"/>
<path d="M1423.23 978.918V922.806H1436.14V967.434H1463.26V978.918H1423.23Z" fill="#020100"/>
</g>
<path opacity="0.3" d="M1172.09 831.808V1018.52H971.365V833.589C971.36 820.622 973.909 807.781 978.868 795.799C983.827 783.817 991.098 772.929 1000.27 763.758C1009.43 754.587 1020.32 747.312 1032.3 742.348C1044.28 737.384 1057.12 734.83 1070.09 734.83H1075.23C1100.93 734.872 1125.56 745.106 1143.72 763.287C1161.88 781.469 1172.08 806.111 1172.09 831.808Z" fill="#020100"/>
<path d="M935.131 1055.3L959.92 1034.48H1183.62L1161.16 1053.32C1088.93 1114.07 989.936 1163.33 929.033 1163.33H914.421C854.785 1163.33 846.113 1123.97 935.131 1055.3Z" fill="#37474F"/>
<path d="M1183.61 1034.36L1161.16 1053.21C1088.93 1114.11 989.936 1163.33 929.033 1163.33H913.193C854.706 1162.78 846.786 1123.53 935.171 1055.3L959.96 1034.51L1183.61 1034.36Z" fill="#37474F"/>
<path d="M1167.06 1034.36L1144.61 1053.21C1072.5 1113.71 973.938 1162.82 913.154 1163.17C854.666 1162.62 846.746 1123.38 935.131 1055.15L959.92 1034.36H1167.06Z" fill="#455A64"/>
<path d="M1501.63 1126.66V1183.76L1382.92 1034.51H1428.34L1501.63 1126.66Z" fill="#455A64"/>
<path d="M1501.64 1183.76H1484.88L1366.17 1034.51H1382.96L1501.64 1183.76Z" fill="#37474F"/>
<path d="M1317.9 622.091V674.956H1269.51V873.624C1269.51 875.827 1269.07 878.008 1268.23 880.043C1267.38 882.078 1266.15 883.926 1264.59 885.482C1263.03 887.038 1261.17 888.271 1259.14 889.111C1257.1 889.95 1254.92 890.38 1252.72 890.374C1250.52 890.374 1248.34 889.941 1246.31 889.099C1244.27 888.258 1242.43 887.024 1240.87 885.468C1239.32 883.913 1238.08 882.066 1237.24 880.034C1236.4 878.002 1235.97 875.824 1235.97 873.624V608.825L1269.51 614.251L1317.9 622.091Z" fill="#455A64"/>
<path d="M1317.93 622.091V674.956H1269.51V873.624C1269.49 877.459 1268.17 881.175 1265.76 884.157C1263.35 887.138 1259.99 889.206 1256.24 890.018C1255.09 890.26 1253.93 890.38 1252.75 890.374C1251.82 890.384 1250.89 890.291 1249.98 890.097C1246.54 889.571 1243.36 887.946 1240.91 885.464C1239.36 883.902 1238.13 882.048 1237.3 880.009C1236.46 877.971 1236.03 875.788 1236.04 873.584V608.825L1269.54 614.251L1317.93 622.091Z" fill="#455A64"/>
<path d="M1252.72 890.374H1239.65C1235.99 890.412 1232.46 889.043 1229.79 886.553C1227.11 884.062 1225.5 880.638 1225.27 876.99V608.825H1236V873.624C1236 875.827 1236.42 878.011 1237.26 880.049C1238.09 882.088 1239.32 883.941 1240.88 885.504C1244.17 888.394 1248.34 890.107 1252.72 890.374Z" fill="#37474F"/>
<path d="M1175.06 877.703C1174.93 877.726 1174.8 877.726 1174.67 877.703L1172.21 878.495V963.078L1138.91 949.06L1119.35 940.784L1110.71 937.181L1105.13 934.805H1104.85L1098.87 932.31L1097.09 931.558L1094.72 930.528L1045.57 909.818L1055.99 885.108L1057.97 880.396L1066.84 859.408L1070.44 850.815L1071.87 847.489L1078.08 832.758L1085.05 816.166L1112.06 752.135L1147.14 766.945C1163.2 784.751 1172.08 807.873 1172.09 831.847V878.02L1174.47 877.782L1175.06 877.703Z" fill="white"/>
<path d="M1175.06 877.703C1174.93 877.726 1174.8 877.726 1174.67 877.703L1172.21 878.495V880.435L1171.38 878.772C1171.28 878.526 1171.16 878.288 1171.02 878.059L1170.43 876.792C1170.19 876.368 1169.98 875.932 1169.79 875.485L1161.88 859.131C1161.56 858.418 1161.2 857.745 1160.85 857.032L1153.8 842.301C1152.37 839.331 1150.95 836.401 1149.56 833.431C1149.4 833.122 1149.25 832.805 1149.12 832.48C1145.56 825.036 1142.02 817.552 1138.51 810.028L1130.59 792.921C1124.45 779.22 1118.12 765.717 1112.14 751.857C1119.35 764.608 1126.16 777.636 1133.17 790.545C1136.53 796.881 1139.9 803.217 1143.18 809.553C1146.47 815.888 1150.27 822.977 1153.76 829.748L1155.18 832.48C1156.69 835.371 1158.19 838.262 1159.66 841.192C1161.52 844.756 1163.38 848.36 1165.2 851.963L1166.03 853.547L1172.29 865.902V877.782L1174.67 877.544L1175.06 877.703Z" fill="#DBDBDB"/>
<path d="M1175.06 877.703C1174.93 877.726 1174.8 877.726 1174.67 877.703L1172.21 878.495L1171.38 878.772L1169.36 879.405C1160.89 882.019 1152.37 884.355 1143.82 886.533L1140.97 887.246L1134.79 888.79L1134 888.988L1126.63 890.691L1112.26 893.899C1102.08 896.037 1091.94 898.096 1081.69 899.838L1080.46 900.076L1074.24 901.106C1065.61 902.531 1056.98 903.798 1048.27 904.709C1055.75 902.254 1063.27 900.076 1070.8 898.056L1077.45 896.314L1079.51 895.76C1090 893.067 1100.54 890.691 1111.19 888.355L1120.65 886.375L1128.97 884.751L1139.19 882.85L1143.15 882.177L1145.28 881.821C1153.2 880.475 1160.93 879.287 1168.85 878.336L1171.26 878.059H1172.45L1174.82 877.821L1175.06 877.703Z" fill="#DBDBDB"/>
<path d="M1175.06 877.703C1174.93 877.725 1174.8 877.725 1174.67 877.703L1172.21 878.495V978.482L1166.67 979.076L1156.05 980.264L1050.25 991.827L1047.91 970.364L1047.63 967.909L1047 962.128V961.613L1036.7 867.407L1036.43 865.031L1036.11 862.14L1032.9 832.48L1031.71 821.71L1084.97 816.007L1138.39 810.147L1143.03 809.671L1168.84 806.82C1171.03 814.983 1172.14 823.397 1172.13 831.847V878.019L1174.51 877.782L1175.06 877.703Z" fill="#EBEBEB"/>
<path d="M1172.09 914.213V922.568L1170.47 921.42C1168.65 920.193 1166.79 918.925 1164.96 917.46C1158.35 912.906 1151.74 908.273 1145.16 903.64L1144.53 903.205L1143.38 902.413L1142.19 901.621L1134.27 896.037L1130.31 893.305C1129.05 892.434 1127.78 891.562 1126.36 890.652L1120.61 886.494C1115.1 882.692 1109.62 878.825 1104.18 874.891C1095.84 868.952 1087.5 862.946 1079.15 856.874L1070.52 850.657L1067.87 848.716C1060.62 843.291 1053.33 837.985 1046.09 832.6C1041.28 829.088 1036.5 825.498 1031.75 821.829C1037.51 825.366 1043.22 828.956 1048.9 832.6L1068.98 845.39L1071.95 847.33L1084.97 855.765C1092.02 860.332 1099.06 864.952 1106.08 869.625C1113.72 874.654 1121.37 879.762 1129.01 884.87L1134.55 888.632L1134.95 888.909L1138.27 891.167C1141.28 893.146 1144.25 895.126 1147.22 897.186L1170.59 913.025L1172.09 914.213Z" fill="#C7C7C7"/>
<path d="M1147.9 900.987L1147.58 901.304L1143.62 905.263C1137.48 911.678 1131.19 917.856 1124.77 923.915C1116.85 931.359 1108.93 938.566 1100.77 945.734C1092.62 952.901 1084.42 959.791 1075.99 966.563C1067.55 973.334 1059.04 980.026 1050.17 986.362C1057.49 978.442 1065.25 970.76 1073.05 963.355C1080.86 955.95 1088.89 948.664 1097.05 941.536C1105.21 934.408 1113.45 927.399 1121.88 920.628C1128.57 915.203 1135.42 909.857 1142.43 904.788L1147.34 901.304L1147.9 900.987Z" fill="#C7C7C7"/>
<path d="M1175.06 877.703C1174.93 877.726 1174.8 877.726 1174.67 877.703L1172.21 878.495V1003.59H998.965V832.599H1172.09V878.019L1174.47 877.782L1175.06 877.703Z" fill="white"/>
<path d="M1172.09 911.599V919.994L1170.47 921.42L1167.42 924.113C1167.04 924.422 1166.69 924.752 1166.35 925.103L1165.36 925.974L1164.73 926.528L1138.79 949.021L1135.27 952.07L1133.72 953.337L1132.22 952.07L1119.23 940.744L1112.93 935.359L1108.97 931.795C1108.64 931.541 1108.32 931.263 1108.02 930.963L1103.39 927.004L1103.11 926.766L1102.52 926.211L1101.45 925.301C1101.06 925.019 1100.69 924.715 1100.34 924.39C1091.68 916.813 1083.02 909.184 1074.36 901.502C1073.21 900.512 1072.07 899.522 1070.92 898.453L1065.17 893.225L1055.95 884.949C1049.51 879.221 1043.07 873.413 1036.62 867.526L1034.37 865.506L1031.91 863.289C1020.94 853.032 1009.82 843.054 998.926 832.599C1010.53 841.549 1021.89 850.934 1033.38 860.081L1036.03 862.259C1036.98 863.051 1037.97 863.803 1038.92 864.635C1045.26 869.915 1051.59 875.115 1057.93 880.237L1067.55 888.157L1077.41 896.393L1081.65 899.918C1089.57 906.57 1097.49 913.276 1105.41 920.034L1107.19 921.539L1111.78 925.499L1113.84 927.241L1117.8 930.567L1133.64 944.189C1143.07 936.27 1152.49 928.033 1161.95 920.074L1164.77 917.658L1170.19 913.104L1172.09 911.599Z" fill="#DBDBDB"/>
<path d="M1105.88 923.954L1105.57 924.232L1101.33 927.835C1094.57 933.537 1087.65 939.042 1080.58 944.348C1071.99 950.882 1063.19 957.178 1054.36 963.395C1045.53 969.612 1036.58 975.592 1027.44 981.452C1018.29 987.313 1009.14 992.975 999.717 998.202C1007.91 991.035 1016.43 984.382 1025.02 977.849C1033.61 971.315 1042.44 964.979 1051.24 958.762C1060.03 952.545 1069.06 946.526 1078.16 940.665C1085.45 936.032 1092.81 931.439 1100.34 927.162C1102.08 926.132 1103.82 925.182 1105.6 924.192L1105.88 923.954Z" fill="#DBDBDB"/>
<path d="M1172.09 929.894V932.706L1166.35 927.914L1164.73 926.528L1162.07 924.271L1161.72 923.954L1162.15 924.152L1165.36 925.974L1167.42 927.162L1172.09 929.894Z" fill="#DBDBDB"/>
<path d="M1175.06 877.703C1174.93 877.726 1174.8 877.726 1174.67 877.703L1172.21 878.495V1013.13L1144.97 1018.52L944.991 1057.21L912.48 889.226L971.364 877.822L999.083 872.515L1034.72 865.625L1036.7 865.269L1039.28 864.754L1067 859.369L1079.23 856.993L1084.97 855.884L1153.92 842.539L1159.74 841.43L1172.37 838.975V878.138L1174.74 877.901L1175.06 877.703Z" fill="#EBEBEB"/>
<path d="M1172.09 843.806V845.073C1170.03 847.964 1168.13 850.815 1165.83 853.666L1161.88 859.25C1158.19 864.239 1154.51 869.189 1150.87 874.218L1145.09 881.94L1141.13 887.365L1138.27 891.325L1134.31 896.354C1130.83 900.974 1127.33 905.581 1123.82 910.174L1111.94 925.697C1110.54 927.439 1109.22 929.182 1107.98 930.924C1106.95 932.231 1105.96 933.538 1104.93 934.884C1104.69 935.24 1104.42 935.557 1104.18 935.874C1101.25 939.636 1098.36 943.398 1095.43 947.12L1094.6 948.308L1093.73 949.417L1093.25 950.011L1086.83 958.208L1069.13 980.462L1067.83 982.007L1066.12 981.017L1061.41 978.284L1059.27 977.057L1047.91 970.483L1045.81 969.295L1040.62 966.246L1032.43 961.494L1031.75 961.098L1030.53 960.386C1030.1 960.178 1029.69 959.94 1029.3 959.673C1019.16 953.812 1009.05 947.886 998.965 941.893L989.025 935.993L971.364 925.459L950.693 912.946C937.982 905.026 925.192 897.106 912.48 889.187C925.588 895.76 938.537 902.769 951.525 909.58L971.325 920.311C977.7 923.757 984.036 927.202 990.411 930.726L998.925 935.438C1010.49 941.774 1022.09 948.268 1033.65 954.802L1046.48 962.049L1046.88 962.286C1048.54 963.197 1050.21 964.108 1051.87 965.098C1055.83 967.395 1060.07 969.691 1064.18 972.067L1066.05 973.097L1075.47 961.217C1080.06 955.475 1084.66 949.734 1089.25 944.071L1098.71 932.191C1100.14 930.37 1101.61 928.588 1103.11 926.766C1103.47 926.251 1103.86 925.776 1104.3 925.261L1104.89 924.509L1107.19 921.658L1120.38 905.462L1130.24 893.582L1133.84 889.226L1134.23 888.751C1135.78 886.85 1137.32 884.791 1138.91 883.088C1142.15 879.128 1145.36 875.169 1148.61 871.486C1152.65 866.76 1156.61 862.022 1160.49 857.27L1164.81 852.201C1167.46 849.31 1169.83 846.538 1172.09 843.806Z" fill="#C7C7C7"/>
<path d="M1034.84 958.445L1034.56 958.802L1031.08 963.157C1025.51 970.048 1019.75 976.753 1013.81 983.274C1006.65 991.194 999.203 999.113 991.719 1007.03C984.234 1014.95 976.552 1022.4 968.712 1029.84C960.871 1037.29 952.872 1044.65 944.596 1051.58C951.248 1042.99 958.337 1034.83 965.544 1026.79C972.751 1018.75 980.195 1010.95 987.64 1003.03C995.085 995.114 1002.85 987.63 1010.69 980.185C1016.9 974.206 1023.28 968.305 1029.85 962.682L1034.49 958.722L1034.84 958.445Z" fill="#C7C7C7"/>
<path d="M1172.09 981.809V987.194C1166.67 984.977 1161.28 982.68 1155.94 980.383L1147.7 976.819C1137.84 972.384 1127.9 967.87 1118.36 963.078C1110.44 959.118 1102.52 955.159 1094.95 950.882L1093.09 949.813L1090.04 948.11H1089.81H1090.12L1093.57 949.298L1095.86 950.05C1104.02 952.822 1112.02 955.911 1120.02 959.079C1130.08 963.039 1139.82 967.355 1149.88 971.711C1155.42 974.206 1160.93 976.7 1166.43 979.274L1172.09 981.809Z" fill="#C7C7C7"/>
<path d="M1667 1557.5L1459.14 1558.49L1251.25 1558.81L835.5 1559.48L419.75 1558.85L211.895 1558.49L4 1557.5L211.895 1556.55L419.75 1556.19L835.5 1555.56L1251.25 1556.19L1459.14 1556.55L1667 1557.5Z" fill="#263238"/>
</g>
<g filter="url(#filter1_dd_13_19996)">
<path d="M1435.93 249.438H1319.78L1293.26 302.462H1144.29V514.562H1462.44V249.438H1435.93ZM1435.93 485.525H1173.33V328.975H1435.93V485.525ZM1435.93 302.462H1332.4L1345.03 275.95H1434.66V302.462H1435.93Z" fill="#B1DB7B"/>
<path d="M1414.46 352.962H1096.31L1144.29 514.562H1462.44L1414.46 352.962Z" fill="#B1DB7B"/>
<path fill-rule="evenodd" clip-rule="evenodd" d="M1348.81 306.25C1375.03 306.25 1400.66 314.025 1422.46 328.591C1444.26 343.157 1461.25 363.86 1471.28 388.083C1481.32 412.306 1483.94 438.96 1478.83 464.674C1473.71 490.389 1461.09 514.009 1442.55 532.548C1424.01 551.088 1400.39 563.713 1374.67 568.828C1348.96 573.943 1322.31 571.318 1298.08 561.284C1273.86 551.251 1253.16 534.26 1238.59 512.46C1224.02 490.66 1216.25 465.031 1216.25 438.812C1216.25 403.655 1230.22 369.937 1255.08 345.077C1279.94 320.216 1313.65 306.25 1348.81 306.25Z" fill="#83CD29"/>
<path d="M1348.81 571.375C1345.24 571.376 1341.72 570.436 1338.62 568.648L1306.18 549.458C1301.34 546.744 1303.65 545.784 1305.29 545.229C1310.44 543.627 1315.37 541.388 1319.96 538.563C1320.35 538.39 1320.77 538.317 1321.19 538.35C1321.62 538.383 1322.02 538.521 1322.38 538.752L1347.3 553.548C1347.76 553.795 1348.28 553.924 1348.81 553.924C1349.33 553.924 1349.85 553.795 1350.31 553.548L1447.53 497.468C1447.98 497.197 1448.36 496.812 1448.62 496.352C1448.88 495.892 1449.02 495.371 1449.02 494.842V382.707C1449.02 382.169 1448.88 381.641 1448.62 381.172C1448.35 380.703 1447.97 380.31 1447.51 380.03L1350.4 324.001C1349.94 323.743 1349.43 323.608 1348.9 323.608C1348.37 323.608 1347.86 323.743 1347.4 324.001L1250.21 380.043C1249.75 380.316 1249.36 380.705 1249.09 381.172C1248.82 381.639 1248.68 382.168 1248.67 382.707V494.83C1248.67 495.36 1248.81 495.88 1249.08 496.338C1249.35 496.795 1249.74 497.172 1250.2 497.43L1276.85 512.808C1291.29 520.029 1300.14 511.545 1300.14 502.985V392.277C1300.14 391.907 1300.21 391.541 1300.35 391.199C1300.5 390.858 1300.7 390.547 1300.96 390.287C1301.23 390.026 1301.54 389.82 1301.88 389.68C1302.22 389.541 1302.59 389.471 1302.96 389.474H1315.28C1316.02 389.474 1316.74 389.769 1317.26 390.295C1317.79 390.821 1318.08 391.533 1318.08 392.277V502.985C1318.6 506.954 1318.22 510.987 1316.98 514.791C1315.74 518.596 1313.67 522.076 1310.91 524.978C1308.16 527.881 1304.79 530.133 1301.06 531.569C1297.32 533.006 1293.31 533.593 1289.32 533.285C1281.44 533.422 1273.67 531.312 1266.94 527.2L1241.5 512.555C1238.41 510.754 1235.84 508.174 1234.05 505.074C1232.27 501.973 1231.32 498.459 1231.31 494.88V382.707C1231.32 379.127 1232.26 375.611 1234.05 372.509C1235.83 369.408 1238.4 366.83 1241.5 365.032L1338.71 308.889C1341.84 307.177 1345.35 306.28 1348.92 306.28C1352.49 306.28 1356 307.177 1359.13 308.889L1456.12 364.994C1459.22 366.793 1461.79 369.371 1463.58 372.472C1465.37 375.573 1466.32 379.089 1466.33 382.669V494.792C1466.31 498.371 1465.36 501.885 1463.57 504.985C1461.78 508.085 1459.22 510.664 1456.12 512.467L1358.91 568.56C1355.85 570.363 1352.37 571.334 1348.81 571.375ZM1381.84 493.188C1412.62 493.188 1430.27 481.068 1430.27 459.896C1430.27 438.724 1416.08 433.384 1386.23 429.369C1356.06 425.379 1353 423.322 1353 416.252C1353 410.419 1355.59 402.629 1377.94 402.629C1397.9 402.629 1405.26 406.934 1408.24 420.393C1408.38 421.014 1408.72 421.57 1409.22 421.969C1409.71 422.369 1410.33 422.587 1410.97 422.589H1423.59C1423.98 422.589 1424.36 422.508 1424.72 422.351C1425.08 422.194 1425.4 421.964 1425.66 421.677C1425.92 421.389 1426.12 421.05 1426.25 420.681C1426.37 420.312 1426.42 419.922 1426.38 419.534C1424.44 396.355 1409.03 385.56 1377.9 385.56C1350.2 385.56 1333.71 397.251 1333.71 416.858C1333.71 438.118 1350.13 444.001 1376.74 446.627C1408.54 449.746 1411.02 454.392 1411.02 460.654C1411.02 471.511 1402.3 476.145 1381.84 476.145C1356.13 476.145 1350.47 469.693 1348.59 456.904C1348.48 456.241 1348.14 455.637 1347.63 455.202C1347.12 454.766 1346.47 454.528 1345.8 454.531H1333.17C1332.8 454.529 1332.44 454.6 1332.1 454.741C1331.75 454.881 1331.45 455.087 1331.18 455.348C1330.92 455.608 1330.72 455.918 1330.58 456.259C1330.44 456.6 1330.37 456.965 1330.37 457.333C1330.39 473.683 1339.29 493.188 1381.81 493.188H1381.84Z" fill="white"/>
</g>
<g filter="url(#filter2_dd_13_19996)">
<path d="M700.398 181.146H664.799C660.079 181.146 655.551 183.019 652.213 186.355C648.875 189.69 647 194.213 647 198.93C647 203.647 648.875 208.171 652.213 211.506C655.551 214.841 660.079 216.715 664.799 216.715H700.398C705.118 216.715 709.646 214.841 712.984 211.506C716.322 208.171 718.197 203.647 718.197 198.93C718.197 194.213 716.322 189.69 712.984 186.355C709.646 183.019 705.118 181.146 700.398 181.146ZM999.07 130.637V129.57C993.97 123.342 987.526 118.347 980.221 114.959C972.916 111.571 964.938 109.878 956.885 110.007H815.737C802.658 109.889 789.991 114.572 780.139 123.167C770.936 131.269 764.886 142.352 763.051 154.469L747.388 243.392C746.041 251.071 746.395 258.952 748.424 266.48C750.454 274.008 754.11 281 759.135 286.964C764.135 292.909 770.372 297.691 777.412 300.978C784.452 304.264 792.125 305.976 799.896 305.994H941.222C953.917 306.186 966.265 301.851 976.051 293.768C985.837 285.685 992.42 274.382 994.62 261.888L1010.28 172.965C1011.52 165.518 1011.16 157.895 1009.22 150.599C1007.29 143.302 1003.83 136.498 999.07 130.637ZM950.3 145.576L889.782 194.662C886.204 197.543 881.649 198.93 877.071 198.532C872.493 198.135 868.246 195.983 865.219 192.528L823.747 145.576H950.3ZM958.843 255.308C958.123 259.483 955.934 263.265 952.671 265.971C949.407 268.677 945.284 270.13 941.044 270.069H799.896C797.311 270.047 794.762 269.463 792.426 268.358C790.09 267.252 788.023 265.651 786.368 263.666C784.71 261.692 783.501 259.381 782.825 256.894C782.148 254.407 782.021 251.802 782.452 249.261L796.692 168.696L838.52 216.003C847.625 226.343 860.378 232.764 874.112 233.924C887.846 235.085 901.497 230.894 912.209 222.228L973.439 172.253L958.843 255.308ZM718.197 110.007H664.799C660.079 110.007 655.551 111.881 652.213 115.216C648.875 118.551 647 123.075 647 127.792C647 132.508 648.875 137.032 652.213 140.367C655.551 143.702 660.079 145.576 664.799 145.576H718.197C722.918 145.576 727.445 143.702 730.783 140.367C734.121 137.032 735.996 132.508 735.996 127.792C735.996 123.075 734.121 118.551 730.783 115.216C727.445 111.881 722.918 110.007 718.197 110.007Z" fill="#FFC727"/>
</g>
<defs>
<filter id="filter0_dd_13_19996" x="0" y="0" width="1898.88" height="1567.48" filterUnits="userSpaceOnUse" color-interpolation-filters="sRGB">
<feFlood flood-opacity="0" result="BackgroundImageFix"/>
<feColorMatrix in="SourceAlpha" type="matrix" values="0 0 0 0 0 0 0 0 0 0 0 0 0 0 0 0 0 0 127 0" result="hardAlpha"/>
<feOffset dy="4"/>
<feGaussianBlur stdDeviation="2"/>
<feComposite in2="hardAlpha" operator="out"/>
<feColorMatrix type="matrix" values="0 0 0 0 0 0 0 0 0 0 0 0 0 0 0 0 0 0 0.25 0"/>
<feBlend mode="normal" in2="BackgroundImageFix" result="effect1_dropShadow_13_19996"/>
<feColorMatrix in="SourceAlpha" type="matrix" values="0 0 0 0 0 0 0 0 0 0 0 0 0 0 0 0 0 0 127 0" result="hardAlpha"/>
<feOffset dy="4"/>
<feGaussianBlur stdDeviation="2"/>
<feComposite in2="hardAlpha" operator="out"/>
<feColorMatrix type="matrix" values="0 0 0 0 0 0 0 0 0 0 0 0 0 0 0 0 0 0 0.25 0"/>
<feBlend mode="normal" in2="effect1_dropShadow_13_19996" result="effect2_dropShadow_13_19996"/>
<feBlend mode="normal" in="SourceGraphic" in2="effect2_dropShadow_13_19996" result="shape"/>
</filter>
<filter id="filter1_dd_13_19996" x="1086" y="180" width="412" height="412" filterUnits="userSpaceOnUse" color-interpolation-filters="sRGB">
<feFlood flood-opacity="0" result="BackgroundImageFix"/>
<feColorMatrix in="SourceAlpha" type="matrix" values="0 0 0 0 0 0 0 0 0 0 0 0 0 0 0 0 0 0 127 0" result="hardAlpha"/>
<feOffset dy="4"/>
<feGaussianBlur stdDeviation="2"/>
<feComposite in2="hardAlpha" operator="out"/>
<feColorMatrix type="matrix" values="0 0 0 0 0 0 0 0 0 0 0 0 0 0 0 0 0 0 0.25 0"/>
<feBlend mode="normal" in2="BackgroundImageFix" result="effect1_dropShadow_13_19996"/>
<feColorMatrix in="SourceAlpha" type="matrix" values="0 0 0 0 0 0 0 0 0 0 0 0 0 0 0 0 0 0 127 0" result="hardAlpha"/>
<feOffset dy="4"/>
<feGaussianBlur stdDeviation="2"/>
<feComposite in2="hardAlpha" operator="out"/>
<feColorMatrix type="matrix" values="0 0 0 0 0 0 0 0 0 0 0 0 0 0 0 0 0 0 0.25 0"/>
<feBlend mode="normal" in2="effect1_dropShadow_13_19996" result="effect2_dropShadow_13_19996"/>
<feBlend mode="normal" in="SourceGraphic" in2="effect2_dropShadow_13_19996" result="shape"/>
</filter>
<filter id="filter2_dd_13_19996" x="643" y="110" width="372" height="204" filterUnits="userSpaceOnUse" color-interpolation-filters="sRGB">
<feFlood flood-opacity="0" result="BackgroundImageFix"/>
<feColorMatrix in="SourceAlpha" type="matrix" values="0 0 0 0 0 0 0 0 0 0 0 0 0 0 0 0 0 0 127 0" result="hardAlpha"/>
<feOffset dy="4"/>
<feGaussianBlur stdDeviation="2"/>
<feComposite in2="hardAlpha" operator="out"/>
<feColorMatrix type="matrix" values="0 0 0 0 0 0 0 0 0 0 0 0 0 0 0 0 0 0 0.25 0"/>
<feBlend mode="normal" in2="BackgroundImageFix" result="effect1_dropShadow_13_19996"/>
<feColorMatrix in="SourceAlpha" type="matrix" values="0 0 0 0 0 0 0 0 0 0 0 0 0 0 0 0 0 0 127 0" result="hardAlpha"/>
<feOffset dy="4"/>
<feGaussianBlur stdDeviation="2"/>
<feComposite in2="hardAlpha" operator="out"/>
<feColorMatrix type="matrix" values="0 0 0 0 0 0 0 0 0 0 0 0 0 0 0 0 0 0 0.25 0"/>
<feBlend mode="normal" in2="effect1_dropShadow_13_19996" result="effect2_dropShadow_13_19996"/>
<feBlend mode="normal" in="SourceGraphic" in2="effect2_dropShadow_13_19996" result="shape"/>
</filter>
</defs>
</svg>
