<svg width="1978" height="1476" viewBox="0 0 1978 1476" fill="none" xmlns="http://www.w3.org/2000/svg">
<g filter="url(#filter0_d_13_19991)">
<path d="M1973.48 1289.61H4V1290.6H1973.48V1289.61Z" fill="#EBEBEB"/>
<path d="M1270.45 1344.52H1140V1345.51H1270.45V1344.52Z" fill="#EBEBEB"/>
<path d="M1641.7 1333.85H1607.47V1334.83H1641.7V1333.85Z" fill="#EBEBEB"/>
<path d="M1566.15 1316.44H1294.68V1317.42H1566.15V1316.44Z" fill="#EBEBEB"/>
<path d="M890.817 1339.68H771.466V1340.66H890.817V1339.68Z" fill="#EBEBEB"/>
<path d="M736.41 1339.68H660.703V1340.66H736.41V1339.68Z" fill="#EBEBEB"/>
<path d="M395.138 1323.06H210.638V1324.04H395.138V1323.06Z" fill="#EBEBEB"/>
<path d="M937.533 1113.94H176.96C171.001 1113.93 165.291 1111.55 161.081 1107.34C156.872 1103.12 154.508 1097.4 154.508 1091.45V22.2945C154.559 16.3704 156.947 10.706 161.15 6.53165C165.354 2.3573 171.035 0.0101483 176.96 0H937.533C943.498 0 949.219 2.36963 953.437 6.58759C957.655 10.8056 960.024 16.5263 960.024 22.4914V1091.45C960.024 1097.41 957.655 1103.13 953.437 1107.35C949.219 1111.57 943.498 1113.94 937.533 1113.94ZM176.96 0.787794C171.263 0.798229 165.802 3.0687 161.778 7.10086C157.753 11.133 155.492 16.5974 155.492 22.2945V1091.45C155.492 1097.14 157.753 1102.61 161.778 1106.64C165.802 1110.67 171.263 1112.94 176.96 1112.95H937.533C943.234 1112.94 948.698 1110.67 952.729 1106.64C956.76 1102.61 959.029 1097.15 959.04 1091.45V22.2945C959.029 16.5938 956.76 11.1295 952.729 7.09846C948.698 3.06742 943.234 0.798207 937.533 0.787794H176.96Z" fill="#EBEBEB"/>
<path d="M1789.57 1113.94H1028.96C1022.99 1113.93 1017.28 1111.55 1013.06 1107.34C1008.85 1103.12 1006.48 1097.41 1006.46 1091.45V22.2945C1006.53 16.3668 1008.92 10.7025 1013.13 6.52919C1017.34 2.35592 1023.03 0.0100376 1028.96 0H1789.57C1795.49 0.0205003 1801.16 2.37223 1805.35 6.54548C1809.55 10.7187 1811.93 16.3772 1811.98 22.2945V1091.45C1811.98 1097.4 1809.62 1103.11 1805.42 1107.32C1801.22 1111.54 1795.52 1113.92 1789.57 1113.94ZM1028.96 0.787794C1023.26 0.798207 1017.79 3.06742 1013.76 7.09846C1009.73 11.1295 1007.46 16.5938 1007.45 22.2945V1091.45C1007.46 1097.15 1009.73 1102.61 1013.76 1106.64C1017.79 1110.67 1023.26 1112.94 1028.96 1112.95H1789.57C1795.27 1112.94 1800.73 1110.67 1804.76 1106.64C1808.8 1102.61 1811.07 1097.15 1811.08 1091.45V22.2945C1811.07 16.5938 1808.8 11.1295 1804.76 7.09846C1800.73 3.06742 1795.27 0.798207 1789.57 0.787794H1028.96Z" fill="#EBEBEB"/>
<path d="M229.86 708.028L900.625 708.028L900.625 90.4778L229.86 90.4778L229.86 708.028Z" fill="#E6E6E6"/>
<path d="M213.907 708.028L893.692 708.028L893.692 90.4778L213.907 90.4778L213.907 708.028Z" fill="#F5F5F5"/>
<path d="M865.135 677.146V121.359L242.504 121.359V677.146H865.135Z" fill="#FAFAFA"/>
<path d="M788.207 677.107L578.812 121.359H490.658L700.053 677.107H788.207Z" fill="white"/>
<path d="M675.041 677.107L465.685 121.359H404.986L614.341 677.107H675.041Z" fill="white"/>
<path d="M487.389 677.146L487.389 121.359H453.278L453.278 677.146H487.389Z" fill="#E6E6E6"/>
<path d="M677.207 677.107V121.32H643.096V677.107H677.207Z" fill="#E6E6E6"/>
<path d="M481.244 696.683L481.244 98.3557H438.152L438.152 696.683H481.244Z" fill="#F5F5F5"/>
<path d="M671.062 696.723V98.3951H627.97V696.723H671.062Z" fill="#F5F5F5"/>
<path d="M245.537 677.146L245.537 121.359H242.504L242.504 677.146H245.537Z" fill="#E6E6E6"/>
<path d="M1582.3 1289.58V859.362L299.422 859.362V1289.58H1582.3Z" fill="#F0F0F0"/>
<path d="M1530.15 1033.31V894.498C1530.15 888.581 1525.35 883.784 1519.43 883.784L362.366 883.784C356.449 883.784 351.652 888.581 351.652 894.498V1033.31C351.652 1039.22 356.449 1044.02 362.366 1044.02H1519.43C1525.35 1044.02 1530.15 1039.22 1530.15 1033.31Z" fill="#F5F5F5"/>
<path d="M1530.11 1252.31V1072.78C1530.11 1066.86 1525.31 1062.06 1519.4 1062.06H362.327C356.41 1062.06 351.613 1066.86 351.613 1072.78V1252.31C351.613 1258.23 356.41 1263.03 362.327 1263.03H1519.4C1525.31 1263.03 1530.11 1258.23 1530.11 1252.31Z" fill="#F5F5F5"/>
<path d="M1294.21 881.105H587.517C587.517 886.632 589.712 891.932 593.62 895.839C597.528 899.747 602.828 901.942 608.354 901.942H1273.37C1278.89 901.942 1284.19 899.747 1288.1 895.839C1292.01 891.932 1294.21 886.632 1294.21 881.105Z" fill="#F0F0F0"/>
<path d="M1294.21 1059.58H587.517C587.517 1062.32 588.056 1065.03 589.103 1067.55C590.15 1070.08 591.685 1072.38 593.62 1074.31C595.555 1076.25 597.852 1077.78 600.38 1078.83C602.908 1079.88 605.618 1080.42 608.354 1080.42H1273.37C1276.1 1080.42 1278.81 1079.88 1281.34 1078.83C1283.87 1077.78 1286.17 1076.25 1288.1 1074.31C1290.04 1072.38 1291.57 1070.08 1292.62 1067.55C1293.67 1065.03 1294.21 1062.32 1294.21 1059.58Z" fill="#F0F0F0"/>
<path d="M1678.06 1289.58V859.362H1582.3V1289.58H1678.06Z" fill="#E6E6E6"/>
<path d="M299.422 832.853V859.362L1582.3 859.362V832.853L299.422 832.853Z" fill="#FAFAFA"/>
<path d="M1469.53 794.448C1469.53 804.634 1473.57 814.402 1480.78 821.605C1487.98 828.807 1497.75 832.853 1507.93 832.853C1518.12 832.853 1527.89 828.807 1535.09 821.605C1542.29 814.402 1546.34 804.634 1546.34 794.448H1469.53Z" fill="#F5F5F5"/>
<path d="M1367.16 794.448C1367.16 804.634 1371.2 814.402 1378.4 821.605C1385.61 828.807 1395.37 832.853 1405.56 832.853C1415.75 832.853 1425.51 828.807 1432.72 821.605C1439.92 814.402 1443.96 804.634 1443.96 794.448H1367.16Z" fill="#F5F5F5"/>
<path d="M313.208 819.894C313.208 827.023 345.153 832.853 384.543 832.853C423.932 832.853 455.877 827.023 455.877 819.894H313.208Z" fill="#F5F5F5"/>
<path d="M313.208 813.08C313.208 820.248 345.153 826.078 384.543 826.078C423.932 826.078 455.877 820.248 455.877 813.08H313.208Z" fill="#F5F5F5"/>
<path d="M1582.3 832.853V859.362H1678.06V832.853H1582.3Z" fill="#E0E0E0"/>
<path d="M1636.3 82.5605H1402.17V387.633H1636.3V82.5605Z" fill="#EBEBEB"/>
<path d="M1625.39 82.5605H1391.26V387.633H1625.39V82.5605Z" fill="#F5F5F5"/>
<path d="M1593.96 123.565H1422.73V346.668H1593.96V123.565Z" fill="white"/>
<path d="M1102.65 478.386V712.518H1472.6V478.386H1102.65Z" fill="#EBEBEB"/>
<path d="M1091.39 478.386V712.518H1461.34V478.386H1091.39Z" fill="#F5F5F5"/>
<path d="M1132.39 509.819V681.046H1420.33V509.819H1132.39Z" fill="white"/>
<path d="M1765.38 450.38H1575.01V637.954H1765.38V450.38Z" fill="#EBEBEB"/>
<path d="M1754.47 450.38H1564.1V637.954H1754.47V450.38Z" fill="#F5F5F5"/>
<path d="M1723.04 491.385H1595.58V596.988H1723.04V491.385Z" fill="white"/>
<path d="M1341.63 226.057H1151.26V413.63H1341.63V226.057Z" fill="#EBEBEB"/>
<path d="M1330.76 226.057H1140.39V413.63H1330.76V226.057Z" fill="#F5F5F5"/>
<path d="M1299.33 267.061H1171.86V372.665H1299.33V267.061Z" fill="white"/>
<path d="M988.739 1467.5C1410.53 1467.5 1752.46 1447.53 1752.46 1422.91C1752.46 1398.28 1410.53 1378.32 988.739 1378.32C566.946 1378.32 225.015 1398.28 225.015 1422.91C225.015 1447.53 566.946 1467.5 988.739 1467.5Z" fill="#F5F5F5"/>
<path d="M1251.82 287.859H1247.73V313.777H1251.82V287.859Z" fill="#407BFF"/>
<path d="M1251.82 266.786H1247.88C1247.86 251.69 1241.85 237.218 1231.18 226.548C1220.5 215.877 1206.02 209.878 1190.93 209.868V205.929C1207.05 205.981 1222.51 212.408 1233.91 223.808C1245.32 235.209 1251.76 250.658 1251.82 266.786Z" fill="#407BFF"/>
<path d="M1190.77 220.109H647.113C621.313 220.109 600.397 241.024 600.397 266.825V1375.64C600.397 1401.44 621.313 1422.36 647.113 1422.36H1190.77C1216.57 1422.36 1237.48 1401.44 1237.48 1375.64V266.825C1237.48 241.024 1216.57 220.109 1190.77 220.109Z" fill="#407BFF"/>
<path opacity="0.95" d="M1216.29 1375.64V266.786C1216.29 250.927 1203.44 238.071 1187.58 238.071L643.923 238.071C628.064 238.071 615.208 250.927 615.208 266.786L615.208 1375.64C615.208 1391.5 628.064 1404.36 643.923 1404.36H1187.58C1203.44 1404.36 1216.29 1391.5 1216.29 1375.64Z" fill="white"/>
<path d="M915.79 1359.85C933.737 1359.85 948.286 1345.3 948.286 1327.35C948.286 1309.4 933.737 1294.85 915.79 1294.85C897.843 1294.85 883.293 1309.4 883.293 1327.35C883.293 1345.3 897.843 1359.85 915.79 1359.85Z" fill="#407BFF"/>
<path d="M890.935 234.801C890.935 241.916 893.761 248.738 898.792 253.769C903.822 258.799 910.645 261.626 917.759 261.626C924.874 261.626 931.696 258.799 936.727 253.769C941.758 248.738 944.584 241.916 944.584 234.801H890.935Z" fill="#407BFF"/>
<path opacity="0.7" d="M1093.16 351.198H742.594C728.294 351.239 714.593 356.938 704.481 367.049C694.37 377.16 688.671 390.862 688.63 405.161V441.163C688.671 455.463 694.37 469.164 704.481 479.275C714.593 489.387 728.294 495.085 742.594 495.127H1093.16L1147.12 527.111V405.004C1147.03 390.735 1141.31 377.079 1131.21 367.004C1121.1 356.93 1107.43 351.249 1093.16 351.198Z" fill="#407BFF"/>
<path d="M1083.39 402.758H752.166V411.739H1083.39V402.758Z" fill="white"/>
<path d="M1083.39 434.585H815.898V443.566H1083.39V434.585Z" fill="white"/>
<path opacity="0.15" d="M742.397 590.844H1092.96C1107.26 590.885 1120.97 596.584 1131.08 606.695C1141.19 616.806 1146.89 630.508 1146.93 644.807V680.77C1146.89 695.069 1141.19 708.771 1131.08 718.882C1120.97 728.993 1107.26 734.692 1092.96 734.734H742.397L688.433 766.718V644.61C688.516 630.342 694.235 616.685 704.342 606.614C714.45 596.543 728.128 590.875 742.397 590.844Z" fill="#407BFF"/>
<path opacity="0.5" d="M1083.39 642.365H752.166V651.346H1083.39V642.365Z" fill="#407BFF"/>
<path opacity="0.5" d="M905.785 674.231H752.166V683.212H905.785V674.231Z" fill="#407BFF"/>
<path opacity="0.5" d="M992.245 674.231H929.773V683.212H992.245V674.231Z" fill="#407BFF"/>
<path opacity="0.7" d="M1093.16 830.45H742.594C728.294 830.492 714.593 836.191 704.481 846.302C694.37 856.413 688.671 870.115 688.63 884.414V920.377C688.661 934.679 694.357 948.387 704.47 958.5C714.583 968.614 728.291 974.309 742.594 974.34H1093.16L1147.12 1006.32V884.217C1147.02 869.955 1141.3 856.31 1131.19 846.243C1121.09 836.177 1107.42 830.502 1093.16 830.45Z" fill="#407BFF"/>
<path d="M1083.39 881.972H752.166V890.953H1083.39V881.972Z" fill="white"/>
<path d="M1083.39 913.838H815.898V922.819H1083.39V913.838Z" fill="white"/>
<path opacity="0.15" d="M742.397 1070.06H878.803C893.099 1070.11 906.795 1075.81 916.904 1085.92C927.013 1096.03 932.715 1109.72 932.767 1124.02V1160.02C932.715 1174.32 927.013 1188.01 916.904 1198.12C906.795 1208.23 893.099 1213.93 878.803 1213.99H742.397L688.433 1245.93V1124.02C688.475 1109.72 694.174 1096.02 704.285 1085.91C714.396 1075.8 728.098 1070.1 742.397 1070.06Z" fill="#407BFF"/>
<path opacity="0.5" d="M769.733 1142.02C769.733 1145.14 768.809 1148.18 767.078 1150.78C765.347 1153.37 762.886 1155.39 760.007 1156.58C757.128 1157.77 753.96 1158.08 750.904 1157.48C747.847 1156.87 745.04 1155.37 742.837 1153.16C740.633 1150.96 739.132 1148.15 738.524 1145.1C737.916 1142.04 738.229 1138.87 739.421 1135.99C740.614 1133.11 742.633 1130.65 745.224 1128.92C747.815 1127.19 750.861 1126.27 753.978 1126.27C758.14 1126.32 762.118 1127.99 765.062 1130.94C768.006 1133.88 769.682 1137.86 769.733 1142.02Z" fill="#407BFF"/>
<path opacity="0.5" d="M801.599 1145.21C810.41 1145.21 817.552 1138.07 817.552 1129.26C817.552 1120.45 810.41 1113.31 801.599 1113.31C792.789 1113.31 785.646 1120.45 785.646 1129.26C785.646 1138.07 792.789 1145.21 801.599 1145.21Z" fill="#407BFF"/>
<path opacity="0.5" d="M865.332 1161.13C865.332 1164.24 864.408 1167.29 862.677 1169.88C860.945 1172.47 858.485 1174.49 855.606 1175.68C852.727 1176.87 849.559 1177.19 846.502 1176.58C843.446 1175.97 840.639 1174.47 838.435 1172.27C836.232 1170.06 834.731 1167.26 834.123 1164.2C833.515 1161.14 833.827 1157.98 835.02 1155.1C836.212 1152.22 838.232 1149.76 840.823 1148.03C843.414 1146.29 846.46 1145.37 849.576 1145.37C853.755 1145.37 857.762 1147.03 860.717 1149.98C863.672 1152.94 865.332 1156.95 865.332 1161.13Z" fill="#407BFF"/>
<path d="M1360.3 1103.7C1364.63 1112.32 1368.49 1120.99 1372.55 1129.65C1376.61 1138.32 1380.43 1147.14 1384.05 1155.97C1387.68 1164.79 1391.46 1173.65 1394.92 1182.67C1398.39 1191.69 1401.9 1200.71 1405.09 1210.24L1390.99 1196.97C1399.21 1199.78 1407.82 1201.27 1416.51 1201.38C1426.59 1201.65 1436.67 1201.19 1446.68 1200C1457.08 1198.9 1467.56 1197.17 1478.19 1195.2C1488.83 1193.23 1499.46 1190.79 1509.71 1188.38L1519.04 1211.07C1508.79 1216.71 1498.19 1221.67 1487.29 1225.92C1476.38 1230.3 1465.21 1234.01 1453.85 1237.03C1442.04 1240.21 1429.96 1242.32 1417.77 1243.33C1404.17 1244.65 1390.44 1243.53 1377.24 1240.02L1367.98 1237.46L1362.94 1226.63C1355.38 1210.05 1347.18 1193.03 1339.31 1176.05C1335.37 1167.55 1331.23 1159 1327.29 1150.45C1323.35 1141.9 1319.41 1133.32 1315.48 1124.73L1360.3 1103.7Z" fill="#FFC3BD"/>
<path d="M1496.86 1195.32L1512.34 1180.19L1536.92 1206.78C1536.92 1206.78 1528.02 1222.34 1505.88 1213.28L1496.86 1195.32Z" fill="#FFC3BD"/>
<path d="M1535.7 1170.19L1549.25 1192.28L1536.96 1206.78L1512.38 1180.19L1535.7 1170.19Z" fill="#FFC3BD"/>
<path d="M1290.74 1068.28C1322.25 1056.11 1346.67 1074.27 1386.5 1124.53L1339.86 1172.47C1339.86 1172.47 1229.29 1091.84 1290.74 1068.28Z" fill="#263238"/>
<path opacity="0.2" d="M1349.9 1120.28C1335.01 1110.63 1322.05 1113.35 1311.1 1122.33C1315.24 1137.65 1325.84 1155.22 1336.04 1169.59C1338.44 1171.49 1339.98 1172.51 1339.98 1172.51L1365.97 1145.76C1365.29 1140.61 1363.51 1135.66 1360.73 1131.26C1357.96 1126.86 1354.26 1123.11 1349.9 1120.28Z" fill="black"/>
<path d="M1530.74 1402.43L1568.47 1398.05L1565.32 1320.69L1527.63 1325.03L1530.74 1402.43Z" fill="#FFC3BD"/>
<path d="M1568.79 1381.79L1526.29 1382.38C1525.6 1382.41 1524.94 1382.69 1524.45 1383.17C1523.95 1383.65 1523.64 1384.29 1523.57 1384.98L1518.77 1418.42C1518.62 1419.21 1518.65 1420.02 1518.85 1420.8C1519.05 1421.57 1519.42 1422.3 1519.92 1422.92C1520.43 1423.55 1521.06 1424.05 1521.78 1424.41C1522.49 1424.77 1523.28 1424.97 1524.08 1425C1537.28 1424.56 1543.34 1423.58 1560.01 1423.3C1570.29 1423.3 1601.25 1423.89 1615.43 1423.7C1629.61 1423.5 1630.55 1407.94 1624.68 1406.56C1598.33 1400.65 1583.17 1392.19 1574.38 1383.99C1572.88 1382.55 1570.87 1381.75 1568.79 1381.79Z" fill="#263238"/>
<path d="M1577.81 1371.94C1578.4 1371.71 1579.04 1371.63 1579.68 1371.71C1580.31 1371.79 1580.91 1372.01 1581.43 1372.37C1581.85 1372.58 1582.21 1372.88 1582.48 1373.26C1582.74 1373.64 1582.91 1374.08 1582.97 1374.54C1583.44 1378.48 1575.09 1385.57 1573.95 1386.36C1573.84 1386.44 1573.7 1386.48 1573.56 1386.48C1573.41 1386.48 1573.28 1386.44 1573.16 1386.36C1573.03 1386.28 1572.92 1386.18 1572.85 1386.04C1572.78 1385.91 1572.75 1385.76 1572.77 1385.61C1573.04 1381.35 1574.03 1373.79 1577.38 1372.1L1577.81 1371.94ZM1574.38 1383.99C1577.69 1381.12 1581.79 1376.78 1581.51 1374.62C1581.51 1374.38 1581.51 1374.03 1580.84 1373.71C1580.45 1373.43 1580 1373.26 1579.52 1373.21C1579.04 1373.17 1578.56 1373.26 1578.13 1373.47C1576.31 1374.46 1574.93 1378.36 1574.38 1383.99Z" fill="#407BFF"/>
<path d="M1577.42 1382.57C1578.81 1381.84 1580.34 1381.39 1581.91 1381.26C1583.48 1381.12 1585.06 1381.3 1586.55 1381.79C1587.07 1382.11 1587.47 1382.59 1587.69 1383.16C1587.91 1383.73 1587.94 1384.35 1587.78 1384.94C1587.69 1385.49 1587.49 1386.02 1587.16 1386.48C1586.84 1386.94 1586.42 1387.31 1585.92 1387.58C1581.99 1389.74 1573.64 1386.51 1573.28 1386.39C1573.16 1386.34 1573.05 1386.26 1572.96 1386.15C1572.87 1386.05 1572.81 1385.93 1572.77 1385.8C1572.74 1385.68 1572.75 1385.54 1572.79 1385.42C1572.83 1385.29 1572.91 1385.18 1573 1385.1C1574.32 1384.01 1575.81 1383.15 1577.42 1382.57ZM1584.74 1386.51L1585.18 1386.32C1585.49 1386.14 1585.75 1385.89 1585.95 1385.6C1586.16 1385.31 1586.3 1384.97 1586.36 1384.62C1586.36 1383.68 1586.16 1383.32 1585.85 1383.16C1583.96 1381.94 1578.16 1383.52 1575.05 1385.53C1578.13 1386.75 1581.48 1387.09 1584.74 1386.51Z" fill="#407BFF"/>
<path opacity="0.2" d="M1527.63 1325.07L1565.32 1320.69L1566.94 1360.59L1529.05 1360.75L1527.63 1325.07Z" fill="black"/>
<path d="M1342.62 1280.16C1342.62 1280.16 1440.54 1189.09 1504.11 1187.71C1550.51 1186.73 1583.68 1340.19 1583.68 1340.19L1528.53 1341.25C1528.53 1341.25 1518.84 1286.98 1482.8 1272.01C1430.73 1350.16 1218.46 1504.6 1238.59 1337.16C1270.1 1325.3 1342.62 1280.16 1342.62 1280.16Z" fill="#407BFF"/>
<path opacity="0.2" d="M1342.62 1280.16C1342.62 1280.16 1440.54 1189.09 1504.11 1187.71C1550.51 1186.73 1583.68 1340.19 1583.68 1340.19L1528.53 1341.25C1528.53 1341.25 1518.84 1286.98 1482.8 1272.01C1430.73 1350.16 1218.46 1504.6 1238.59 1337.16C1270.1 1325.3 1342.62 1280.16 1342.62 1280.16Z" fill="black"/>
<path d="M1583.48 1347.79L1518.65 1354.02L1518.84 1330.38L1587.42 1322.23L1583.48 1347.79Z" fill="#263238"/>
<path d="M1214.05 1342.95C1214.05 1342.95 1171.94 1260.7 1166.78 1128.24C1165.6 1097.04 1193.68 1067.61 1225.86 1065.96C1252.89 1064.54 1281.48 1064.19 1304.64 1064.27C1327.8 1064.35 1345.53 1079.71 1348.17 1102C1354 1151.16 1355.02 1225.8 1385.16 1314.71L1214.05 1342.95Z" fill="#263238"/>
<path opacity="0.2" d="M1186.51 1128.91C1209.71 1102.71 1217.71 1111.06 1221.18 1114.21C1253.32 1143.32 1206.13 1233.96 1196.68 1247.31C1190.04 1213.46 1186.08 1179.14 1184.86 1144.66C1184.62 1139.36 1185.18 1134.04 1186.51 1128.91Z" fill="black"/>
<path d="M1257.22 987.221C1254.62 1011.37 1248.24 1048.43 1231.81 1065.65C1244.73 1077.82 1265.77 1089.79 1295.66 1094.79C1311.1 1088.41 1313.15 1074.19 1305.67 1064.31C1279.28 1059.7 1279.59 1052.21 1289.56 1035.39L1257.22 987.221Z" fill="#FFC3BD"/>
<path opacity="0.2" d="M1270.41 1006.88L1289.56 1035.35C1287.02 1039.27 1285.04 1043.53 1283.69 1048C1274.31 1044.06 1263.99 1029.72 1266.04 1019.17C1266.76 1014.84 1268.24 1010.68 1270.41 1006.88Z" fill="black"/>
<path d="M1326.39 942.711C1341.87 959.136 1374.4 959.215 1360.42 939.756C1346.44 920.298 1314.33 929.909 1326.39 942.711Z" fill="#263238"/>
<path d="M1263.64 940.938C1255.01 972.45 1248.4 990.096 1258.2 1011.84C1261.18 1018.93 1266.05 1025.07 1272.29 1029.57C1278.52 1034.08 1285.87 1036.78 1293.54 1037.39C1301.21 1037.99 1308.89 1036.48 1315.76 1033.01C1322.62 1029.54 1328.4 1024.24 1332.45 1017.71C1348.21 992.814 1359.79 945.744 1334.54 921.834C1329.31 916.492 1322.75 912.639 1315.54 910.671C1308.32 908.703 1300.72 908.69 1293.5 910.636C1286.28 912.581 1279.71 916.413 1274.46 921.739C1269.21 927.064 1265.48 933.691 1263.64 940.938Z" fill="#FFC3BD"/>
<path d="M1256.59 970.165C1260.53 969.456 1279.99 963.548 1289.48 954.409C1300.15 944.129 1300.23 934.163 1297.36 929.633C1294.48 925.103 1271.95 916.398 1261.43 918.407C1244.81 921.598 1248.91 951.022 1249.14 958.978C1249.27 961.339 1250.03 963.623 1251.34 965.59C1252.64 967.558 1254.46 969.138 1256.59 970.165Z" fill="#FFC3BD"/>
<path opacity="0.7" d="M1256.59 970.165C1260.53 969.456 1279.99 963.548 1289.48 954.409C1300.15 944.129 1300.23 934.163 1297.36 929.633C1294.48 925.103 1271.95 916.398 1261.43 918.407C1244.81 921.598 1248.91 951.022 1249.14 958.978C1249.27 961.339 1250.03 963.623 1251.34 965.59C1252.64 967.558 1254.46 969.138 1256.59 970.165Z" fill="#263238"/>
<path d="M1240.08 972.332C1243.15 979.102 1248.65 984.472 1255.49 987.378C1264.54 991.042 1269.7 983.44 1267.74 974.183C1265.96 966.029 1259.11 954.252 1249.77 954.488C1240.44 954.725 1236.38 963.981 1240.08 972.332Z" fill="#FFC3BD"/>
<path d="M1269.71 927.821C1309.88 936.408 1338.44 959.018 1357.43 945.428C1370.86 935.817 1362.03 918.289 1346.63 905.606C1333.48 894.774 1315.12 891.425 1309.61 882.563C1308.96 885.51 1309.21 888.582 1310.32 891.388C1311.43 894.193 1313.35 896.606 1315.83 898.319C1315.83 898.319 1279.55 892.725 1269.51 883.272C1267.11 888.904 1276.4 899.776 1276.4 899.776C1276.4 899.776 1266.16 909.505 1237.01 898.515C1238.74 907.93 1246.86 922.937 1269.71 927.821Z" fill="#263238"/>
<path d="M1349.51 948.619H1347.93V946.571C1351.4 947.003 1354.92 946.285 1357.94 944.528C1360.97 942.77 1363.33 940.071 1364.67 936.842C1366.18 932.525 1366.29 927.844 1364.99 923.461C1363.69 919.078 1361.04 915.215 1357.43 912.42C1353.95 909.712 1350.15 907.437 1346.12 905.645C1336.79 900.958 1326.19 895.64 1321.07 880.16L1323 879.53C1327.84 894.183 1337.61 899.225 1347.07 903.794C1351.28 905.671 1355.24 908.052 1358.88 910.884C1362.86 913.931 1365.77 918.164 1367.19 922.971C1368.6 927.779 1368.45 932.912 1366.76 937.629C1365.38 941.023 1362.98 943.903 1359.88 945.872C1356.79 947.84 1353.17 948.8 1349.51 948.619Z" fill="#263238"/>
<path d="M1309.17 971.544C1308.31 974.025 1308.94 976.586 1310.51 977.216C1312.09 977.846 1314.1 976.349 1314.96 973.868C1315.83 971.386 1315.2 968.826 1313.62 968.196C1312.05 967.565 1310 968.983 1309.17 971.544Z" fill="#263238"/>
<path d="M1338.87 980.525C1338.05 983.006 1338.64 985.527 1340.25 986.157C1341.87 986.788 1343.84 985.33 1344.66 982.809C1345.49 980.288 1344.94 977.807 1343.32 977.137C1341.71 976.468 1339.74 978.004 1338.87 980.525Z" fill="#263238"/>
<path d="M1327.96 977.492C1328.27 986.315 1329.75 995.058 1332.37 1003.49C1326.62 1005.85 1319.89 1001.05 1319.89 1001.05L1327.96 977.492Z" fill="#ED847E"/>
<path d="M1303.86 1007.03C1298.52 1004.09 1294.56 999.168 1292.83 993.326C1292.8 993.23 1292.79 993.129 1292.8 993.03C1292.81 992.931 1292.85 992.835 1292.9 992.749C1292.95 992.664 1293.02 992.59 1293.1 992.533C1293.19 992.477 1293.28 992.438 1293.38 992.42C1293.48 992.397 1293.58 992.394 1293.68 992.412C1293.78 992.429 1293.87 992.467 1293.96 992.522C1294.04 992.577 1294.11 992.649 1294.17 992.733C1294.23 992.817 1294.27 992.912 1294.28 993.011C1295.29 996.187 1297 999.096 1299.29 1001.52C1301.57 1003.95 1304.37 1005.83 1307.48 1007.03C1307.67 1007.11 1307.83 1007.26 1307.91 1007.46C1307.99 1007.65 1307.99 1007.86 1307.91 1008.06C1307.89 1008.15 1307.84 1008.24 1307.78 1008.32C1307.71 1008.4 1307.63 1008.46 1307.54 1008.5C1307.45 1008.54 1307.35 1008.56 1307.25 1008.56C1307.15 1008.56 1307.06 1008.54 1306.97 1008.49C1305.9 1008.08 1304.86 1007.59 1303.86 1007.03Z" fill="#263238"/>
<path d="M1301.1 955.237C1300.86 955.107 1300.65 954.917 1300.51 954.685C1300.28 954.346 1300.2 953.931 1300.28 953.532C1300.37 953.133 1300.6 952.783 1300.94 952.558C1302.94 951.206 1305.24 950.372 1307.64 950.131C1310.04 949.89 1312.46 950.251 1314.69 951.18C1314.88 951.265 1315.05 951.386 1315.19 951.537C1315.33 951.688 1315.44 951.866 1315.52 952.06C1315.59 952.254 1315.62 952.46 1315.62 952.667C1315.61 952.875 1315.56 953.078 1315.48 953.267C1315.4 953.449 1315.29 953.612 1315.14 953.749C1315 953.886 1314.83 953.992 1314.65 954.062C1314.47 954.132 1314.27 954.164 1314.07 954.156C1313.88 954.148 1313.68 954.1 1313.51 954.016C1311.73 953.328 1309.81 953.08 1307.92 953.292C1306.03 953.505 1304.21 954.172 1302.63 955.237C1302.4 955.371 1302.14 955.442 1301.87 955.442C1301.6 955.442 1301.33 955.371 1301.1 955.237Z" fill="#263238"/>
<path d="M1349 973.159C1348.75 973.076 1348.53 972.936 1348.36 972.751C1348.18 972.566 1348.05 972.341 1347.97 972.095C1347.47 970.177 1346.53 968.399 1345.23 966.897C1343.94 965.395 1342.31 964.209 1340.49 963.43C1340.1 963.294 1339.77 963.015 1339.58 962.649C1339.39 962.282 1339.35 961.857 1339.46 961.46C1339.51 961.269 1339.6 961.09 1339.72 960.935C1339.84 960.779 1340 960.651 1340.17 960.559C1340.35 960.466 1340.54 960.411 1340.73 960.396C1340.93 960.382 1341.13 960.409 1341.32 960.475C1343.63 961.409 1345.7 962.871 1347.36 964.744C1349.01 966.618 1350.21 968.852 1350.85 971.268C1350.91 971.459 1350.94 971.662 1350.93 971.864C1350.92 972.066 1350.86 972.264 1350.77 972.444C1350.68 972.625 1350.55 972.784 1350.39 972.914C1350.24 973.044 1350.06 973.14 1349.86 973.198C1349.58 973.264 1349.28 973.251 1349 973.159Z" fill="#263238"/>
<path d="M1661.63 1420.82L1684.08 1388.17L1623.62 1335.5L1601.17 1368.16L1661.63 1420.82Z" fill="#FFC3BD"/>
<path d="M1668.56 1372.73L1642.21 1405.54C1641.75 1406.09 1641.5 1406.79 1641.5 1407.51C1641.5 1408.23 1641.75 1408.92 1642.21 1409.48L1662.73 1435C1663.22 1435.61 1663.84 1436.1 1664.54 1436.44C1665.24 1436.77 1666.01 1436.95 1666.79 1436.95C1667.57 1436.95 1668.34 1436.77 1669.04 1436.44C1669.74 1436.1 1670.36 1435.61 1670.85 1435C1679.16 1424.29 1684.71 1416.06 1695.39 1402.74C1701.97 1394.55 1722.65 1370.6 1731.74 1359.41C1740.84 1348.23 1730.44 1337.2 1725.68 1340.98C1704.29 1357.88 1685.27 1368.24 1673.76 1369.81C1671.73 1370.1 1669.87 1371.14 1668.56 1372.73Z" fill="#263238"/>
<path d="M1666.83 1359.26C1667.02 1358.65 1667.35 1358.09 1667.78 1357.63C1668.22 1357.16 1668.76 1356.8 1669.35 1356.58C1669.77 1356.36 1670.22 1356.25 1670.69 1356.25C1671.16 1356.25 1671.62 1356.36 1672.03 1356.58C1675.61 1358.66 1675.97 1369.61 1675.97 1370.88C1675.96 1371.02 1675.92 1371.16 1675.83 1371.28C1675.75 1371.4 1675.63 1371.49 1675.5 1371.54C1675.37 1371.62 1675.23 1371.66 1675.08 1371.66C1674.94 1371.66 1674.79 1371.62 1674.67 1371.54C1671.44 1368.79 1666.08 1363.67 1666.79 1359.73C1666.78 1359.57 1666.8 1359.41 1666.83 1359.26ZM1674.43 1369.22C1674.12 1364.81 1673.13 1358.98 1671.24 1357.88C1671.06 1357.79 1670.86 1357.74 1670.65 1357.74C1670.45 1357.74 1670.24 1357.79 1670.06 1357.88C1669.61 1358.03 1669.2 1358.31 1668.89 1358.66C1668.57 1359.02 1668.35 1359.46 1668.25 1359.92C1667.97 1361.97 1670.18 1365.4 1674.43 1369.22Z" fill="#407BFF"/>
<path d="M1675.18 1365.95C1676.09 1362.6 1677.82 1358.98 1679.99 1358.07C1680.56 1357.85 1681.18 1357.82 1681.77 1357.98C1682.36 1358.15 1682.88 1358.5 1683.26 1358.98C1683.65 1359.38 1683.94 1359.87 1684.12 1360.4C1684.3 1360.93 1684.35 1361.5 1684.28 1362.05C1683.73 1366.38 1676.09 1371.27 1675.73 1371.47C1675.62 1371.54 1675.49 1371.57 1675.36 1371.57C1675.23 1371.57 1675.1 1371.54 1674.98 1371.47C1674.86 1371.43 1674.75 1371.35 1674.67 1371.24C1674.6 1371.13 1674.55 1371.01 1674.55 1370.88C1674.48 1369.21 1674.7 1367.55 1675.18 1365.95ZM1682.67 1362.37C1682.67 1362.37 1682.67 1362.09 1682.67 1361.93C1682.71 1361.58 1682.68 1361.22 1682.56 1360.89C1682.45 1360.55 1682.25 1360.25 1682 1360C1681.37 1359.29 1680.89 1359.33 1680.54 1359.49C1678.45 1360.28 1676.24 1365.87 1675.97 1369.54C1678.82 1367.8 1681.13 1365.32 1682.67 1362.37Z" fill="#407BFF"/>
<path opacity="0.2" d="M1601.17 1368.16L1623.62 1335.5L1654.82 1362.64L1629.06 1392.46L1601.17 1368.16Z" fill="black"/>
<path d="M1275.53 1330.93C1275.53 1330.93 1447.67 1156.04 1525.15 1230.88C1573.4 1277.52 1644.3 1341.77 1644.3 1341.77L1603.22 1381.75C1603.22 1381.75 1499.15 1326.4 1472.05 1295.84C1329.85 1454.81 1202.78 1465.69 1214.21 1343.11C1234.36 1337.72 1254.85 1333.66 1275.53 1330.93Z" fill="#407BFF"/>
<path d="M1656.55 1342.12L1611.41 1398.84L1592.27 1386L1638.39 1325.77L1656.55 1342.12Z" fill="#263238"/>
<path d="M1214.64 1117.13L1218.03 1188.82C1218.66 1200.63 1219.4 1212.45 1220.31 1224.27C1220.78 1230.06 1221.41 1235.77 1222.04 1241.24C1222.4 1244 1222.75 1246.68 1223.19 1249.12C1223.62 1251.56 1224.09 1253.85 1224.41 1255.23C1224.42 1255.44 1224.42 1255.65 1224.41 1255.86C1223.76 1254.69 1222.84 1253.69 1221.73 1252.94C1221.09 1252.48 1220.37 1252.13 1219.6 1251.92C1219.17 1251.92 1218.93 1251.92 1219.13 1251.92C1222.35 1252.42 1225.65 1252.2 1228.78 1251.29C1239.2 1248.69 1249.34 1245.09 1259.07 1240.54C1269.59 1235.93 1280.06 1230.61 1290.58 1225.09C1301.1 1219.58 1311.62 1213.71 1321.82 1208L1336.55 1227.69C1318.08 1244.88 1298.02 1260.27 1276.64 1273.66C1271.16 1277.01 1265.49 1280.24 1259.5 1283.27C1253.25 1286.5 1246.76 1289.24 1240.08 1291.47C1236.29 1292.72 1232.4 1293.69 1228.46 1294.38C1223.62 1295.28 1218.68 1295.52 1213.77 1295.09C1210.6 1294.79 1207.48 1294.11 1204.48 1293.04C1200.86 1291.77 1197.46 1289.95 1194.39 1287.65C1191.2 1285.17 1188.44 1282.17 1186.24 1278.78C1185.23 1277.23 1184.34 1275.61 1183.56 1273.94L1182.06 1270.31C1180.68 1266.56 1179.51 1262.74 1178.56 1258.85C1177.69 1255.35 1176.98 1252.08 1176.35 1248.81C1175.05 1242.31 1174.07 1235.97 1173.2 1229.7C1171.39 1217.18 1170.09 1204.81 1168.99 1192.48C1166.78 1167.82 1165.48 1143.44 1165.05 1118.66L1214.64 1117.13Z" fill="#FFC3BD"/>
<path d="M1202.55 1070.92C1183.99 1073.01 1156.22 1090.62 1155.28 1172.47L1234.85 1166.21C1234.85 1166.21 1272.34 1062.93 1202.55 1070.92Z" fill="#263238"/>
<path d="M1388.74 1166.52L1359.2 1168.45C1357.45 1168.69 1355.82 1169.45 1354.52 1170.63C1353.21 1171.81 1352.29 1173.36 1351.87 1175.07L1338.05 1239.98C1337.81 1240.69 1337.76 1241.44 1337.89 1242.18C1338.02 1242.91 1338.33 1243.6 1338.8 1244.18C1339.27 1244.76 1339.87 1245.21 1340.56 1245.5C1341.25 1245.78 1341.99 1245.89 1342.73 1245.81L1372.28 1243.88C1374.02 1243.65 1375.66 1242.9 1376.97 1241.71C1378.28 1240.53 1379.19 1238.98 1379.6 1237.27L1393.43 1172.35C1393.66 1171.65 1393.72 1170.89 1393.58 1170.16C1393.45 1169.43 1393.14 1168.74 1392.67 1168.16C1392.21 1167.58 1391.6 1167.13 1390.91 1166.84C1390.23 1166.55 1389.48 1166.44 1388.74 1166.52Z" fill="#407BFF"/>
<path d="M1324.22 1206.46L1348.68 1197.96L1342.65 1236.28C1342.65 1236.28 1315.4 1242.27 1313.15 1227.62L1317.09 1214.58C1317.59 1212.77 1318.49 1211.11 1319.72 1209.7C1320.96 1208.3 1322.5 1207.19 1324.22 1206.46Z" fill="#FFC3BD"/>
<path d="M1376.65 1201.19L1366.05 1235.3L1342.65 1236.28L1348.68 1197.96L1376.65 1201.19Z" fill="#FFC3BD"/>
<path d="M529.378 397.835C510.156 353.206 614.972 306.49 644.593 375.973C694.893 397.835 630.609 490.794 645.144 506.55C659.679 522.306 670.629 503.202 670.629 503.202C670.629 503.202 685.321 542.355 647.862 573.709C614.302 601.873 513.347 609.514 513.11 554.014C512.795 481.853 554.587 456.328 529.378 397.835Z" fill="#263238"/>
<path d="M625.765 1334.76L597.562 1351.18L529.851 1273.78L564.987 1242.07L625.765 1334.76Z" fill="#FF8B7B"/>
<path d="M594.331 1344.09L623.44 1321.76C623.895 1321.35 624.484 1321.12 625.095 1321.12C625.705 1321.12 626.294 1321.35 626.749 1321.76L646.05 1340.82C646.522 1341.35 646.875 1341.98 647.087 1342.66C647.298 1343.34 647.364 1344.06 647.278 1344.77C647.192 1345.47 646.958 1346.15 646.59 1346.76C646.222 1347.37 645.729 1347.9 645.144 1348.31C634.903 1355.91 629.585 1359.1 616.784 1368.95C608.906 1374.97 593.15 1388.21 582.357 1396.52C571.564 1404.83 563.371 1395.26 567.192 1390.89C584.445 1371.19 588.187 1359.37 590.826 1348.86C591.422 1346.92 592.658 1345.24 594.331 1344.09Z" fill="#263238"/>
<path d="M587.793 1355.75C585.767 1357.64 583.181 1358.81 580.427 1359.1C579.77 1359.07 579.131 1358.88 578.567 1358.54C578.002 1358.21 577.532 1357.73 577.197 1357.17C577.004 1356.81 576.903 1356.41 576.903 1356.01C576.903 1355.6 577.004 1355.2 577.197 1354.84C579.166 1350.9 593.189 1347.79 594.765 1347.44C594.916 1347.41 595.072 1347.44 595.212 1347.5C595.351 1347.56 595.47 1347.66 595.552 1347.79C595.629 1347.92 595.669 1348.07 595.669 1348.23C595.669 1348.38 595.629 1348.53 595.552 1348.66C593.187 1351.25 590.59 1353.63 587.793 1355.75ZM579.442 1354.29C579.03 1354.58 578.692 1354.95 578.457 1355.4C578.369 1355.53 578.322 1355.69 578.322 1355.85C578.322 1356.01 578.369 1356.17 578.457 1356.3C578.662 1356.68 578.963 1357 579.329 1357.23C579.695 1357.46 580.114 1357.58 580.545 1357.6C583.105 1357.6 587.556 1354.69 592.598 1349.41C587.975 1350.3 583.53 1351.95 579.442 1354.29Z" fill="#407BFF"/>
<path d="M595.198 1348.74H594.883C590.944 1349.8 580.821 1349.25 579.127 1346.14C578.773 1345.43 578.655 1344.21 580.23 1342.75C581.353 1341.71 582.832 1341.13 584.366 1341.14C589.526 1341.14 595.041 1347.24 595.238 1347.52C595.304 1347.62 595.339 1347.75 595.339 1347.87C595.339 1348 595.304 1348.12 595.238 1348.23C595.277 1348.4 595.263 1348.58 595.198 1348.74ZM581.648 1343.66L581.294 1343.97C580.27 1344.92 580.506 1345.39 580.585 1345.55C581.53 1347.44 588.738 1348.34 593.229 1347.71C590.878 1345.15 587.752 1343.42 584.327 1342.79C583.362 1342.77 582.418 1343.08 581.648 1343.66Z" fill="#407BFF"/>
<path d="M523.233 559.647C521.382 568.116 519.294 575.757 516.931 583.675C514.568 591.592 512.125 599.431 509.289 606.993C503.84 622.534 497.447 637.727 490.146 652.488L484.356 663.517C482.268 667.141 480.417 670.765 478.054 674.349L474.666 679.667C473.484 681.479 472.578 683.094 470.963 685.221C470.176 686.245 469.388 687.269 468.324 688.49C466.986 690.067 465.481 691.494 463.834 692.744C461.842 694.269 459.545 695.344 457.098 695.896C455.96 696.151 454.798 696.283 453.632 696.289C452.205 696.304 450.785 696.105 449.417 695.699C446.862 695.008 444.537 693.648 442.682 691.76C440.822 689.898 439.467 687.593 438.743 685.063C438.377 683.896 438.127 682.695 437.994 681.479C437.686 678.638 437.686 675.772 437.994 672.931C438.27 670.568 438.664 668.362 439.058 666.235C439.846 661.942 440.87 657.924 441.933 653.906C444.145 645.999 446.774 638.216 449.811 630.588L465.567 634.054L464.504 657.688C464.504 661.627 464.267 665.329 464.228 668.953C464.228 670.765 464.228 672.538 464.228 674.113C464.22 675.246 464.379 676.374 464.7 677.461C464.7 677.461 464.7 677.461 464.7 676.752C464.214 675.262 463.377 673.911 462.258 672.813C460.732 671.259 458.834 670.12 456.744 669.505C455.612 669.199 454.449 669.028 453.277 668.992C452.35 669.008 451.427 669.114 450.52 669.308C449.109 669.651 447.774 670.252 446.581 671.08C445.754 671.671 446.069 671.356 446.227 671.08L447.133 669.544L452.411 660.09C454.183 656.782 455.798 653.394 457.532 650.046L462.376 639.805C468.521 625.9 474.193 611.602 478.92 597.028C481.362 589.741 483.607 582.375 485.853 575.009C488.098 567.643 490.107 560.041 491.879 553.069L523.233 559.647Z" fill="#FF8B7B"/>
<path d="M509.762 518.642C498.339 520.494 480.22 593.089 480.22 593.089L506.572 613.374C506.572 613.374 533.002 560.907 534.144 537.313C534.932 520.218 518.388 517.264 509.762 518.642Z" fill="#FF8B7B"/>
<path d="M468.443 637.56L463.992 601.479L443.312 631.809C444.192 635.464 446.117 638.785 448.852 641.366C451.586 643.947 455.013 645.676 458.713 646.343L468.443 637.56Z" fill="#FF8B7B"/>
<path d="M612.963 1396.01L581.451 1397.07L575.425 1287.09L619.147 1287.72L612.963 1396.01Z" fill="#FF8B7B"/>
<path d="M579.324 1387.02L614.775 1386.79C615.368 1386.77 615.946 1386.98 616.387 1387.37C616.828 1387.77 617.098 1388.32 617.138 1388.92L619.265 1416.84C619.286 1418.31 618.727 1419.72 617.708 1420.78C616.69 1421.83 615.296 1422.44 613.829 1422.48C601.54 1422.48 595.631 1421.65 580.112 1421.77C570.54 1421.77 556.478 1422.91 543.322 1423.03C530.166 1423.15 530.284 1410.07 535.877 1408.85C560.89 1403.37 565.262 1396.05 574.046 1389.15C575.528 1387.89 577.381 1387.14 579.324 1387.02Z" fill="#263238"/>
<path d="M507.832 518.406C507.832 518.406 492.076 522.345 492.076 708.776L618.477 719.963C624.819 668.008 629.94 636.063 671.811 531.996C654.632 526.736 637.08 522.786 619.305 520.179C600.336 517.094 581.168 515.396 561.953 515.097C536.744 515.137 507.832 518.406 507.832 518.406Z" fill="#407BFF"/>
<path opacity="0.2" d="M646.72 555.787L653.455 578.751C648.177 592.971 643.805 605.536 640.142 616.841C637.35 596.257 639.608 575.303 646.72 555.787Z" fill="black"/>
<path d="M463.992 601.479L443.312 631.809L468.443 630.351L481.835 602.621L463.992 601.479Z" fill="#FF8B7B"/>
<path d="M477.108 671.238L500.742 670.883C501.52 670.868 502.287 670.689 502.991 670.356C503.695 670.024 504.32 669.546 504.826 668.954C505.332 668.363 505.707 667.67 505.927 666.923C506.146 666.176 506.205 665.392 506.099 664.62L498.733 611.641C498.559 610.312 497.899 609.094 496.881 608.222C495.863 607.349 494.559 606.884 493.219 606.915L469.585 607.269C468.806 607.272 468.037 607.442 467.33 607.768C466.623 608.094 465.994 608.569 465.486 609.159C464.978 609.749 464.603 610.441 464.386 611.189C464.169 611.937 464.115 612.722 464.228 613.493L471.594 666.472C471.768 667.804 472.426 669.027 473.443 669.906C474.46 670.784 475.764 671.259 477.108 671.238Z" fill="#263238"/>
<path d="M624.032 454.595C617.375 472.872 608.276 506.589 619.108 520.139C600.265 535.892 579.15 548.707 556.478 558.15C543.283 527.348 561.757 515.058 561.757 515.058C583.145 511.946 585.115 496.506 583.854 481.735L624.032 454.595Z" fill="#FF8B7B"/>
<path d="M537.453 433.64C534.144 488.352 501.254 504.029 508.974 532.114C519.885 571.503 564.396 540.661 564.396 540.661C564.396 540.661 540.171 548.539 538.635 529.396C537.374 513.64 593.308 516.082 577.788 479.017C567.822 455.146 537.453 433.64 537.453 433.64Z" fill="#263238"/>
<path opacity="0.2" d="M612.569 468.421L583.894 481.734C584.208 485.194 584.208 488.674 583.894 492.133C589.881 492.685 605.4 488.194 611.269 478.504C612.896 475.407 613.357 471.829 612.569 468.421Z" fill="black"/>
<path d="M628.994 403.152C631.87 434.191 633.76 447.308 620.644 465.506C600.949 492.882 562.15 489.652 550.058 460.031C539.147 433.403 536.271 387.081 564.514 370.183C570.718 366.416 577.784 364.3 585.038 364.035C592.292 363.771 599.493 365.366 605.956 368.671C612.419 371.975 617.929 376.879 621.961 382.914C625.994 388.95 628.415 395.917 628.994 403.152Z" fill="#FF8B7B"/>
<path d="M622.14 371.995C597.64 355.176 577.276 387.475 620.762 418.869C664.248 450.262 649.989 391.099 622.14 371.995Z" fill="#263238"/>
<path d="M609.103 362.975C619.226 372.074 558.96 405.634 526.188 394.486C493.416 383.339 519.728 358.327 531.663 355.097C521.422 364.984 539.344 379.991 548.009 370.616C556.675 361.242 588.778 344.737 609.103 362.975Z" fill="#263238"/>
<path d="M491.919 708.776C491.919 708.776 425.232 991.16 431.101 1062.46C437.916 1145.8 529.063 1280.16 529.063 1280.16L570.934 1242.15C570.934 1242.15 529.378 1132.1 498.615 1060.41C508.462 988.718 595.513 786.177 595.513 717.954L491.919 708.776Z" fill="#407BFF"/>
<path opacity="0.6" d="M491.919 708.776C491.919 708.776 425.232 991.16 431.101 1062.46C437.916 1145.8 529.063 1280.16 529.063 1280.16L570.934 1242.15C570.934 1242.15 529.378 1132.1 498.615 1060.41C508.462 988.718 595.513 786.177 595.513 717.954L491.919 708.776Z" fill="black"/>
<path d="M578.655 1247.82L529.181 1284.69L516.498 1275.04L570.777 1232.22L578.655 1247.82Z" fill="#407BFF"/>
<path opacity="0.2" d="M541.274 832.971C504.523 883.863 502.751 977.452 505.036 1029.92C517.64 981.628 544.071 909.505 565.144 844.512C564.632 819.618 558.448 809.141 541.274 832.971Z" fill="black"/>
<path d="M515.631 709.012C515.631 709.012 540.053 952.873 548.206 1035.2C557.896 1132.92 572.116 1289.65 572.116 1289.65L619.147 1287.68C619.147 1287.68 629.467 1154.82 621.825 1067.1C623.204 950.904 640.338 792.912 618.28 719.805L515.631 709.012Z" fill="#407BFF"/>
<path opacity="0.6" d="M515.631 709.012C515.631 709.012 540.053 952.873 548.206 1035.2C557.896 1132.92 572.116 1289.65 572.116 1289.65L619.147 1287.68C619.147 1287.68 629.467 1154.82 621.825 1067.1C623.204 950.904 640.338 792.912 618.28 719.805L515.631 709.012Z" fill="black"/>
<path d="M622.731 1296.31L568.768 1294.77L564.986 1277.8L626.04 1276.1L622.731 1296.31Z" fill="#407BFF"/>
<path d="M580.703 420.287C581.096 422.768 580.072 425.013 578.418 425.289C576.764 425.565 575.149 423.714 574.755 421.35C574.361 418.987 575.385 416.623 577.039 416.348C578.694 416.072 580.309 417.766 580.703 420.287Z" fill="#263238"/>
<path d="M552.382 424.659C552.776 427.18 551.751 429.425 550.097 429.661C548.443 429.898 546.828 428.086 546.434 425.722C546.04 423.359 547.064 420.956 548.718 420.72C550.373 420.484 551.988 422.177 552.382 424.659Z" fill="#263238"/>
<path d="M549.427 420.602L543.165 419.814C543.165 419.814 546.985 424.029 549.427 420.602Z" fill="#263238"/>
<path d="M561.678 427.141C560.32 433.196 558.147 439.04 555.218 444.511C556.636 445.221 558.191 445.614 559.776 445.662C561.361 445.709 562.938 445.411 564.396 444.787L561.678 427.141Z" fill="#FF5652"/>
<path d="M580.703 451.68C579.424 452.134 578.105 452.463 576.764 452.665C576.571 452.7 576.372 452.657 576.21 452.547C576.048 452.436 575.936 452.266 575.897 452.074C575.881 451.976 575.884 451.875 575.906 451.778C575.929 451.68 575.971 451.589 576.03 451.508C576.089 451.427 576.163 451.359 576.248 451.307C576.334 451.256 576.429 451.222 576.528 451.208C579.658 450.802 582.648 449.658 585.25 447.871C587.853 446.083 589.993 443.703 591.496 440.927C591.588 440.757 591.739 440.628 591.921 440.562C592.102 440.497 592.301 440.501 592.48 440.572C592.571 440.611 592.653 440.667 592.722 440.738C592.791 440.808 592.845 440.891 592.882 440.983C592.918 441.074 592.937 441.172 592.935 441.271C592.934 441.369 592.913 441.467 592.874 441.557C590.294 446.39 585.926 450.023 580.703 451.68Z" fill="#263238"/>
<path d="M637.621 424.344C637.409 427.359 636.604 430.303 635.252 433.007C633.901 435.711 632.028 438.121 629.743 440.1C623.677 445.299 617.256 440.73 616.114 433.206C615.05 426.471 616.98 415.639 624.425 413.512C626.041 413.015 627.755 412.927 629.413 413.254C631.072 413.581 632.624 414.313 633.931 415.386C635.237 416.458 636.258 417.838 636.902 419.401C637.546 420.964 637.793 422.662 637.621 424.344Z" fill="#FF8B7B"/>
<path d="M593.583 404.767C593.387 404.806 593.184 404.806 592.988 404.765C592.792 404.724 592.606 404.645 592.441 404.531C590.936 403.413 589.187 402.669 587.337 402.361C585.488 402.053 583.592 402.189 581.806 402.758C581.625 402.835 581.431 402.874 581.235 402.873C581.039 402.873 580.845 402.833 580.665 402.755C580.485 402.678 580.322 402.565 580.186 402.424C580.051 402.282 579.945 402.115 579.876 401.931C579.733 401.565 579.739 401.158 579.894 400.797C580.049 400.436 580.339 400.15 580.703 400.001C582.944 399.238 585.336 399.03 587.675 399.393C590.015 399.757 592.231 400.682 594.135 402.089C594.454 402.312 594.674 402.651 594.747 403.033C594.821 403.415 594.742 403.812 594.529 404.137C594.295 404.45 593.961 404.672 593.583 404.767Z" fill="#263238"/>
<path d="M540.092 413.787C539.919 413.866 539.731 413.906 539.54 413.906C539.35 413.906 539.162 413.866 538.989 413.787C538.811 413.707 538.651 413.592 538.519 413.448C538.386 413.305 538.284 413.136 538.218 412.953C538.151 412.769 538.123 412.574 538.134 412.379C538.144 412.184 538.194 411.993 538.28 411.818C539.213 409.646 540.656 407.732 542.487 406.237C544.318 404.742 546.483 403.711 548.797 403.231C549.174 403.203 549.548 403.319 549.843 403.556C550.138 403.793 550.333 404.132 550.388 404.507C550.443 404.881 550.354 405.262 550.139 405.573C549.924 405.885 549.6 406.103 549.23 406.185C547.404 406.597 545.702 407.436 544.264 408.635C542.826 409.833 541.693 411.356 540.958 413.078C540.87 413.249 540.747 413.4 540.598 413.522C540.449 413.644 540.277 413.734 540.092 413.787Z" fill="#263238"/>
<path d="M680.122 569.81C680.713 575.521 681.028 580.524 681.185 585.841C681.343 591.159 681.461 596.279 681.422 601.597C681.264 612.101 680.595 622.605 679.413 633.109C678.205 643.741 676.231 654.272 673.504 664.62C672.098 669.965 670.389 675.226 668.384 680.376C667.399 682.976 666.296 685.575 665.154 688.254C665.154 688.254 664.563 689.514 664.169 690.223C663.753 691.04 663.266 691.818 662.712 692.547C661.738 693.987 660.602 695.309 659.324 696.486C657.252 698.261 654.929 699.721 652.431 700.819C648.863 702.313 645.093 703.268 641.244 703.655C638.171 703.995 635.079 704.126 631.988 704.049C626.423 703.899 620.872 703.412 615.365 702.592C605.048 700.961 594.83 698.752 584.76 695.974C574.873 693.256 565.065 690.263 555.493 687.072C545.922 683.882 536.389 680.337 526.896 676.358L531.82 661.233C541.392 663.32 551.121 665.526 560.811 667.378C570.501 669.229 580.151 671.316 589.762 672.734C599.373 674.153 608.984 675.61 618.28 676.201C622.722 676.551 627.182 676.63 631.633 676.437C633.535 676.346 635.43 676.136 637.305 675.807C638.44 675.63 639.542 675.284 640.575 674.783C640.575 674.783 640.575 674.783 639.984 675.098C639.621 675.377 639.303 675.709 639.039 676.083L638.566 676.792C638.566 676.792 638.211 677.579 638.566 677.067C639.314 675.019 640.063 673.128 640.693 670.844C642.032 666.59 643.135 662.218 644.12 657.766C645.964 648.659 647.279 639.453 648.059 630.194C648.925 620.819 649.201 611.287 649.201 601.755C649.201 596.988 649.201 592.222 649.201 587.456C649.201 582.69 648.768 577.766 648.492 573.512L680.122 569.81Z" fill="#FF8B7B"/>
<path d="M671.496 531.996C685.085 540.858 680.477 618.101 680.477 618.101L648.492 624.522C648.492 624.522 648.217 585.132 644.79 559.568C642.466 542.197 661.806 525.654 671.496 531.996Z" fill="#FF8B7B"/>
<path d="M561.993 1390.69C561.609 1390.18 561.348 1389.58 561.232 1388.96C561.116 1388.33 561.147 1387.68 561.323 1387.06C561.396 1386.61 561.582 1386.18 561.864 1385.81C562.147 1385.45 562.516 1385.16 562.938 1384.98C566.877 1383.28 575.858 1389.39 576.882 1390.06C576.998 1390.14 577.086 1390.26 577.135 1390.39C577.184 1390.52 577.192 1390.67 577.158 1390.81C577.123 1390.95 577.05 1391.09 576.946 1391.2C576.843 1391.31 576.712 1391.39 576.567 1391.44C572.431 1392.42 565.065 1393.68 562.308 1391L561.993 1390.69ZM574.519 1390.37C570.58 1388.05 565.459 1385.41 563.45 1386.43C563.267 1386.52 563.109 1386.65 562.991 1386.82C562.874 1386.98 562.802 1387.18 562.78 1387.38C562.636 1387.83 562.615 1388.32 562.718 1388.78C562.822 1389.24 563.048 1389.67 563.371 1390.02C564.868 1391.36 568.965 1391.52 574.519 1390.45V1390.37Z" fill="#407BFF"/>
<path d="M572.313 1387.89C571.198 1386.77 570.315 1385.45 569.713 1383.99C569.112 1382.53 568.804 1380.96 568.807 1379.38C568.98 1378.8 569.331 1378.28 569.811 1377.91C570.291 1377.53 570.877 1377.32 571.486 1377.3C572.036 1377.21 572.599 1377.25 573.131 1377.41C573.663 1377.58 574.152 1377.86 574.558 1378.24C577.749 1381.23 577.197 1390.29 577.158 1390.69C577.152 1390.82 577.113 1390.96 577.044 1391.07C576.976 1391.19 576.879 1391.29 576.764 1391.36C576.648 1391.42 576.52 1391.45 576.39 1391.45C576.26 1391.45 576.131 1391.42 576.015 1391.36C574.607 1390.4 573.357 1389.23 572.313 1387.89ZM573.81 1379.7C573.715 1379.58 573.609 1379.48 573.495 1379.38C573.241 1379.14 572.936 1378.96 572.602 1378.85C572.268 1378.74 571.913 1378.71 571.564 1378.75C570.58 1378.75 570.383 1379.3 570.265 1379.66C569.674 1381.83 572.904 1386.91 575.74 1389.27C576.001 1385.96 575.332 1382.65 573.81 1379.7Z" fill="#407BFF"/>
<path d="M621.392 712.636L622.771 724.453C623.086 725.359 621.904 726.186 620.447 726.029L490.461 714.527C489.319 714.527 488.452 713.778 488.492 713.069L489.24 701.568C489.24 700.78 490.382 700.189 491.604 700.307L619.58 711.651C619.942 711.645 620.299 711.732 620.616 711.904C620.934 712.077 621.201 712.329 621.392 712.636Z" fill="white"/>
<path d="M601.855 725.556L605.282 725.832C605.991 725.832 606.542 725.595 606.582 725.162L607.369 710.233C607.369 709.8 606.857 709.367 606.188 709.327L602.721 709.012C602.052 709.012 601.461 709.249 601.422 709.682L600.634 724.65C600.634 725.083 601.185 725.477 601.855 725.556Z" fill="#407BFF"/>
<path opacity="0.6" d="M601.855 725.556L605.282 725.832C605.991 725.832 606.542 725.595 606.582 725.162L607.369 710.233C607.369 709.8 606.857 709.367 606.188 709.327L602.721 709.012C602.052 709.012 601.461 709.249 601.422 709.682L600.634 724.65C600.634 725.083 601.185 725.477 601.855 725.556Z" fill="black"/>
<path d="M499.797 716.496L503.224 716.811C503.933 716.811 504.484 716.575 504.523 716.142L505.311 701.174C505.311 700.74 504.799 700.347 504.13 700.268L500.703 699.992C499.994 699.992 499.442 700.228 499.403 700.662L498.615 715.59C498.576 716.024 499.127 716.457 499.797 716.496Z" fill="#407BFF"/>
<path opacity="0.6" d="M499.797 716.496L503.224 716.811C503.933 716.811 504.484 716.575 504.523 716.142L505.311 701.174C505.311 700.74 504.799 700.347 504.13 700.268L500.703 699.992C499.994 699.992 499.442 700.228 499.403 700.662L498.615 715.59C498.576 716.024 499.127 716.457 499.797 716.496Z" fill="black"/>
<path d="M550.846 721.026L554.272 721.341C554.942 721.341 555.533 721.066 555.533 720.632L556.36 705.704C556.36 705.27 555.848 704.876 555.139 704.798L551.712 704.483C551.043 704.483 550.452 704.758 550.452 705.192L549.625 720.12C549.625 720.553 550.176 720.829 550.846 721.026Z" fill="#407BFF"/>
<path opacity="0.6" d="M550.846 721.026L554.272 721.341C554.942 721.341 555.533 721.066 555.533 720.632L556.36 705.704C556.36 705.27 555.848 704.876 555.139 704.798L551.712 704.483C551.043 704.483 550.452 704.758 550.452 705.192L549.625 720.12C549.625 720.553 550.176 720.829 550.846 721.026Z" fill="black"/>
<path d="M536.744 662.178L517.049 635.905L508.856 667.417C508.856 667.417 523.509 680.219 535.956 675.295L536.744 662.178Z" fill="#FF8B7B"/>
<path d="M491.84 630.115L486.365 656.703L512.953 670.292L517.167 635.905L491.84 630.115Z" fill="#FF8B7B"/>
<path d="M577.788 416.23L571.486 415.442C571.486 415.442 575.149 419.656 577.788 416.23Z" fill="#263238"/>
<path d="M1343.93 81.4375H1227.78L1201.26 134.462H1052.29V346.562H1370.44V81.4375H1343.93ZM1343.93 317.525H1081.33V160.975H1343.93V317.525ZM1343.93 134.462H1240.4L1253.03 107.95H1342.66V134.462H1343.93Z" fill="#B1DB7B"/>
<path d="M1322.46 184.963H1004.31L1052.29 346.563H1370.44L1322.46 184.963Z" fill="#B1DB7B"/>
<path fill-rule="evenodd" clip-rule="evenodd" d="M1256.81 138.25C1283.03 138.25 1308.66 146.025 1330.46 160.591C1352.26 175.157 1369.25 195.86 1379.28 220.083C1389.32 244.306 1391.94 270.96 1386.83 296.674C1381.71 322.389 1369.09 346.009 1350.55 364.548C1332.01 383.088 1308.39 395.713 1282.67 400.828C1256.96 405.943 1230.31 403.318 1206.08 393.284C1181.86 383.251 1161.16 366.26 1146.59 344.46C1132.02 322.66 1124.25 297.031 1124.25 270.812C1124.25 235.655 1138.22 201.937 1163.08 177.077C1187.94 152.216 1221.65 138.25 1256.81 138.25Z" fill="#83CD29"/>
<path d="M1256.81 403.375C1253.24 403.376 1249.72 402.436 1246.62 400.648L1214.18 381.458C1209.34 378.744 1211.65 377.784 1213.29 377.229C1218.44 375.627 1223.37 373.388 1227.96 370.563C1228.35 370.39 1228.77 370.317 1229.19 370.35C1229.62 370.383 1230.02 370.521 1230.38 370.752L1255.3 385.548C1255.76 385.795 1256.28 385.924 1256.81 385.924C1257.33 385.924 1257.85 385.795 1258.31 385.548L1355.53 329.468C1355.98 329.197 1356.36 328.812 1356.62 328.352C1356.88 327.892 1357.02 327.371 1357.02 326.842V214.707C1357.02 214.169 1356.88 213.641 1356.62 213.172C1356.35 212.703 1355.97 212.31 1355.51 212.03L1258.4 156.001C1257.94 155.743 1257.43 155.608 1256.9 155.608C1256.37 155.608 1255.86 155.743 1255.4 156.001L1158.21 212.043C1157.75 212.316 1157.36 212.705 1157.09 213.172C1156.82 213.639 1156.68 214.168 1156.67 214.707V326.83C1156.67 327.36 1156.81 327.88 1157.08 328.338C1157.35 328.795 1157.74 329.172 1158.2 329.43L1184.85 344.808C1199.29 352.029 1208.14 343.545 1208.14 334.985V224.277C1208.14 223.907 1208.21 223.541 1208.35 223.199C1208.5 222.858 1208.7 222.547 1208.96 222.287C1209.23 222.026 1209.54 221.82 1209.88 221.68C1210.22 221.541 1210.59 221.471 1210.96 221.474H1223.28C1224.02 221.474 1224.74 221.769 1225.26 222.295C1225.79 222.821 1226.08 223.533 1226.08 224.277V334.985C1226.6 338.954 1226.22 342.987 1224.98 346.791C1223.74 350.596 1221.67 354.076 1218.91 356.978C1216.16 359.881 1212.79 362.133 1209.06 363.569C1205.32 365.006 1201.31 365.593 1197.32 365.285C1189.44 365.422 1181.67 363.312 1174.94 359.2L1149.5 344.555C1146.41 342.754 1143.84 340.174 1142.05 337.074C1140.27 333.973 1139.32 330.459 1139.31 326.88V214.707C1139.32 211.127 1140.26 207.611 1142.05 204.509C1143.83 201.408 1146.4 198.83 1149.5 197.032L1246.71 140.889C1249.84 139.177 1253.35 138.28 1256.92 138.28C1260.49 138.28 1264 139.177 1267.13 140.889L1364.12 196.994C1367.22 198.793 1369.79 201.371 1371.58 204.472C1373.37 207.573 1374.32 211.089 1374.33 214.669V326.792C1374.31 330.371 1373.36 333.885 1371.57 336.985C1369.78 340.085 1367.22 342.664 1364.12 344.467L1266.91 400.56C1263.85 402.363 1260.37 403.334 1256.81 403.375ZM1289.84 325.188C1320.62 325.188 1338.27 313.068 1338.27 291.896C1338.27 270.724 1324.08 265.384 1294.23 261.369C1264.06 257.379 1261 255.322 1261 248.252C1261 242.419 1263.59 234.629 1285.94 234.629C1305.9 234.629 1313.26 238.934 1316.24 252.393C1316.38 253.014 1316.72 253.57 1317.22 253.969C1317.71 254.369 1318.33 254.587 1318.97 254.589H1331.59C1331.98 254.589 1332.36 254.508 1332.72 254.351C1333.08 254.194 1333.4 253.964 1333.66 253.677C1333.92 253.389 1334.12 253.05 1334.25 252.681C1334.37 252.312 1334.42 251.922 1334.38 251.534C1332.44 228.355 1317.03 217.56 1285.9 217.56C1258.2 217.56 1241.71 229.251 1241.71 248.858C1241.71 270.118 1258.13 276.001 1284.74 278.627C1316.54 281.746 1319.02 286.392 1319.02 292.654C1319.02 303.511 1310.3 308.145 1289.84 308.145C1264.13 308.145 1258.47 301.693 1256.59 288.904C1256.48 288.241 1256.14 287.637 1255.63 287.202C1255.12 286.766 1254.47 286.528 1253.8 286.531H1241.17C1240.8 286.529 1240.44 286.6 1240.1 286.741C1239.75 286.881 1239.45 287.087 1239.18 287.348C1238.92 287.608 1238.72 287.918 1238.58 288.259C1238.44 288.6 1238.37 288.965 1238.37 289.333C1238.39 305.683 1247.29 325.188 1289.81 325.188H1289.84Z" fill="white"/>
</g>
<defs>
<filter id="filter0_d_13_19991" x="0" y="0" width="1977.48" height="1475.5" filterUnits="userSpaceOnUse" color-interpolation-filters="sRGB">
<feFlood flood-opacity="0" result="BackgroundImageFix"/>
<feColorMatrix in="SourceAlpha" type="matrix" values="0 0 0 0 0 0 0 0 0 0 0 0 0 0 0 0 0 0 127 0" result="hardAlpha"/>
<feOffset dy="4"/>
<feGaussianBlur stdDeviation="2"/>
<feComposite in2="hardAlpha" operator="out"/>
<feColorMatrix type="matrix" values="0 0 0 0 0 0 0 0 0 0 0 0 0 0 0 0 0 0 0.25 0"/>
<feBlend mode="normal" in2="BackgroundImageFix" result="effect1_dropShadow_13_19991"/>
<feBlend mode="normal" in="SourceGraphic" in2="effect1_dropShadow_13_19991" result="shape"/>
</filter>
</defs>
</svg>
