<svg width="2304" height="1717" viewBox="0 0 2304 1717" fill="none" xmlns="http://www.w3.org/2000/svg">
<path d="M2303.24 1508.16H0V1509.32H2303.24V1508.16Z" fill="#EBEBEB"/>
<path d="M2072.46 1582.28H1919.89V1583.43H2072.46V1582.28Z" fill="#EBEBEB"/>
<path d="M1525.76 1594.81H1345.09V1595.96H1525.76V1594.81Z" fill="#EBEBEB"/>
<path d="M1915.29 1539.53H1652.62V1540.69H1915.29V1539.53Z" fill="#EBEBEB"/>
<path d="M1119.88 1547.27H803.74V1548.42H1119.88V1547.27Z" fill="#EBEBEB"/>
<path d="M1190.04 1547.27H1160.88V1548.42H1190.04V1547.27Z" fill="#EBEBEB"/>
<path d="M1037.1 1566.71H452.956V1567.86H1037.1V1566.71Z" fill="#EBEBEB"/>
<path d="M1091.74 1302.71H202.271C195.303 1302.7 188.624 1299.93 183.702 1294.99C178.779 1290.06 176.014 1283.38 176.014 1276.41V26.0727C176.075 19.1447 178.866 12.5203 183.782 7.63856C188.699 2.75679 195.343 0.0118681 202.271 0H1091.74C1098.71 0 1105.4 2.77121 1110.34 7.70398C1115.27 12.6368 1118.04 19.327 1118.04 26.303V1276.41C1118.04 1283.39 1115.27 1290.08 1110.34 1295.01C1105.4 1299.94 1098.71 1302.71 1091.74 1302.71ZM202.271 0.921301C195.608 0.933503 189.223 3.58875 184.516 8.30424C179.809 13.0197 177.166 19.4101 177.166 26.0727V1276.41C177.166 1283.07 179.809 1289.46 184.516 1294.18C189.223 1298.9 195.608 1301.55 202.271 1301.56H1091.74C1098.4 1301.55 1104.79 1298.9 1109.51 1294.18C1114.22 1289.47 1116.88 1283.08 1116.89 1276.41V26.0727C1116.88 19.4059 1114.22 13.0156 1109.51 8.30143C1104.79 3.58726 1098.4 0.933478 1091.74 0.921301H202.271Z" fill="#EBEBEB"/>
<path d="M2088.17 1302.71H1198.65C1191.68 1302.7 1185 1299.93 1180.07 1295C1175.14 1290.07 1172.36 1283.38 1172.35 1276.41V26.0727C1172.42 19.1405 1175.23 12.5162 1180.15 7.63568C1185.07 2.75518 1191.72 0.0117387 1198.65 0H2088.17C2095.09 0.0239744 2101.72 2.77425 2106.63 7.65473C2111.53 12.5352 2114.32 19.1526 2114.38 26.0727V1276.41C2114.38 1283.37 2111.62 1290.05 2106.71 1294.98C2101.79 1299.91 2095.13 1302.69 2088.17 1302.71ZM1198.65 0.921301C1191.99 0.933478 1185.6 3.58726 1180.88 8.30143C1176.17 13.0156 1173.51 19.4059 1173.5 26.0727V1276.41C1173.51 1283.08 1176.17 1289.47 1180.88 1294.18C1185.6 1298.9 1191.99 1301.55 1198.65 1301.56H2088.17C2094.83 1301.55 2101.22 1298.9 2105.94 1294.18C2110.65 1289.47 2113.31 1283.08 2113.32 1276.41V26.0727C2113.31 19.4059 2110.65 13.0156 2105.94 8.30143C2101.22 3.58726 2094.83 0.933478 2088.17 0.921301H1198.65Z" fill="#EBEBEB"/>
<path d="M1693.3 381.233C1757.31 381.233 1809.2 329.343 1809.2 265.334C1809.2 201.324 1757.31 149.435 1693.3 149.435C1629.29 149.435 1577.4 201.324 1577.4 265.334C1577.4 329.343 1629.29 381.233 1693.3 381.233Z" fill="#F5F5F5"/>
<path d="M1984.15 625.884C1982.59 610.406 1953.47 599.857 1904.37 599.857C1840.52 599.857 1764.51 617.638 1724.25 640.993C1714.3 638.814 1704.13 637.809 1693.94 637.999C1650.41 637.999 1597.67 651.542 1576.16 668.171C1574.35 669.555 1572.67 671.096 1571.13 672.778H1999.54C2006.06 669.832 2012.23 666.187 2017.96 661.906C2041.46 643.711 2026.12 628.647 1984.15 625.884Z" fill="#EBEBEB"/>
<path d="M652.509 679.964C651.311 668.493 629.799 660.708 593.408 660.708C546.099 660.708 489.762 673.837 459.82 691.157C452.438 689.545 444.894 688.803 437.34 688.946C405.095 688.946 366.078 698.942 350.093 711.288C348.759 712.305 347.511 713.429 346.362 714.65H663.749C668.622 712.467 673.253 709.781 677.568 706.635C694.935 693.138 683.603 681.99 652.509 679.964Z" fill="#F5F5F5"/>
<path d="M1391.16 462.722C1418.77 452.934 1447.82 447.797 1477.12 447.52C1514.38 447.52 1531.93 457.885 1520.14 471.52C1527.51 470.414 1534.94 469.844 1542.39 469.816C1567.82 469.816 1578.18 477.693 1565.42 487.412C1564.22 488.288 1562.89 489.209 1561.41 490.084H1311.51C1312.98 487.526 1315.01 485.336 1317.46 483.681C1330.95 473.132 1362.69 464.334 1391.16 462.722Z" fill="#F5F5F5"/>
<path d="M854.595 478.476C872.206 472.24 890.731 468.971 909.413 468.802C933.136 468.802 944.33 475.436 937.051 484.096C941.749 483.391 946.49 483.022 951.239 482.99C967.408 482.99 974.272 488.011 966.026 494.23C965.211 494.841 964.365 495.409 963.493 495.934H803.74C804.616 494.329 805.845 492.943 807.333 491.881C816.131 485.109 836.354 479.535 854.595 478.476Z" fill="#F5F5F5"/>
<path d="M868.277 236.819C865.144 236.819 861.966 236.819 858.695 236.819C860.354 223.921 838.242 214.893 798.811 214.893C787.945 214.922 777.089 215.537 766.289 216.735C766.289 200.29 736.623 189.096 685.445 189.096C622.981 189.096 549.001 205.91 507.312 228.39C467.466 231.292 424.396 243.545 405.417 258.24C403.563 259.601 401.85 261.144 400.304 262.846H902.411C921.297 248.474 905.866 236.819 868.277 236.819Z" fill="#EBEBEB"/>
<path d="M1513.42 1231.27C1494.99 1065.43 1269.55 1410.92 1282.54 1274.98C1290.42 1192.07 1335.42 1078.38 1201.92 1108.46C1068.43 1138.54 1110.67 1293.18 1044.75 1326.67C978.833 1360.16 997.535 1211.51 908.491 1220.3C883.294 1222.79 864.546 1241.91 850.588 1269.23C849.068 1222.19 838.15 1180.41 809.774 1157.84C700.186 1070.73 778.496 1331.78 603.45 1246.47C539.926 1215.47 691.526 1029.55 567.059 990.671C442.591 951.792 453.693 1098.74 436.833 1206.21C409.194 1382.31 286.708 935.117 218.946 1149.87C174.77 1289.82 289.195 1508.62 289.195 1508.62L809.728 1507.47V1508.07L1360.43 1508.62C1360.43 1508.62 1525.35 1339.47 1513.42 1231.27Z" fill="#F5F5F5"/>
<path d="M1342.42 835.617L1377.71 772.37L1413.22 842.665L1406.5 1508.16H1348.92L1342.42 835.617Z" fill="#F0F0F0"/>
<path d="M1287.51 858.327L1252.23 772.37L1216.71 842.665L1223.44 1508.16H1280.97L1287.51 858.327Z" fill="#F0F0F0"/>
<path d="M1145.59 835.617L1110.3 772.37L1074.79 842.665L1081.51 1508.16H1139.09L1145.59 835.617Z" fill="#F0F0F0"/>
<path d="M917.797 858.327L953.082 772.37L988.598 842.665L981.873 1508.16H924.292L917.797 858.327Z" fill="#F0F0F0"/>
<path d="M1869.4 835.617L1904.74 772.37L1940.25 842.665L1933.53 1508.16H1875.95L1869.4 835.617Z" fill="#F0F0F0"/>
<path d="M1814.54 858.327L1779.21 772.37L1743.74 842.665L1750.46 1508.16H1808L1814.54 858.327Z" fill="#F0F0F0"/>
<path d="M1672.62 835.617L1637.33 772.37L1601.81 842.665L1608.54 1508.16H1666.12L1672.62 835.617Z" fill="#F0F0F0"/>
<path d="M1469.88 858.327L1505.22 772.37L1540.69 842.665L1533.96 1508.16H1476.43L1469.88 858.327Z" fill="#F0F0F0"/>
<path d="M919.547 1036.87L986.663 1036.92L987.354 968.975L918.856 968.468L919.547 1036.87Z" fill="#E0E0E0"/>
<path d="M1076.77 1036.97L1143.65 1037.01L1144.3 970.172L1076.08 969.666L1076.77 1036.97Z" fill="#E0E0E0"/>
<path d="M1218.69 1037.01L1285.72 1037.06L1286.36 971.278L1218.05 970.771L1218.69 1037.01Z" fill="#E0E0E0"/>
<path d="M1344.36 1037.06L1411.24 1037.1L1411.89 972.245L1343.71 971.692L1344.36 1037.06Z" fill="#E0E0E0"/>
<path d="M1471.68 1037.15H1538.75L1539.4 973.212L1471.04 972.706L1471.68 1037.15Z" fill="#E0E0E0"/>
<path d="M1603.75 1037.2L1670.68 1037.24L1671.28 974.226L1603.15 973.719L1603.75 1037.2Z" fill="#E0E0E0"/>
<path d="M1745.67 1037.24L1812.74 1037.29L1813.34 975.331L1745.08 974.779L1745.67 1037.24Z" fill="#E0E0E0"/>
<path d="M1870.74 975.792L1871.39 1037.33H1938.27L1938.87 976.299L1870.74 975.792Z" fill="#E0E0E0"/>
<path d="M886.979 999.101L2003.73 1018.91L2002.76 958.288L875.232 930.142L886.979 999.101Z" fill="#F0F0F0"/>
<path d="M1151.62 1716.19C1644.9 1716.19 2044.77 1692.85 2044.77 1664.05C2044.77 1635.25 1644.9 1611.9 1151.62 1611.9C658.348 1611.9 258.47 1635.25 258.47 1664.05C258.47 1692.85 658.348 1716.19 1151.62 1716.19Z" fill="#F5F5F5"/>
<path d="M1760.69 1644.52H1788.33C1788.33 1644.52 1785.52 1524.75 1842.59 1412.39C1899.67 1300.04 1884.93 1228.83 1851.02 1257.16C1817.12 1285.49 1768.06 1447.54 1760.69 1644.52Z" fill="#263238"/>
<path d="M1758.8 1631.66L1737.24 1643.41C1691.73 1668.15 1638.25 1670.17 1583.76 1647.37C1551.1 1633.55 1522.63 1612.64 1519.86 1580.49C1513.14 1502.18 1607.85 1605.91 1610.66 1560.26C1613.47 1514.61 1501.16 1525.48 1500.61 1475.23C1500.06 1424.97 1624.52 1523.55 1620.38 1451.69C1616.23 1379.83 1504.2 1449.71 1502.22 1395.72C1500.24 1341.73 1613.7 1402.54 1617.38 1355.6C1621.07 1308.66 1501.16 1349.15 1510.05 1294.88C1518.94 1240.62 1631.66 1352.33 1647.19 1307.92C1662.71 1263.51 1510.7 1276.04 1544.46 1224.77C1578.23 1173.5 1654.33 1260.89 1673.44 1240.67C1692.56 1220.44 1599.14 1200.27 1611.3 1171.29C1623.46 1142.32 1666.58 1137.16 1714.3 1180.14C1769.17 1229.79 1808.83 1295.3 1801.09 1335.51C1793.35 1375.73 1745.26 1282.95 1731.35 1307.37C1701.87 1359.14 1804.82 1373.93 1809.11 1422.16C1813.39 1470.39 1725.04 1372.41 1708.55 1401.57C1677.77 1456.11 1834.76 1463.43 1820.25 1498.67C1803.53 1539.21 1694.5 1459.8 1689.52 1510.79C1682.15 1586.98 1786.26 1499.6 1802.47 1551.1C1818.69 1602.6 1758.8 1631.66 1758.8 1631.66Z" fill="#407BFF"/>
<path opacity="0.8" d="M1758.8 1631.66L1737.24 1643.41C1691.73 1668.15 1638.25 1670.17 1583.76 1647.37C1551.1 1633.55 1522.63 1612.64 1519.86 1580.49C1513.14 1502.18 1607.85 1605.91 1610.66 1560.26C1613.47 1514.61 1501.16 1525.48 1500.61 1475.23C1500.06 1424.97 1624.52 1523.55 1620.38 1451.69C1616.23 1379.83 1504.2 1449.71 1502.22 1395.72C1500.24 1341.73 1613.7 1402.54 1617.38 1355.6C1621.07 1308.66 1501.16 1349.15 1510.05 1294.88C1518.94 1240.62 1631.66 1352.33 1647.19 1307.92C1662.71 1263.51 1510.7 1276.04 1544.46 1224.77C1578.23 1173.5 1654.33 1260.89 1673.44 1240.67C1692.56 1220.44 1599.14 1200.27 1611.3 1171.29C1623.46 1142.32 1666.58 1137.16 1714.3 1180.14C1769.17 1229.79 1808.83 1295.3 1801.09 1335.51C1793.35 1375.73 1745.26 1282.95 1731.35 1307.37C1701.87 1359.14 1804.82 1373.93 1809.11 1422.16C1813.39 1470.39 1725.04 1372.41 1708.55 1401.57C1677.77 1456.11 1834.76 1463.43 1820.25 1498.67C1803.53 1539.21 1694.5 1459.8 1689.52 1510.79C1682.15 1586.98 1786.26 1499.6 1802.47 1551.1C1818.69 1602.6 1758.8 1631.66 1758.8 1631.66Z" fill="white"/>
<path d="M1572.01 1654.7H1516.73C1501.69 1570.41 1471.14 1489.64 1426.63 1416.49C1352.93 1295.76 1402.95 1254.16 1459.89 1287.97C1516.82 1321.79 1557.22 1457.81 1572.01 1654.7Z" fill="#407BFF"/>
<path opacity="0.2" d="M1572.01 1654.7H1516.73C1501.69 1570.41 1471.14 1489.64 1426.63 1416.49C1352.93 1295.76 1402.95 1254.16 1459.89 1287.97C1516.82 1321.79 1557.22 1457.81 1572.01 1654.7Z" fill="black"/>
<path d="M1639.63 1663.31H1570.54C1569.85 1560.63 1548.54 1459.14 1507.89 1364.86C1440.96 1213.58 1512.49 1161.53 1576.62 1203.63C1640.74 1245.73 1662.67 1416.68 1639.63 1663.31Z" fill="#407BFF"/>
<path d="M1773.5 1667.55H1801.14C1801.14 1667.55 1803.9 1585.65 1861.34 1529.68C1913.86 1478.54 1875.85 1460.58 1841.26 1483.61C1806.66 1506.64 1774.23 1598.45 1773.5 1667.55Z" fill="#407BFF"/>
<path d="M1475.14 1663.31H1422.58C1422.58 1663.31 1439.62 1600.2 1415.21 1515.9C1464.08 1558.01 1475.6 1624.52 1475.14 1663.31Z" fill="#407BFF"/>
<path d="M1438.93 1663.31H1401.48C1401.48 1663.31 1406.08 1618.35 1378.86 1558.28C1418.8 1588.27 1434.69 1635.67 1438.93 1663.31Z" fill="#407BFF"/>
<path d="M1848.54 1663.31H1871.02C1871.02 1663.31 1868.16 1636.32 1884.61 1600.25C1860.74 1618.26 1851.12 1646.73 1848.54 1663.31Z" fill="#407BFF"/>
<path d="M1244.4 1643.78H1263.1C1263.1 1643.78 1260.75 1621.3 1274.43 1591.26C1258.23 1604.42 1247.52 1623.15 1244.4 1643.78Z" fill="#407BFF"/>
<path opacity="0.6" d="M1244.4 1643.78H1263.1C1263.1 1643.78 1260.75 1621.3 1274.43 1591.26C1258.23 1604.42 1247.52 1623.15 1244.4 1643.78Z" fill="white"/>
<path d="M453.278 1643.78H415.689C415.689 1643.78 420.296 1598.64 392.933 1538.2C433.01 1568.37 449.04 1616 453.278 1643.78Z" fill="#407BFF"/>
<path opacity="0.2" d="M453.278 1643.78H415.689C415.689 1643.78 420.296 1598.64 392.933 1538.2C433.01 1568.37 449.04 1616 453.278 1643.78Z" fill="black"/>
<path d="M464.61 1664.65H484.556C484.556 1664.65 482.023 1640.74 496.579 1608.77C475.436 1624.75 466.868 1649.95 464.61 1664.65Z" fill="#407BFF"/>
<path opacity="0.2" d="M464.61 1664.65H484.556C484.556 1664.65 482.023 1640.74 496.579 1608.77C475.436 1624.75 466.868 1649.95 464.61 1664.65Z" fill="white"/>
<path d="M573.323 1160.42L535.873 1093.26L498.192 1167.88L505.332 1637.19H566.414L573.323 1160.42Z" fill="#407BFF"/>
<path opacity="0.6" d="M573.323 1160.42L535.873 1093.26L498.192 1167.88L505.332 1637.19H566.414L573.323 1160.42Z" fill="white"/>
<path d="M631.549 1184.51L669 1093.26L706.681 1167.88L699.541 1637.19H638.459L631.549 1184.51Z" fill="#407BFF"/>
<path opacity="0.6" d="M631.549 1184.51L669 1093.26L706.681 1167.88L699.541 1637.19H638.459L631.549 1184.51Z" fill="white"/>
<path d="M782.089 1160.42L819.54 1093.26L857.221 1167.88L850.081 1637.19H788.999L782.089 1160.42Z" fill="#407BFF"/>
<path opacity="0.6" d="M782.089 1160.42L819.54 1093.26L857.221 1167.88L850.081 1637.19H788.999L782.089 1160.42Z" fill="white"/>
<path d="M1023.79 1184.51L986.341 1093.26L948.66 1167.88L955.8 1637.19H1016.88L1023.79 1184.51Z" fill="#407BFF"/>
<path opacity="0.6" d="M1023.79 1184.51L986.341 1093.26L948.66 1167.88L955.8 1637.19H1016.88L1023.79 1184.51Z" fill="white"/>
<g opacity="0.5">
<path d="M500.817 1340.81L570.744 1337.59L571.803 1263.51L499.712 1267.98L500.817 1340.81Z" fill="#407BFF"/>
<path d="M633.853 1334.73L704.194 1331.5L705.345 1255.22L632.701 1259.69L633.853 1334.73Z" fill="#407BFF"/>
<path d="M784.531 1327.82L854.826 1324.55L856.023 1245.87L783.425 1250.38L784.531 1327.82Z" fill="#407BFF"/>
<path d="M949.765 1240.07L950.963 1320.13L1021.76 1316.9L1023.05 1235.55L949.765 1240.07Z" fill="#407BFF"/>
</g>
<path d="M1043.32 1292.03L447.428 1319.39L446.323 1247.44L1047.75 1210.12L1043.32 1292.03Z" fill="#407BFF"/>
<path opacity="0.6" d="M1043.32 1292.03L447.428 1319.39L446.323 1247.44L1047.75 1210.12L1043.32 1292.03Z" fill="white"/>
<path d="M1201.83 345.487C1118.92 322.961 1079.16 339.176 1036.6 350.093C994.034 361.01 999.746 323.974 1079.16 290.209C1130.34 268.512 1190.5 287.952 1239.05 313.886C1303.54 348.435 1390.1 301.126 1359.83 334.247C1329.57 367.367 1261.12 361.609 1201.83 345.487Z" fill="#407BFF"/>
<path opacity="0.3" d="M1201.83 345.487C1118.92 322.961 1079.16 339.176 1036.6 350.093C994.034 361.01 999.746 323.974 1079.16 290.209C1130.34 268.512 1190.5 287.952 1239.05 313.886C1303.54 348.435 1390.1 301.126 1359.83 334.247C1329.57 367.367 1261.12 361.609 1201.83 345.487Z" fill="black"/>
<path d="M1196.17 279.199C1184.42 273.81 1143.61 274.593 1124.72 278.923C1084.69 288.136 1080.96 329.087 1095.28 365.709C1109.61 402.331 1114.45 513.854 1222.52 443.052C1313.68 383.26 1257.16 274.27 1196.17 279.199Z" fill="#263238"/>
<path d="M1246.88 541.355C1246.52 552.825 1246.33 565.308 1246.61 577.331C1246.88 589.354 1247.11 601.607 1248.04 613.63C1249.49 637.498 1252.8 661.217 1257.94 684.57L1260.06 693.092C1260.38 694.704 1260.7 695.488 1261.03 696.639C1261.35 697.791 1261.85 698.896 1262.22 700.048C1264.23 705.11 1266.57 710.034 1269.23 714.789C1275.06 725.135 1281.43 735.175 1288.3 744.869C1295.21 754.819 1302.53 764.723 1310.08 774.443C1317.64 784.162 1325.38 794.02 1333.12 803.556L1318.79 817.974C1299.06 801.497 1280.58 783.574 1263.51 764.354C1254.69 754.486 1246.57 744.019 1239.19 733.03C1235.2 727.163 1231.66 721.003 1228.6 714.604C1227.86 712.854 1227.03 711.196 1226.34 709.307C1225.65 707.418 1224.82 705.345 1224.4 703.917L1221.46 694.336C1217.73 681.654 1214.74 668.764 1212.52 655.734C1210.08 642.835 1208.65 629.891 1207.41 616.947C1206.16 604.003 1205.38 591.105 1205.15 578.16C1204.92 565.216 1204.92 552.548 1205.79 538.913L1246.88 541.355Z" fill="#FFB573"/>
<path d="M1234.54 491.788C1267.57 509.8 1254.85 580.648 1254.85 580.648L1193.96 601.423C1193.96 601.423 1161.43 517.539 1180.96 501.646C1201.28 485.109 1208.97 477.831 1234.54 491.788Z" fill="#263238"/>
<path opacity="0.2" d="M1235.64 512.656L1243.34 584.655L1198.1 600.041L1235.64 512.656Z" fill="black"/>
<path d="M1326.3 796.922L1371.07 805.721L1340.49 832.577C1340.49 832.577 1316.21 823.778 1313.82 807.241L1326.3 796.922Z" fill="#FFB573"/>
<path d="M1394.06 824.745L1372 851.002L1340.35 832.576L1371.07 805.628L1394.06 824.745Z" fill="#FFB573"/>
<path d="M1065.57 1623H1105.79L1108.46 1529.91H1068.29L1065.57 1623Z" fill="#FFB573"/>
<path d="M747.034 1472.05L781.398 1492.87L840.638 1419.86L806.227 1399.08L747.034 1472.05Z" fill="#FFB573"/>
<path d="M786.465 1489.78L756.063 1456.39C755.547 1455.8 754.836 1455.43 754.063 1455.34C753.29 1455.24 752.51 1455.44 751.871 1455.88L721.975 1476.1C721.242 1476.64 720.63 1477.33 720.181 1478.12C719.732 1478.91 719.454 1479.78 719.367 1480.69C719.281 1481.59 719.386 1482.5 719.676 1483.37C719.967 1484.23 720.436 1485.02 721.053 1485.68C731.832 1497.15 737.637 1502.13 750.995 1516.82C759.241 1526.04 776.608 1553.68 787.847 1566.02C799.087 1578.37 812.17 1567.91 808.531 1561.69C796.674 1541.91 789.974 1519.46 789.045 1496.42C788.98 1493.97 788.068 1491.63 786.465 1489.78Z" fill="#263238"/>
<path d="M1107.17 1618.35H1061.98C1061.21 1618.34 1060.46 1618.61 1059.88 1619.11C1059.3 1619.61 1058.91 1620.31 1058.8 1621.07L1053.64 1656.82C1053.55 1657.72 1053.65 1658.63 1053.93 1659.49C1054.22 1660.35 1054.68 1661.14 1055.28 1661.81C1055.89 1662.49 1056.63 1663.02 1057.46 1663.39C1058.29 1663.76 1059.18 1663.95 1060.09 1663.96C1075.84 1663.68 1083.4 1662.76 1103.3 1662.76C1115.51 1662.76 1144.02 1664.05 1160.88 1664.05C1177.74 1664.05 1178.66 1647.37 1171.61 1645.85C1140.15 1639.08 1124.49 1629.73 1113.89 1620.79C1112 1619.24 1109.62 1618.38 1107.17 1618.35Z" fill="#263238"/>
<g opacity="0.2">
<path d="M1108.46 1529.95L1107.08 1577.91H1066.86L1068.24 1529.95H1108.46Z" fill="black"/>
<path d="M806.181 1399.08L840.592 1419.9L808.116 1459.89L775.64 1436.72L806.181 1399.08Z" fill="black"/>
</g>
<path d="M1246.47 512.011C1244.99 537.301 1235.14 595.941 1195.8 731.28L1033.79 711.242C1044.24 648.271 1049.36 608.287 1036.69 482.115C1036.47 479.977 1036.68 477.816 1037.33 475.765C1037.97 473.713 1039.02 471.814 1040.42 470.184C1041.83 468.554 1043.55 467.227 1045.48 466.285C1047.41 465.342 1049.51 464.804 1051.66 464.703C1069.41 463.857 1087.19 464.027 1104.91 465.209C1129.67 466.52 1154.3 469.599 1178.62 474.422C1197.04 478.476 1217.22 484.28 1230.3 488.242C1235.25 489.847 1239.53 493.054 1242.45 497.358C1245.38 501.661 1246.79 506.817 1246.47 512.011Z" fill="#407BFF"/>
<path d="M1155.4 612.663H1155.03L1093.44 594.605C1093.16 594.519 1092.91 594.33 1092.76 594.075C1092.61 593.819 1092.55 593.516 1092.61 593.223L1095.98 575.396C1096.04 575.1 1096.21 574.837 1096.46 574.659C1096.71 574.481 1097.01 574.399 1097.31 574.429L1204 583.642C1204.15 583.653 1204.31 583.696 1204.45 583.767C1204.59 583.839 1204.72 583.937 1204.82 584.057C1204.92 584.177 1205 584.316 1205.05 584.466C1205.1 584.616 1205.12 584.774 1205.1 584.932L1203.91 603.035C1203.88 603.308 1203.76 603.565 1203.58 603.771C1203.4 603.977 1203.16 604.122 1202.89 604.187L1155.58 612.663H1155.4ZM1095.19 592.532L1155.45 610.175L1201.51 601.976L1202.57 586.037L1098.19 576.824L1095.19 592.532Z" fill="white"/>
<path d="M1060.14 464.38L1051.38 464.702C1049.24 464.81 1047.14 465.353 1045.22 466.298C1043.29 467.243 1041.58 468.571 1040.18 470.2C1038.78 471.829 1037.73 473.726 1037.09 475.775C1036.45 477.823 1036.24 479.98 1036.46 482.115C1039.78 515.143 1041.85 542.276 1043 565.4C1050.75 561.392 1058.23 556.884 1065.39 551.903C1065.39 551.903 1074 505.884 1060.14 464.38Z" fill="#263238"/>
<path d="M1229.93 488.287C1226.06 487.09 1221.55 485.708 1216.67 484.28C1220.77 493.493 1227.17 536.794 1220.77 569.5C1225.26 573.149 1230.47 575.817 1236.06 577.331C1241.14 555.843 1244.64 534.011 1246.52 512.011C1246.8 506.773 1245.32 501.591 1242.31 497.292C1239.31 492.993 1234.95 489.823 1229.93 488.287Z" fill="#263238"/>
<path d="M1200.31 479.674C1193.08 477.785 1185.57 475.896 1178.25 474.284C1153.93 469.464 1129.3 466.385 1104.54 465.071C1095.33 464.38 1086.12 464.104 1077.6 464.058C1083.35 474.284 1090.72 520.994 1087.59 549.969C1134.35 563.466 1204.14 565.262 1204.14 565.262C1204.14 565.262 1212.47 508.556 1200.31 479.674Z" fill="#263238"/>
<path d="M1122.23 383.26C1123.94 407.536 1123.2 451.482 1104.68 465.209C1104.68 465.209 1113.11 493.262 1152.4 513.623C1184.05 502.706 1178.25 474.33 1178.25 474.33C1152.64 464.748 1155.72 445.263 1162.63 427.436L1122.23 383.26Z" fill="#FFB573"/>
<path opacity="0.2" d="M1138.68 401.271L1162.59 427.39C1160.91 431.533 1159.62 435.819 1158.72 440.196C1148.81 437.478 1136.33 424.672 1136.56 413.985C1136.51 409.655 1137.23 405.352 1138.68 401.271Z" fill="black"/>
<path d="M1125.92 321.394C1113.8 359.398 1107.81 375.244 1119.15 401.593C1136.24 441.209 1185.53 447.658 1208.79 414.215C1229.75 383.951 1246.1 326.922 1215.51 297.994C1208.8 291.595 1200.56 287.019 1191.58 284.698C1182.6 282.377 1173.17 282.39 1164.2 284.734C1155.22 287.078 1146.99 291.676 1140.3 298.092C1133.6 304.508 1128.65 312.529 1125.92 321.394Z" fill="#FFB573"/>
<path d="M1124.86 292.051L1114.22 354.7C1145.86 344.012 1204.46 317.848 1212.29 303.153C1226.8 275.33 1148.86 271.322 1124.86 292.051Z" fill="#263238"/>
<path d="M1106.62 279.752C1103.53 261.05 1082.02 230.693 1109.56 214.478C1137.11 198.263 1229.93 212.359 1239.14 229.034C1256.33 261.28 1257.25 308.727 1257.25 308.727C1257.25 308.727 1176.59 276.804 1106.62 279.752Z" fill="#407BFF"/>
<path d="M1098.51 257.411C1101.49 264.868 1103.8 272.576 1105.42 280.443C1108.27 279.43 1165.3 276.482 1201 290.393C1220.71 298.243 1240.9 304.843 1261.44 310.155C1261.44 310.155 1258.58 290.209 1255.54 276.62C1252.5 263.031 1161.94 241.426 1098.51 257.411Z" fill="#407BFF"/>
<path opacity="0.3" d="M1098.51 257.411C1101.49 264.868 1103.8 272.576 1105.42 280.443C1108.27 279.43 1165.3 276.482 1201 290.393C1220.71 298.243 1240.9 304.843 1261.44 310.155C1261.44 310.155 1258.58 290.209 1255.54 276.62C1252.5 263.031 1161.94 241.426 1098.51 257.411Z" fill="white"/>
<path d="M1079.16 290.209C1130.98 270.124 1190.5 287.951 1239.05 313.886C1290.23 341.202 1354.91 317.341 1364.76 322.546C1359.7 317.94 1353.02 318.907 1332.52 320.151C1312.02 321.395 1282.45 317.295 1260.7 304.719C1228.26 284.324 1190.86 273.175 1152.54 272.474C1095.84 270.309 1037.1 301.448 1013.93 333.74C1030.24 327.982 1046.96 302.784 1079.16 290.209Z" fill="#407BFF"/>
<path d="M1195.57 731.28C1195.57 731.28 1189.07 1042.45 1171.38 1163.78C1152.96 1290 1113.43 1568.65 1113.43 1568.65H1059.08C1059.08 1568.65 1060.32 1286.04 1070.96 1161.16C1082.48 1025.04 1076.95 716.585 1076.95 716.585L1195.57 731.28Z" fill="#407BFF"/>
<path d="M1054.38 1570.58H1118.13L1122.83 1550.22L1051.43 1547.73L1054.38 1570.58Z" fill="#407BFF"/>
<path opacity="0.3" d="M1054.38 1570.58H1118.13L1122.83 1550.22L1051.43 1547.73L1054.38 1570.58Z" fill="black"/>
<path opacity="0.2" d="M1116.24 799.087C1146.14 884.077 1096.3 1026.14 1075.48 1078.75C1078.38 996.245 1078.52 894.994 1078.1 820.784C1089.25 779.878 1102.47 760.07 1116.24 799.087Z" fill="black"/>
<path d="M1152.82 725.982C1152.82 725.982 1076.58 1041.07 1036.18 1140.06C988.23 1257.76 828.891 1448.97 828.891 1448.97L781.076 1422.21C781.076 1422.21 896.607 1196.49 929.727 1135.27C1000.34 1005 979.615 795.264 1033.56 711.472L1152.82 725.982Z" fill="#407BFF"/>
<path d="M767.256 1424.33L825.482 1459.47L842.711 1444.92L776.147 1400.46L767.256 1424.33Z" fill="#407BFF"/>
<path opacity="0.3" d="M767.256 1424.33L825.482 1459.47L842.711 1444.92L776.147 1400.46L767.256 1424.33Z" fill="black"/>
<path d="M1181.29 354.285C1180.09 357.325 1180.78 360.365 1182.72 361.148C1184.65 361.932 1187.32 360.089 1188.43 357.049C1189.53 354.008 1188.98 350.968 1187 350.185C1185.02 349.402 1182.44 351.245 1181.29 354.285Z" fill="#263238"/>
<path d="M1215.42 367.552C1214.27 370.592 1214.91 373.678 1216.9 374.415C1218.88 375.152 1221.5 373.356 1222.61 370.362C1223.71 367.367 1223.11 364.235 1221.13 363.498C1219.15 362.761 1216.62 364.557 1215.42 367.552Z" fill="#263238"/>
<path d="M1220.21 363.313L1228.27 364.051C1228.27 364.051 1222.33 368.519 1220.21 363.313Z" fill="#263238"/>
<path d="M1202.8 368.934C1202.8 376.863 1203.9 384.754 1206.07 392.381C1204.1 392.893 1202.05 392.964 1200.05 392.59C1198.05 392.216 1196.16 391.405 1194.51 390.216L1202.8 368.934Z" fill="#ED893E"/>
<path d="M1173.41 395.651C1174.81 396.424 1176.26 397.116 1177.74 397.724C1177.97 397.787 1178.22 397.762 1178.43 397.654C1178.65 397.545 1178.81 397.362 1178.9 397.138C1178.98 396.914 1178.98 396.667 1178.9 396.443C1178.81 396.219 1178.65 396.036 1178.43 395.927C1174.63 394.562 1171.22 392.312 1168.46 389.365C1165.71 386.417 1163.69 382.856 1162.59 378.976C1162.52 378.732 1162.37 378.523 1162.16 378.391C1161.94 378.26 1161.69 378.216 1161.44 378.27C1161.2 378.324 1160.98 378.471 1160.84 378.68C1160.7 378.889 1160.65 379.143 1160.7 379.39C1161.63 382.81 1163.23 386.01 1165.41 388.803C1167.6 391.595 1170.32 393.923 1173.41 395.651Z" fill="#263238"/>
<path d="M1103.12 350.415C1102.38 358.089 1104.72 365.741 1109.61 371.697C1116.2 379.574 1125.23 375.106 1128.04 365.893C1130.75 357.601 1130.62 343.506 1121.68 339.037C1119.72 338.133 1117.58 337.726 1115.43 337.851C1113.27 337.977 1111.19 338.632 1109.35 339.757C1107.52 340.883 1105.98 342.445 1104.9 344.304C1103.81 346.164 1103.2 348.263 1103.12 350.415Z" fill="#FFB573"/>
<path d="M1176.68 334.385C1176.93 334.709 1177.27 334.944 1177.66 335.052C1178.05 335.161 1178.47 335.136 1178.85 334.984C1187.09 331.943 1196.49 338.346 1196.58 338.392C1197 338.68 1197.51 338.79 1198.01 338.699C1198.5 338.608 1198.94 338.324 1199.23 337.909C1199.52 337.493 1199.63 336.981 1199.54 336.484C1199.45 335.988 1199.16 335.547 1198.75 335.26C1198.29 334.938 1187.6 327.705 1177.51 331.437C1177.04 331.613 1176.65 331.967 1176.44 332.423C1176.22 332.879 1176.19 333.401 1176.36 333.878C1176.44 334.063 1176.55 334.234 1176.68 334.385Z" fill="#263238"/>
<path d="M1236.2 350.093C1236.56 350.323 1236.98 350.424 1237.41 350.379C1237.83 350.335 1238.23 350.147 1238.54 349.848C1238.84 349.548 1239.03 349.155 1239.09 348.731C1239.14 348.307 1239.05 347.878 1238.82 347.513C1237.4 344.849 1235.36 342.562 1232.88 340.84C1230.39 339.118 1227.54 338.011 1224.54 337.609C1224.04 337.584 1223.54 337.758 1223.16 338.094C1222.78 338.43 1222.55 338.901 1222.52 339.406C1222.5 339.654 1222.53 339.904 1222.6 340.14C1222.68 340.376 1222.81 340.595 1222.97 340.783C1223.13 340.972 1223.33 341.126 1223.55 341.237C1223.78 341.349 1224.02 341.415 1224.27 341.433C1226.64 341.775 1228.89 342.676 1230.85 344.062C1232.8 345.447 1234.4 347.278 1235.51 349.402C1235.65 349.706 1235.89 349.951 1236.2 350.093Z" fill="#263238"/>
<path d="M796.922 1508.85H797.429C798.324 1508.89 799.213 1508.7 800.018 1508.31C800.822 1507.92 801.515 1507.33 802.035 1506.6C802.435 1506.18 802.711 1505.67 802.833 1505.11C802.955 1504.54 802.918 1503.96 802.726 1503.42C801.16 1498.54 787.11 1494.8 785.498 1494.21C785.323 1494.16 785.139 1494.17 784.968 1494.23C784.797 1494.29 784.646 1494.39 784.53 1494.53C784.427 1494.69 784.373 1494.87 784.373 1495.06C784.373 1495.25 784.427 1495.43 784.53 1495.59C786.972 1500.42 791.809 1507.98 796.922 1508.85ZM787.248 1497.11C792.822 1498.72 800.1 1501.71 801.068 1504.25C801.138 1504.49 801.141 1504.75 801.076 1504.99C801.011 1505.23 800.881 1505.46 800.699 1505.63C800.351 1506.13 799.881 1506.54 799.334 1506.81C798.786 1507.09 798.179 1507.22 797.567 1507.2C794.619 1506.83 790.933 1503.05 787.248 1497.11Z" fill="#407BFF"/>
<path d="M786.419 1496.65C791.348 1497.57 800.792 1496.88 803.233 1493.51C803.712 1492.93 803.974 1492.2 803.974 1491.44C803.974 1490.69 803.712 1489.95 803.233 1489.37C802.816 1488.77 802.275 1488.28 801.646 1487.91C801.018 1487.54 800.318 1487.32 799.594 1487.25C793.79 1486.61 785.176 1494.39 784.807 1494.71C784.695 1494.83 784.612 1494.97 784.564 1495.12C784.516 1495.27 784.505 1495.43 784.531 1495.59C784.571 1495.75 784.651 1495.91 784.763 1496.04C784.875 1496.16 785.017 1496.26 785.176 1496.32L786.419 1496.65ZM799.502 1489.18C799.901 1489.26 800.282 1489.41 800.623 1489.63C800.963 1489.85 801.255 1490.14 801.483 1490.47C802.22 1491.49 801.989 1492.04 801.483 1492.41C799.824 1494.67 791.947 1495.68 787.11 1494.9C790.375 1491.81 794.507 1489.8 798.949 1489.14L799.502 1489.18Z" fill="#407BFF"/>
<path d="M1122.23 1625.35C1125.67 1625.67 1129.11 1624.81 1132 1622.91C1132.63 1622.34 1133.11 1621.62 1133.41 1620.82C1133.71 1620.01 1133.81 1619.15 1133.7 1618.3C1133.68 1617.78 1133.52 1617.27 1133.24 1616.82C1132.95 1616.38 1132.56 1616.01 1132.09 1615.77C1127.16 1613.05 1111.13 1621.25 1109.33 1622.22C1109.16 1622.31 1109.01 1622.45 1108.92 1622.62C1108.83 1622.79 1108.8 1622.99 1108.83 1623.19C1108.87 1623.38 1108.97 1623.55 1109.11 1623.69C1109.25 1623.83 1109.42 1623.93 1109.61 1623.97C1113.76 1624.83 1117.99 1625.29 1122.23 1625.35ZM1129.42 1617.06C1130.02 1617.03 1130.62 1617.14 1131.17 1617.38C1131.36 1617.48 1131.53 1617.64 1131.64 1617.82C1131.75 1618.01 1131.81 1618.22 1131.81 1618.44C1131.9 1619 1131.85 1619.57 1131.66 1620.11C1131.46 1620.64 1131.14 1621.11 1130.71 1621.48C1128.27 1623.69 1121.5 1624.06 1112.74 1622.59C1117.93 1619.74 1123.57 1617.8 1129.42 1616.88V1617.06Z" fill="#407BFF"/>
<path d="M1109.79 1623.97H1110.16C1114.77 1621.81 1124.44 1613.1 1123.71 1608.59C1123.71 1607.48 1122.74 1606.14 1120.11 1605.87C1119.15 1605.77 1118.17 1605.89 1117.25 1606.2C1116.33 1606.51 1115.48 1607.01 1114.77 1607.66C1109.7 1611.86 1108.78 1622.68 1108.74 1623.14C1108.73 1623.31 1108.76 1623.48 1108.83 1623.63C1108.9 1623.78 1109.01 1623.92 1109.15 1624.02C1109.36 1624.06 1109.59 1624.05 1109.79 1623.97ZM1119.38 1607.66H1119.93C1121.68 1607.66 1121.77 1608.54 1121.82 1608.77C1122.28 1611.53 1115.83 1618.35 1110.95 1621.3C1111.32 1616.74 1113.11 1612.41 1116.06 1608.91C1116.98 1608.1 1118.16 1607.66 1119.38 1607.66Z" fill="#407BFF"/>
<path d="M1186.03 350.093L1194.14 350.83C1194.14 350.83 1188.2 354.976 1186.03 350.093Z" fill="#263238"/>
<path d="M1356.66 1076.03L1101.46 988.506L1211.64 774.351L1401.02 839.256L1356.66 1076.03Z" fill="#263238"/>
<path d="M1364.63 1078.75L1324.23 1064.88L1518.57 925.95L1518.21 943.777L1364.63 1078.75Z" fill="#263238"/>
<path d="M1195.25 969.712C1155.12 969.801 1116.37 955.12 1086.38 928.47C1056.39 901.819 1037.26 865.063 1032.63 825.209C1028 785.355 1038.2 745.192 1061.29 712.377C1084.37 679.563 1118.73 656.393 1157.8 647.284C1196.88 638.176 1237.93 643.768 1273.15 662.992C1308.37 682.217 1335.28 713.73 1348.75 751.522C1362.22 789.315 1361.31 830.743 1346.19 867.909C1331.08 905.074 1302.81 935.375 1266.78 953.036C1244.52 963.96 1220.05 969.663 1195.25 969.712ZM1194.97 657.991C1157.61 657.944 1121.6 671.946 1094.08 697.217C1066.56 722.487 1049.55 757.18 1046.43 794.409C1043.3 831.638 1054.28 868.682 1077.2 898.189C1100.11 927.696 1133.28 947.51 1170.13 953.698C1206.97 959.885 1244.79 951.994 1276.09 931.591C1307.39 911.188 1329.87 879.764 1339.08 843.556C1348.28 807.348 1343.54 769.002 1325.79 736.129C1308.03 703.256 1278.57 678.259 1243.24 666.098C1227.71 660.733 1211.4 657.993 1194.97 657.991Z" fill="#263238"/>
<path d="M1508.85 875.509L1511.9 940.368L1567.08 974.64L1508.85 875.509Z" fill="#263238"/>
<path d="M1062.62 682.405L1097.03 663.979L1088.74 704.009C1088.74 704.009 1064.05 711.61 1052.21 699.864L1057.1 688.624C1058.18 685.984 1060.13 683.791 1062.62 682.405Z" fill="#FFB573"/>
<path d="M1047.51 537.946C1044.75 541.401 1041.53 545.639 1038.3 549.6C1035.08 553.562 1032.31 557.8 1029.46 561.992C1023.75 570.329 1018.03 578.713 1012.92 587.373C1002.6 604.164 994.148 622.037 987.723 640.67L985.788 646.751C985.534 647.542 985.379 648.363 985.327 649.192C985.32 650.875 985.907 652.507 986.986 653.799C992.37 659.622 999.021 664.13 1006.43 666.973C1015.47 670.898 1024.8 674.117 1034.34 676.601C1044.06 679.319 1054.38 681.53 1064.24 683.419L1063.22 703.733C1040.47 704.929 1017.66 702.456 995.692 696.409C989.718 694.62 983.908 692.323 978.326 689.545C971.83 686.385 965.937 682.114 960.913 676.923C954.631 670.431 950.54 662.136 949.213 653.2C948.541 648.742 948.541 644.208 949.213 639.749C949.213 638.782 949.581 637.492 949.765 636.755L950.272 634.636L951.332 630.306C952.621 624.502 954.51 619.066 956.214 613.492C957.919 607.918 960.13 602.575 962.433 597.369C966.844 586.907 971.858 576.709 977.45 566.828C982.978 557.017 988.782 547.481 995.139 538.268C998.318 533.662 1001.59 529.055 1004.95 524.449C1008.31 519.842 1011.68 515.696 1015.73 510.952L1047.51 537.946Z" fill="#FFB573"/>
<path d="M1049.17 464.979C1001.96 474.837 980.306 531.957 980.306 531.957L1036.46 584.655C1036.46 584.655 1061.93 573.83 1065.48 551.903C1069.07 529.055 1062.3 462.215 1049.17 464.979Z" fill="#263238"/>
<path d="M1130.34 669.415L1121.59 702.535L1088.74 703.825L1097.03 663.795L1130.34 669.415Z" fill="#FFB573"/>
<path d="M584 1460.5C578.803 1460.5 574.444 1458.74 570.922 1455.22C567.401 1451.69 565.646 1447.34 565.658 1442.15C565.658 1436.95 567.419 1432.59 570.941 1429.07C574.462 1425.54 578.815 1423.79 584 1423.8C589.197 1423.8 593.556 1425.56 597.078 1429.08C600.599 1432.61 602.354 1436.96 602.342 1442.15C602.342 1447.35 600.581 1451.71 597.059 1455.23C593.538 1458.76 589.185 1460.51 584 1460.5ZM584 1387.1C578.803 1387.1 574.444 1385.34 570.922 1381.82C567.401 1378.29 565.646 1373.94 565.658 1368.75C565.658 1363.55 567.419 1359.19 570.941 1355.67C574.462 1352.14 578.815 1350.39 584 1350.4C589.197 1350.4 593.556 1352.16 597.078 1355.68C600.599 1359.21 602.354 1363.56 602.342 1368.75C602.342 1373.95 600.581 1378.31 597.059 1381.83C593.538 1385.36 589.185 1387.11 584 1387.1ZM584 1313.7C578.803 1313.7 574.444 1311.94 570.922 1308.42C567.401 1304.89 565.646 1300.54 565.658 1295.35C565.658 1290.15 567.419 1285.79 570.941 1282.27C574.462 1278.74 578.815 1276.99 584 1277C589.197 1277 593.556 1278.76 597.078 1282.28C600.599 1285.81 602.354 1290.16 602.342 1295.35C602.342 1300.55 600.581 1304.91 597.059 1308.43C593.538 1311.96 589.185 1313.71 584 1313.7ZM639.026 1497.2C633.829 1497.2 629.47 1495.44 625.948 1491.92C622.426 1488.39 620.672 1484.04 620.684 1478.85C620.684 1473.65 622.445 1469.29 625.966 1465.77C629.488 1462.24 633.841 1460.49 639.026 1460.5C644.223 1460.5 648.582 1462.26 652.104 1465.78C655.625 1469.31 657.38 1473.66 657.368 1478.85C657.368 1484.05 655.607 1488.41 652.085 1491.93C648.564 1495.46 644.211 1497.21 639.026 1497.2ZM690.842 1444.9C685.645 1444.9 681.286 1443.14 677.764 1439.62C674.242 1436.09 672.488 1431.74 672.5 1426.55C672.5 1421.35 674.261 1416.99 677.782 1413.47C681.304 1409.95 685.657 1408.19 690.842 1408.2C696.039 1408.2 700.398 1409.96 703.92 1413.49C707.441 1417.01 709.196 1421.37 709.184 1426.55C709.184 1431.75 707.423 1436.11 703.901 1439.64C700.38 1443.16 696.027 1444.91 690.842 1444.9ZM742.658 1393.52C737.461 1393.52 733.102 1391.76 729.58 1388.24C726.059 1384.71 724.304 1380.36 724.316 1375.17C724.316 1369.97 726.077 1365.62 729.598 1362.11C733.12 1358.6 737.473 1356.83 742.658 1356.82C747.855 1356.82 752.214 1358.58 755.736 1362.11C759.257 1365.63 761.012 1369.99 761 1375.17C761 1380.37 759.245 1384.73 755.736 1388.26C752.226 1391.78 747.867 1393.53 742.658 1393.52ZM528.974 1497.2C523.777 1497.2 519.418 1495.44 515.896 1491.92C512.375 1488.39 510.62 1484.04 510.632 1478.85C510.632 1473.65 512.393 1469.29 515.915 1465.77C519.436 1462.24 523.789 1460.49 528.974 1460.5C534.171 1460.5 538.53 1462.26 542.052 1465.78C545.574 1469.31 547.328 1473.66 547.316 1478.85C547.316 1484.05 545.555 1488.41 542.034 1491.93C538.512 1495.46 534.159 1497.21 528.974 1497.2ZM477.158 1444.9C471.961 1444.9 467.608 1443.14 464.099 1439.62C460.589 1436.09 458.828 1431.74 458.816 1426.55C458.816 1421.35 460.577 1416.99 464.099 1413.47C467.62 1409.95 471.973 1408.19 477.158 1408.2C482.355 1408.2 486.714 1409.96 490.236 1413.49C493.758 1417.01 495.512 1421.37 495.5 1426.55C495.5 1431.75 493.745 1436.11 490.236 1439.64C486.726 1443.16 482.367 1444.91 477.158 1444.9ZM425.342 1393.52C420.145 1393.52 415.786 1391.76 412.264 1388.24C408.743 1384.71 406.988 1380.36 407 1375.17C407 1369.97 408.761 1365.62 412.283 1362.11C415.804 1358.6 420.157 1356.83 425.342 1356.82C430.539 1356.82 434.898 1358.58 438.42 1362.11C441.942 1365.63 443.696 1369.99 443.684 1375.17C443.684 1380.37 441.929 1384.73 438.42 1388.26C434.91 1391.78 430.551 1393.53 425.342 1393.52ZM565.658 1644V1570.6H492.29V1533.9H675.71V1570.6H602.342V1644H565.658Z" fill="#699BF7"/>
<path d="M527.143 744.308C473.657 744.308 421.657 717.585 390.457 670.077H467.714V640.385H348.857V759.154H378.571V704.223C415.714 748.762 469.2 774 527.143 774V744.308ZM750 684.923V655.231H718.8C717.314 646.323 712.857 637.415 708.4 628.508L730.686 606.238L709.886 585.454L687.6 607.723C680.171 603.269 671.257 598.815 660.857 597.331V566.154H631.143V597.331C622.229 598.815 613.314 603.269 604.4 607.723L582.114 585.454L561.314 606.238L583.6 628.508C579.143 635.931 574.686 644.838 573.2 655.231H542V684.923H573.2C574.686 693.831 579.143 702.738 583.6 711.646L561.314 733.915L582.114 754.7L604.4 732.431C611.829 736.885 620.743 741.338 631.143 742.823V774H660.857V742.823C669.771 741.338 678.686 736.885 687.6 732.431L709.886 754.7L730.686 733.915L708.4 711.646C712.857 704.223 717.314 695.315 718.8 684.923H750ZM646 714.615C620.743 714.615 601.429 695.315 601.429 670.077C601.429 644.838 620.743 625.538 646 625.538C671.257 625.538 690.571 644.838 690.571 670.077C690.571 695.315 671.257 714.615 646 714.615ZM586.571 491.923H663.829C614.8 416.208 513.771 395.423 438 444.415C391.943 474.108 363.714 526.069 363.714 581H334C334 474.108 420.171 388 527.143 388C585.086 388 638.571 413.238 675.714 457.777V402.846H705.429V521.615H586.571V491.923Z" fill="#699BF7"/>
<path d="M1700.62 283.846H1523.38C1507.07 283.846 1493.85 297.071 1493.85 313.385V490.615C1493.85 506.929 1507.07 520.154 1523.38 520.154H1700.62C1716.93 520.154 1730.15 506.929 1730.15 490.615V313.385C1730.15 297.071 1716.93 283.846 1700.62 283.846Z" stroke="#699BF7" stroke-width="18.2857" stroke-linecap="round" stroke-linejoin="round"/>
<path d="M1552.92 283.846V210M1671.08 283.846V210M1493.85 461.077H1420M1493.85 342.923H1420M1671.08 520.154V594M1552.92 520.154V594M1730.15 342.923H1804M1730.15 461.077H1804M1656.31 416.769H1597.23" stroke="#699BF7" stroke-width="18.2857" stroke-linecap="round" stroke-linejoin="round"/>
<g clip-path="url(#clip0_13_19998)">
<path d="M1872 723H1736C1702.86 723 1676 749.863 1676 783V919C1676 952.137 1702.86 979 1736 979H1872C1905.14 979 1932 952.137 1932 919V783C1932 749.863 1905.14 723 1872 723Z" fill="#00979C"/>
<path fill-rule="evenodd" clip-rule="evenodd" d="M1695 859.512V843.095C1695.34 842.924 1695.34 842.582 1695.34 842.24C1700.51 819.838 1714.62 806.328 1736.99 801.026C1738.89 800.513 1740.95 800.684 1742.85 800H1753.86C1754.03 800.342 1754.55 800.171 1754.89 800.171C1765.91 801.368 1775.89 805.301 1784.67 812.142C1792.24 817.785 1798.09 824.968 1803.43 832.663C1804.12 833.689 1804.46 833.689 1805.15 832.663C1808.25 828.217 1811.52 823.942 1815.3 820.009C1824.42 810.261 1835.44 803.42 1848.86 801.026C1850.76 800.513 1852.99 800.684 1854.89 800H1865.56C1865.73 800.342 1866.07 800.171 1866.42 800.171C1869.69 800.513 1872.79 801.197 1875.88 802.052C1898.95 808.722 1915.3 829.756 1913.92 853.527C1912.89 873.536 1902.73 887.901 1885.01 896.964C1876.23 901.753 1866.59 902.95 1856.61 902.779C1843.53 902.608 1832.17 898.161 1822.36 889.611C1815.47 883.625 1810.14 876.443 1805.15 868.918C1804.46 867.892 1804.12 868.063 1803.43 869.089C1800.33 873.707 1797.06 878.324 1793.27 882.77C1786.56 890.295 1778.82 896.451 1769.18 899.701C1757.3 903.805 1745.26 903.976 1733.21 900.727C1715.83 895.767 1703.95 884.822 1697.41 868.063C1696.38 865.327 1695.86 862.249 1695 859.512ZM1749.73 884.651C1759.54 884.993 1767.97 881.744 1775.2 875.075C1782.6 868.234 1787.94 859.683 1793.27 851.304C1793.45 850.791 1793.44 850.449 1793.1 849.936C1788.63 842.924 1783.98 835.913 1777.78 830.098C1765.91 818.811 1751.97 815.049 1736.31 820.008C1723.4 824.284 1715.14 833.347 1713.24 847.028C1711.35 859.854 1716.34 870.115 1726.67 877.811C1733.55 882.77 1741.3 884.822 1749.73 884.651ZM1858.85 884.651C1862.63 884.651 1866.42 884.48 1870.03 883.454C1883.63 879.35 1892.58 870.97 1895.16 856.947C1897.74 843.095 1892.41 831.979 1880.7 824.113C1867.8 815.22 1849.04 816.075 1835.96 825.823C1827.18 832.321 1821.33 841.043 1815.47 850.107C1815.13 850.62 1815.3 850.962 1815.47 851.475C1820.12 858.828 1824.77 866.182 1830.79 872.509C1838.36 880.547 1847.49 885.164 1858.85 884.651Z" fill="white"/>
<path fill-rule="evenodd" clip-rule="evenodd" d="M1749.56 845.831C1755.06 845.831 1760.74 846.002 1766.25 845.831C1767.63 845.831 1767.8 846.173 1767.8 847.541C1767.63 849.076 1767.63 850.624 1767.8 852.159C1767.97 853.527 1767.63 853.869 1766.08 853.869H1744.05C1740.26 853.869 1736.48 853.698 1732.69 853.869C1731.49 853.869 1731.14 853.527 1731.14 852.159C1731.31 850.62 1731.31 849.081 1731.14 847.37C1731.14 846.173 1731.49 845.831 1732.69 845.831C1738.2 846.002 1743.88 845.831 1749.56 845.831ZM1857.98 834.886C1859.36 834.886 1860.74 835.057 1861.94 834.886C1862.8 834.886 1863.15 835.228 1863.15 836.083C1862.98 838.478 1863.15 840.872 1862.98 843.266C1862.98 844.463 1863.32 844.805 1864.52 844.805C1866.76 844.634 1869.17 844.805 1871.58 844.634C1872.61 844.634 1872.96 844.805 1872.96 846.002V853.869C1872.96 854.724 1872.61 855.066 1871.75 855.066C1869.34 854.895 1866.93 855.066 1864.35 854.895C1863.32 854.895 1862.98 855.237 1862.98 856.263C1863.15 858.657 1862.98 861.051 1863.15 863.446C1863.15 864.472 1862.8 864.985 1861.77 864.985C1859.19 864.814 1856.6 864.814 1854.03 864.985C1852.99 864.985 1852.65 864.643 1852.65 863.617C1852.82 861.051 1852.65 858.657 1852.82 856.092C1852.82 855.237 1852.48 854.895 1851.62 854.895C1849.21 855.066 1846.8 854.895 1844.39 855.066C1843.01 855.066 1842.84 854.553 1842.84 853.527C1842.84 851.133 1843.01 848.738 1842.84 846.344C1842.67 844.976 1843.36 844.634 1844.56 844.634C1846.97 844.805 1849.21 844.634 1851.62 844.805C1852.48 844.805 1852.82 844.463 1852.82 843.608C1852.65 841.214 1852.82 838.649 1852.65 836.255C1852.65 835.228 1852.99 834.886 1854.03 834.886C1855.4 835.057 1856.61 834.886 1857.98 834.886Z" fill="white"/>
</g>
<defs>
<clipPath id="clip0_13_19998">
<rect width="256" height="256" fill="white" transform="translate(1676 723)"/>
</clipPath>
</defs>
</svg>
